<?xml version="1.0" encoding="utf-8"?>
<!-- Generator: Adobe Illustrator 15.0.0, SVG Export Plug-In . SVG Version: 6.00 Build 0)  -->
<!DOCTYPE svg PUBLIC "-//W3C//DTD SVG 1.1//EN" "http://www.w3.org/Graphics/SVG/1.1/DTD/svg11.dtd">
<svg version="1.1" id="レイヤー_1" xmlns="http://www.w3.org/2000/svg" xmlns:xlink="http://www.w3.org/1999/xlink" x="0px"
	 y="0px" width="595.28px" height="841.89px" viewBox="0 0 595.28 841.89" enable-background="new 0 0 595.28 841.89"
	 xml:space="preserve">
<g>
	<path fill="#FF3333" d="M100.177,440.051c0,0,39.466-87.756,104.468-91.008c0,0,62.21-10.686,118.393,36.22l57.114,47.36
		c0,0,64.995-77.537,96.107-71.516c0,0,14.394,0.467,6.019,15.799c0,0-43.631,60.822-7.426,101.211c0,0,16.256,20.431-8.806,21.358
		c0,0-69.658-7.897-87.757-27.862c0,0-52.471,66.396-213.114,34.828c0,0-40.395-12.071-40.86-19.047c0,0-19.037-2.785-10.218-12.992
		C114.098,474.402,88.58,449.798,100.177,440.051z"/>
	<path fill="#FF9999" d="M110.851,444.689c0,0,26.936-81.252,97.501-84.967c0,0,55.251-11.603,114.216,42.72l58.039,41.779
		c0,0,3.716,12.996-6.498,22.759c0,0-52.471,56.636-193.147,32.953c0,0-48.754-10.683-50.148-17.631c0,0,12.532-1.862,19.035-17.177
		c0,0,7.429-13.934-12.997-13.934C136.852,451.192,103.89,455.829,110.851,444.689z"/>
	<path fill="#FF3333" d="M151.711,422.874c0,0-18.574-8.361-3.251-27.867c0,0,13.004-7.888,24.138,2.786
		C172.598,397.793,184.204,427.971,151.711,422.874z"/>
	<path fill="#FFFFFF" d="M168.417,409.404c0,0-15.322,15.793-20.424-0.462c0,0-2.325-13.005,12.073-11.613
		C160.067,397.328,169.347,399.656,168.417,409.404z"/>
	<path fill="#FF3333" d="M160.067,397.328c0,0,8.819,17.185-11.14,14.858c0,0-8.36-12.531,5.092-16.25
		C154.019,395.936,157.739,395.936,160.067,397.328z"/>
	<path fill="#FF3333" d="M173.532,388.971c0,0,34.82,26,8.351,88.219c0,0,1.393,8.815,8.834,4.185c0,0,35.749-53.403-10.684-94.728
		C180.033,386.646,167.498,378.764,173.532,388.971z"/>
	<path fill="#FF3333" d="M189.783,367.155c0,0,39.924,13.465,5.104,43.174l1.857,11.148c0,0,48.745-39.929,0.465-55.718
		C197.21,365.759,184.674,362.969,189.783,367.155z"/>
	<path fill="#FF3333" d="M206.503,407.546c0,0,22.742-3.72,27.845,16.716c0,0,1.402,20.887-25.062,24.14
		c0,0,29.237-18.569,8.814-32.963c0,0-9.285-5.11-16.246-6.036L206.503,407.546z"/>
	<path fill="#FF3333" d="M214.385,390.827c0,0,20.892-0.928,22.289,13.933c0,0,2.789,13.005-6.033,20.438l-2.792-5.117
		c0,0,15.327-19.969-14.854-26.936L214.385,390.827z"/>
	<path fill="#FF3333" d="M223.674,355.547c0,0,7.438,23.678-8.361,31.573v6.493c0,0,32.5-5.104,10.673-41.79L223.674,355.547z"/>
	<path fill="#FF3333" d="M235.276,403.364v11.149c0,0,39.467-32.964-5.569-45.501C229.707,369.012,258.037,383.873,235.276,403.364z
		"/>
	<path fill="#FF3333" d="M255.713,359.255c0,0,11.142,14.866-8.361,28.321v5.569c0,0,31.105-13.925,15.323-37.129L255.713,359.255z"
		/>
	<path fill="#FF3333" d="M245.04,400.58c0,0,16.707,7.432,5.092,26.467l8.363-5.104c0,0,8.361-18.569-13-24.614L245.04,400.58z"/>
	<path fill="#FF3333" d="M256.642,383.405c0,0,24.595,9.739,11.597,31.108l7.906-5.572c0,0,10.213-21.822-16.716-28.793
		L256.642,383.405z"/>
	<path fill="#FF3333" d="M223.209,452.127c0,0,46.893-64.08,90.084-62.228c0,0,16.702-3.253,11.137,10.68
		c-5.577,13.934-1.401,0-1.401,0s-23.211,25.073-21.349,34.356c0,0,19.49,29.723-9.289,34.82c0,0-58.498,29.72-65.465,0.933
		c0,0,30.177,5.565,61.29-13.003c0,0,19.964-12.07,4.637-22.283c0,0-4.637-6.029,0.465-15.322c0,0,20.9-27.391,3.72-19.969
		c0,0-52.937,31.114-62.689,50.609C234.348,450.72,222.285,460.012,223.209,452.127z"/>
	<path fill="#FF3333" d="M305.388,416.828c0,0,32.501,12.075-4.642,31.574l0.467,4.18c0,0,54.328-21.831,6.032-41.318
		L305.388,416.828z"/>
	<path fill="#FF3333" d="M323.495,432.623c0,0,19.503,6.957,2.797,24.6l3.248,4.178c0,0,25.531-21.82-4.182-32.965L323.495,432.623z
		"/>
	<path fill="#FF3333" d="M310.492,446.079c0,0,28.323,13.933,1.856,27.397c0,0,38.548-5.573,2.323-30.65L310.492,446.079z"/>
	<path fill="#FF3333" d="M326.742,480.902c0,0,19.504-12.074,6.038-23.217C332.78,457.686,358.786,473.009,326.742,480.902z"/>
	<path fill="#FF3333" d="M335.099,448.862c0,0,33.445,9.763,8.371,28.792c0,0,36.673-14.396-5.114-34.362L335.099,448.862z"/>
	<path fill="#FF3333" d="M330.924,430.751c0,0,29.253-4.636,15.327,19.514c0,0,19.038-4.186,5.569-22.294
		c0,0-10.679-12.531-27.391-2.773L330.924,430.751z"/>
	<path fill="#FF9999" d="M215.313,350.438l-13.025-38.31c0,0,39.867-4.428,53.167,8.866l113.719,62.028l-29.533,20.684
		C339.642,403.705,249.027,345.914,215.313,350.438z"/>
	<path fill="#FF3333" d="M355.996,370.869c-24.607-10.685-61.283-29.712-61.283-29.712
		c-60.821-44.576-102.613-31.579-102.613-31.579c19.038,8.823,10.213,43.179,10.213,43.179
		c78.472-8.354,141.156,58.047,141.156,58.047c1.391-10.225,35.748-18.58,35.748-18.58
		C376.893,381.077,355.996,370.869,355.996,370.869z M340.668,397.793c0,0-5.037-20.233-1.593-27.556
		c-0.17-0.083-0.342-0.181-0.512-0.264c-1.983,3.615-8.225,12.79-20.171,12.037c0,0-2.854-15.878,0.599-22.086
		c-0.082-0.049-0.159-0.098-0.236-0.126c-3.177,3.012-13.313,11.839-22.191,11.07c0,0-5.816-16.327-3.939-24.795
		c-0.311-0.165-0.615-0.324-0.916-0.484c-3.868,3.871-13.838,13.298-19.745,13.666c0,0-11.169-12.088-6.569-28.35
		c-0.122-0.071-0.238-0.129-0.357-0.201c-2.753,4.854-11.854,19.19-24.19,21.119c0,0-5.57-23.005-5.411-34.184
		c-0.357-0.114-0.708-0.213-1.06-0.314c-3.812,8.494-14.509,31.603-19.062,33.113c0,0,3.251-26.46-8.355-37.146
		c0,0,10.683-0.846,27.418,4.032c0.857-1.919,1.374-3.099,1.374-3.099c-0.198,0.929-0.291,2.091-0.314,3.413
		c8.548,2.573,18.623,6.66,29.601,13.065c0.565-0.999,0.889-1.628,0.889-1.628c-0.213,0.617-0.368,1.222-0.532,1.829
		c2.449,1.441,4.949,2.988,7.493,4.669c0,0,7.855,4.211,18.821,10.015c0.998-1.005,1.608-1.65,1.608-1.65
		c-0.307,0.624-0.52,1.357-0.692,2.134c7.781,4.117,17.02,8.984,26.13,13.726c0.648-0.615,1.026-1.005,1.026-1.005
		c-0.29,0.319-0.557,0.715-0.79,1.131c6.838,3.549,13.586,7.022,19.572,10.049c0.489-0.868,0.721-1.423,0.721-1.423
		s6.503-5.114,0.934,0c-0.479,0.424-0.828,1.016-1.143,1.687c8.579,4.335,15.53,7.719,18.783,8.987
		C357.858,379.225,340.668,391.295,340.668,397.793z"/>
	<path fill="#FF9999" d="M454.894,379.692c0,0-22.754,10.208-18.574,16.244c0,0,6.038,4.175,11.608,5.11
		c0,0-32.035,2.328-29.254,19.034c0,0-3.251,8.355,24.148,16.254c0,0-25.549,4.64-24.611,17.643c0,0,11.61,13.004,23.684,14.401
		c0,0-25.079,1.378-24.621,8.351c0,0,29.255,19.963,34.83,0c0,0,0.938-10.682-4.638-29.729c0,0-7.894-32.486,9.285-61.736
		C456.751,385.263,463.244,376.906,454.894,379.692z"/>
</g>
</svg>
