<?xml version="1.0" encoding="UTF-8" standalone="no"?>
<!-- Generator: Adobe Illustrator 15.0.0, SVG Export Plug-In . SVG Version: 6.00 Build 0)  -->

<svg
   xmlns:dc="http://purl.org/dc/elements/1.1/"
   xmlns:cc="http://creativecommons.org/ns#"
   xmlns:rdf="http://www.w3.org/1999/02/22-rdf-syntax-ns#"
   xmlns:svg="http://www.w3.org/2000/svg"
   xmlns="http://www.w3.org/2000/svg"
   xmlns:sodipodi="http://sodipodi.sourceforge.net/DTD/sodipodi-0.dtd"
   xmlns:inkscape="http://www.inkscape.org/namespaces/inkscape"
   version="1.1"
   id="レイヤー_1"
   x="0px"
   y="0px"
   width="413.01987"
   height="215.80182"
   viewBox="0 0 413.01985 215.80182"
   enable-background="new 0 0 595.28 841.89"
   xml:space="preserve"
   inkscape:version="0.48.2 r9819"
   sodipodi:docname="fish.svg"><metadata
   id="metadata4287"><rdf:RDF><cc:Work
       rdf:about=""><dc:format>image/svg+xml</dc:format><dc:type
         rdf:resource="http://purl.org/dc/dcmitype/StillImage" /></cc:Work></rdf:RDF></metadata><defs
   id="defs4285" /><sodipodi:namedview
   pagecolor="#ffffff"
   bordercolor="#666666"
   borderopacity="1"
   objecttolerance="10"
   gridtolerance="10"
   guidetolerance="10"
   inkscape:pageopacity="0"
   inkscape:pageshadow="2"
   inkscape:window-width="640"
   inkscape:window-height="480"
   id="namedview4283"
   showgrid="false"
   fit-margin-top="0"
   fit-margin-left="0"
   fit-margin-right="0"
   fit-margin-bottom="0"
   inkscape:zoom="0.64856236"
   inkscape:cx="296.08844"
   inkscape:cy="32.105975"
   inkscape:window-x="0"
   inkscape:window-y="0"
   inkscape:window-maximized="0"
   inkscape:current-layer="レイヤー_1" />
<g
   id="g4235"
   transform="matrix(-1.005802,0,0,1,503.03398,-252.56456)">
	<g
   id="g4237">
		<path
   d="m 130.178,307.045 c 0,0 -37.475,-9.737 -34.579,25.969 0,0 8.213,26.195 31.372,50.509 0,0 -58.527,32.915 -33.768,66.401 0,0 24.985,38.1 67.754,14.044 42.77,-24.058 43.642,-29.88 43.642,-29.88 0,0 3.012,-9.398 23.075,-1.125 0,0 219.162,59.851 243.671,-30.382 0,0 48.06,-10.441 19.95,-41.449 0,0 6.529,-8.406 -3.152,-17.189 0,0 2.734,-62.578 -80.467,-85.12 0,0 -83.644,-23.102 -175.206,66.069 l -25.933,35.22 c 0,0 -46.547,-14.182 -51.085,-28.312 l -25.274,-24.755 z"
   id="path4239"
   inkscape:connector-curvature="0"
   style="fill:#cc6633" />
		<path
   d="m 204.705,367.276 c 0,0 -57.67,-23.845 -74.415,-50.215 0,0 -34.062,1.132 -16.099,30.637 0,0 34.049,31.397 29.55,37.478 0,0 -65.548,44.245 -29.733,68.083 0,0 34.723,23.367 92.099,-35.406 0,0 -9.406,-50.717 -1.402,-50.577 z"
   id="path4241"
   inkscape:connector-curvature="0"
   style="fill:#ff9999" />
		<g
   id="g4243">
			<path
   d="m 205.886,380.545 c 0,0 -81.549,-43.464 -89.127,-67.622 l -5.694,3.48 c 0,0 51.325,57.735 96.596,67.788 l -1.775,-3.646 z"
   id="path4245"
   inkscape:connector-curvature="0"
   style="fill:#cc6633" />
			<path
   d="m 206.429,391.719 c 0,0 -99.632,-42.59 -99.383,-48.467 l 14.149,16.904 c 0,0 80.032,45.145 86.584,37.361 l -1.35,-5.798 z"
   id="path4247"
   inkscape:connector-curvature="0"
   style="fill:#cc6633" />
			<path
   d="m 135.709,384.504 c 0,0 46.425,22.79 72.835,17.767 l -1.363,4.871 c 0,0 -69.425,-2.483 -76.129,-19.749 l 4.657,-2.889 z"
   id="path4249"
   inkscape:connector-curvature="0"
   style="fill:#cc6633" />
			<path
   d="m 104.111,414.295 c 0,0 94.975,1.767 104.313,-3.482 9.342,-5.258 1.016,-1.116 1.016,-1.116 l 0.207,4.25 c 0,0 -102.863,11.413 -105.354,4.074 l -0.182,-3.726 z"
   id="path4251"
   inkscape:connector-curvature="0"
   style="fill:#cc6633" />
			<path
   d="m 210.438,419.241 c 0,0 -105.793,16.885 -102.863,33.268 l 6.77,7.665 c 0,0 -5.216,-19.471 88.93,-34.72 l 7.163,-6.213 z"
   id="path4253"
   inkscape:connector-curvature="0"
   style="fill:#cc6633" />
		</g>
		<path
   d="m 215.167,411.203 -4.915,-24.283 c 0,0 -4.049,-17.396 10.698,-31.972 0,0 65.316,-92.744 149.681,-89.929 0,0 111.491,1.497 105.326,82.825 0,0 -14.074,28.41 -37.425,30.615 0,0 -17.225,-25.284 -33.322,-16.499 0,0 -28.707,12.592 -8.265,38.25 0,-10e-4 -142.504,29.337 -181.778,10.993 z"
   id="path4255"
   inkscape:connector-curvature="0"
   style="fill:#ff9999" />
		<path
   d="m 230.017,420.605 c 0,0 176.447,65.502 234.225,-17.816 0,0 -11.715,11.238 -36.98,-25.917 0,0 -21.806,-20.796 -26.734,9.299 0,0 1.076,11.145 10.908,15.995 0,0 3.854,2.481 -7.108,7.279 -10e-4,0 -169.914,24.809 -174.311,11.16 z"
   id="path4257"
   inkscape:connector-curvature="0"
   style="fill:#ffffcc" />
		<path
   d="m 264.198,345.374 c 0,0 -29.599,5.177 -3.321,19.355 0,0 4.969,3.487 -0.753,6.431 0,0 -22.296,12.814 0.935,19.144 0,0 -13.258,12.377 13.114,17.488 0,0 -25.748,7.653 -25.268,-15.297 0,0 -18.913,-16.132 -1.296,-26.589 0,0 -12.075,-18.067 6.093,-28.016 0,0.001 15.881,-2.375 10.496,7.484 z"
   id="path4259"
   inkscape:connector-curvature="0"
   style="fill:#cc6633" />
		<path
   d="m 312.063,343.042 c 0,0 -29.598,5.169 -3.32,19.352 0,0 4.968,3.49 -0.754,6.436 0,0 -22.298,12.816 0.935,19.14 0,0 -13.255,12.377 13.111,17.491 0,0 -25.749,7.65 -25.268,-15.293 0,0 -18.91,-16.139 -1.296,-26.59 0,0 -12.075,-18.077 6.098,-28.022 0,-0.002 15.877,-2.374 10.494,7.486 z"
   id="path4261"
   inkscape:connector-curvature="0"
   style="fill:#cc6633" />
		<path
   d="m 354.661,320.173 c 0,0 -29.598,5.173 -3.32,19.354 0,0 4.968,3.489 -0.753,6.43 0,0 -22.298,12.816 0.935,19.151 0,0 -13.256,12.371 13.114,17.484 0,0 -25.75,7.651 -25.271,-15.293 0,0 -18.91,-16.137 -1.295,-26.593 0,0 -12.077,-18.067 6.098,-28.018 -10e-4,0 15.877,-2.375 10.492,7.485 z"
   id="path4263"
   inkscape:connector-curvature="0"
   style="fill:#cc6633" />
		<path
   d="m 441.595,320.841 c 0,0 -25.76,-11.141 -23.305,13.745 0,0 8.411,24.187 30.004,0.812 0,-0.001 -3.884,-16.138 -6.699,-14.557 z"
   id="path4265"
   inkscape:connector-curvature="0"
   style="fill:#ffffff" />
		<path
   d="m 428.516,321.716 c 0,0 -6.786,24.853 20.933,13.909 0,0 4.451,-29.005 -26.642,-21.624 0,0 -20.287,21.24 4.24,32.308 0,0 5.321,-0.259 2.984,-4.408 0,0 -19.534,-7.045 -1.515,-20.185 z"
   id="path4267"
   inkscape:connector-curvature="0"
   style="fill:#333333" />
		<path
   d="m 264.877,333.082 c 0,0 51.83,13.469 78.257,-24.072 0,0 17.654,-42.444 -54.218,-40.542 l -20.99,6.889 c 0,0 -17.018,0.828 -10.207,20.224 l 4.875,34.411 2.283,3.09 z"
   id="path4269"
   inkscape:connector-curvature="0"
   style="fill:#cc6633" />
		<path
   d="m 264.73,289.886 4.461,33.636 c 0,0 46.017,9.842 63.373,-30.897 0,0 -30.239,-25.123 -67.834,-2.739 z"
   id="path4271"
   inkscape:connector-curvature="0"
   style="fill:#ff9999" />
		<path
   d="m 330.522,304.63 c 0,0 -26.701,-22.158 -68.401,-11.466 l 1.192,9.686 c 0,0 50.596,-13.288 60.719,9.311 l 6.49,-7.531 z"
   id="path4273"
   inkscape:connector-curvature="0"
   style="fill:#cc6633" />
		<path
   d="m 317.421,317.172 c 0,0 -37.808,-20.529 -52.08,-9.731 l 0.493,10.083 c 0,0 37.951,-6.182 42.83,5.13 l 8.757,-5.482 z"
   id="path4275"
   inkscape:connector-curvature="0"
   style="fill:#cc6633" />
		<path
   d="m 476.146,356.588 c 0,0 4.947,-8.846 9.921,-6.127 0,0 7.837,0.694 1.648,11.753 0,0 -23.741,26.176 -41.183,27.025 l -1.796,-3.678 c 0,0.001 26.034,-12.298 31.41,-28.973 z"
   id="path4277"
   inkscape:connector-curvature="0"
   style="fill:#ff9999" />
		<path
   d="m 450.205,392.826 c 0,0 18.488,-1.439 38.309,-25.272 0,0 10.885,8.078 1.684,17.941 -10e-4,10e-4 -26.483,19.586 -39.993,7.331 z"
   id="path4279"
   inkscape:connector-curvature="0"
   style="fill:#ff9999" />
	</g>
	<path
   d="m 413.843,439.541 c 0,0 -36.637,17.17 -56.79,-2.309 17.772,7.551 45.053,-3.913 45.053,-3.913 0.973,-3.855 -1.621,-2.736 -1.621,-2.736 -24.205,10.074 -41.346,3.319 -47.203,0.237 -0.271,-2.039 -0.52,-4.979 -0.263,-7.995 10.31,7.841 41.734,2.407 41.734,2.407 2.871,-2.296 -1.175,-3.756 -1.175,-3.756 -28.32,4.476 -36.946,-0.252 -39.576,-3.593 0.662,-1.918 1.678,-3.641 3.209,-4.907 0,0 28.901,4.89 35.516,1.253 0,0 3.402,-4.971 -0.1,-5.461 0,0 -31.469,0.208 -33.596,-2.67 0,0 -12.919,-3.347 -11.187,11.81 0,0 -1.509,3.055 -2.217,8.89 0,0 -2.161,16.834 15.169,22.288 0,0 32.167,14.167 56.041,-5.881 l -2.994,-3.664 z"
   id="path4281"
   inkscape:connector-curvature="0"
   style="fill:#cc6633" />
</g>
</svg>