<?xml version="1.0" encoding="utf-8"?>
<!-- Generator: Adobe Illustrator 15.0.0, SVG Export Plug-In . SVG Version: 6.00 Build 0)  -->
<!DOCTYPE svg PUBLIC "-//W3C//DTD SVG 1.1//EN" "http://www.w3.org/Graphics/SVG/1.1/DTD/svg11.dtd">
<svg version="1.1" id="レイヤー_1" xmlns="http://www.w3.org/2000/svg" xmlns:xlink="http://www.w3.org/1999/xlink" x="0px"
	 y="0px" width="595.28px" height="841.89px" viewBox="0 0 595.28 841.89" enable-background="new 0 0 595.28 841.89"
	 xml:space="preserve">
<g>
	<g>
		<path fill="#CC6633" d="M130.178,307.045c0,0-37.475-9.737-34.579,25.969c0,0,8.213,26.195,31.372,50.509
			c0,0-58.527,32.915-33.768,66.401c0,0,24.985,38.1,67.754,14.044c42.77-24.058,43.642-29.88,43.642-29.88
			s3.012-9.398,23.075-1.125c0,0,219.162,59.851,243.671-30.382c0,0,48.06-10.441,19.95-41.449c0,0,6.529-8.406-3.152-17.189
			c0,0,2.734-62.578-80.467-85.12c0,0-83.644-23.102-175.206,66.069l-25.933,35.22c0,0-46.547-14.182-51.085-28.312L130.178,307.045
			z"/>
		<path fill="#FF9999" d="M204.705,367.276c0,0-57.67-23.845-74.415-50.215c0,0-34.062,1.132-16.099,30.637
			c0,0,34.049,31.397,29.55,37.478c0,0-65.548,44.245-29.733,68.083c0,0,34.723,23.367,92.099-35.406
			C206.107,417.853,196.701,367.136,204.705,367.276z"/>
		<g>
			<path fill="#CC6633" d="M205.886,380.545c0,0-81.549-43.464-89.127-67.622l-5.694,3.48c0,0,51.325,57.735,96.596,67.788
				L205.886,380.545z"/>
			<path fill="#CC6633" d="M206.429,391.719c0,0-99.632-42.59-99.383-48.467l14.149,16.904c0,0,80.032,45.145,86.584,37.361
				L206.429,391.719z"/>
			<path fill="#CC6633" d="M135.709,384.504c0,0,46.425,22.79,72.835,17.767l-1.363,4.871c0,0-69.425-2.483-76.129-19.749
				L135.709,384.504z"/>
			<path fill="#CC6633" d="M104.111,414.295c0,0,94.975,1.767,104.313-3.482c9.342-5.258,1.016-1.116,1.016-1.116l0.207,4.25
				c0,0-102.863,11.413-105.354,4.074L104.111,414.295z"/>
			<path fill="#CC6633" d="M210.438,419.241c0,0-105.793,16.885-102.863,33.268l6.77,7.665c0,0-5.216-19.471,88.93-34.72
				L210.438,419.241z"/>
		</g>
		<path fill="#FF9999" d="M215.167,411.203l-4.915-24.283c0,0-4.049-17.396,10.698-31.972c0,0,65.316-92.744,149.681-89.929
			c0,0,111.491,1.497,105.326,82.825c0,0-14.074,28.41-37.425,30.615c0,0-17.225-25.284-33.322-16.499
			c0,0-28.707,12.592-8.265,38.25C396.945,400.209,254.441,429.547,215.167,411.203z"/>
		<path fill="#FFFFCC" d="M230.017,420.605c0,0,176.447,65.502,234.225-17.816c0,0-11.715,11.238-36.98-25.917
			c0,0-21.806-20.796-26.734,9.299c0,0,1.076,11.145,10.908,15.995c0,0,3.854,2.481-7.108,7.279
			C404.327,409.445,234.414,434.254,230.017,420.605z"/>
		<path fill="#CC6633" d="M264.198,345.374c0,0-29.599,5.177-3.321,19.355c0,0,4.969,3.487-0.753,6.431
			c0,0-22.296,12.814,0.935,19.144c0,0-13.258,12.377,13.114,17.488c0,0-25.748,7.653-25.268-15.297c0,0-18.913-16.132-1.296-26.589
			c0,0-12.075-18.067,6.093-28.016C253.702,337.891,269.583,335.515,264.198,345.374z"/>
		<path fill="#CC6633" d="M312.063,343.042c0,0-29.598,5.169-3.32,19.352c0,0,4.968,3.49-0.754,6.436c0,0-22.298,12.816,0.935,19.14
			c0,0-13.255,12.377,13.111,17.491c0,0-25.749,7.65-25.268-15.293c0,0-18.91-16.139-1.296-26.59c0,0-12.075-18.077,6.098-28.022
			C301.569,335.554,317.446,333.182,312.063,343.042z"/>
		<path fill="#CC6633" d="M354.661,320.173c0,0-29.598,5.173-3.32,19.354c0,0,4.968,3.489-0.753,6.43
			c0,0-22.298,12.816,0.935,19.151c0,0-13.256,12.371,13.114,17.484c0,0-25.75,7.651-25.271-15.293c0,0-18.91-16.137-1.295-26.593
			c0,0-12.077-18.067,6.098-28.018C344.168,312.688,360.046,310.313,354.661,320.173z"/>
		<path fill="#FFFFFF" d="M441.595,320.841c0,0-25.76-11.141-23.305,13.745c0,0,8.411,24.187,30.004,0.812
			C448.294,335.397,444.41,319.26,441.595,320.841z"/>
		<path fill="#333333" d="M428.516,321.716c0,0-6.786,24.853,20.933,13.909c0,0,4.451-29.005-26.642-21.624
			c0,0-20.287,21.24,4.24,32.308c0,0,5.321-0.259,2.984-4.408C430.031,341.901,410.497,334.856,428.516,321.716z"/>
		<path fill="#CC6633" d="M264.877,333.082c0,0,51.83,13.469,78.257-24.072c0,0,17.654-42.444-54.218-40.542l-20.99,6.889
			c0,0-17.018,0.828-10.207,20.224l4.875,34.411L264.877,333.082z"/>
		<path fill="#FF9999" d="M264.73,289.886l4.461,33.636c0,0,46.017,9.842,63.373-30.897
			C332.564,292.625,302.325,267.502,264.73,289.886z"/>
		<path fill="#CC6633" d="M330.522,304.63c0,0-26.701-22.158-68.401-11.466l1.192,9.686c0,0,50.596-13.288,60.719,9.311
			L330.522,304.63z"/>
		<path fill="#CC6633" d="M317.421,317.172c0,0-37.808-20.529-52.08-9.731l0.493,10.083c0,0,37.951-6.182,42.83,5.13
			L317.421,317.172z"/>
		<path fill="#FF9999" d="M476.146,356.588c0,0,4.947-8.846,9.921-6.127c0,0,7.837,0.694,1.648,11.753
			c0,0-23.741,26.176-41.183,27.025l-1.796-3.678C444.736,385.562,470.77,373.263,476.146,356.588z"/>
		<path fill="#FF9999" d="M450.205,392.826c0,0,18.488-1.439,38.309-25.272c0,0,10.885,8.078,1.684,17.941
			C490.197,385.496,463.715,405.081,450.205,392.826z"/>
	</g>
	<path fill="#CC6633" d="M413.843,439.541c0,0-36.637,17.17-56.79-2.309c17.772,7.551,45.053-3.913,45.053-3.913
		c0.973-3.855-1.621-2.736-1.621-2.736c-24.205,10.074-41.346,3.319-47.203,0.237c-0.271-2.039-0.52-4.979-0.263-7.995
		c10.31,7.841,41.734,2.407,41.734,2.407c2.871-2.296-1.175-3.756-1.175-3.756c-28.32,4.476-36.946-0.252-39.576-3.593
		c0.662-1.918,1.678-3.641,3.209-4.907c0,0,28.901,4.89,35.516,1.253c0,0,3.402-4.971-0.1-5.461c0,0-31.469,0.208-33.596-2.67
		c0,0-12.919-3.347-11.187,11.81c0,0-1.509,3.055-2.217,8.89c0,0-2.161,16.834,15.169,22.288c0,0,32.167,14.167,56.041-5.881
		L413.843,439.541z"/>
</g>
</svg>
