<?xml version="1.0" encoding="UTF-8" standalone="no"?>
<!-- Generator: Adobe Illustrator 15.0.0, SVG Export Plug-In . SVG Version: 6.00 Build 0)  -->

<svg
   xmlns:dc="http://purl.org/dc/elements/1.1/"
   xmlns:cc="http://creativecommons.org/ns#"
   xmlns:rdf="http://www.w3.org/1999/02/22-rdf-syntax-ns#"
   xmlns:svg="http://www.w3.org/2000/svg"
   xmlns="http://www.w3.org/2000/svg"
   xmlns:sodipodi="http://sodipodi.sourceforge.net/DTD/sodipodi-0.dtd"
   xmlns:inkscape="http://www.inkscape.org/namespaces/inkscape"
   version="1.1"
   id="レイヤー_1"
   x="0px"
   y="0px"
   width="387.74155"
   height="207.13885"
   viewBox="0 0 387.74153 207.13885"
   enable-background="new 0 0 595.28 841.89"
   xml:space="preserve"
   inkscape:version="0.48.2 r9819"
   sodipodi:docname="fish02.svg"><metadata
   id="metadata4448"><rdf:RDF><cc:Work
       rdf:about=""><dc:format>image/svg+xml</dc:format><dc:type
         rdf:resource="http://purl.org/dc/dcmitype/StillImage" /></cc:Work></rdf:RDF></metadata><defs
   id="defs4446" /><sodipodi:namedview
   pagecolor="#ffffff"
   bordercolor="#666666"
   borderopacity="1"
   objecttolerance="10"
   gridtolerance="10"
   guidetolerance="10"
   inkscape:pageopacity="0"
   inkscape:pageshadow="2"
   inkscape:window-width="640"
   inkscape:window-height="480"
   id="namedview4444"
   showgrid="false"
   fit-margin-top="0"
   fit-margin-left="0"
   fit-margin-right="0"
   fit-margin-bottom="0"
   inkscape:zoom="0.28032165"
   inkscape:cx="200.48513"
   inkscape:cy="94.008457"
   inkscape:window-x="0"
   inkscape:window-y="0"
   inkscape:window-maximized="0"
   inkscape:current-layer="レイヤー_1" />
<g
   id="g4394"
   transform="translate(-97.15488,-307.81461)">
	<path
   d="m 100.177,440.051 c 0,0 39.466,-87.756 104.468,-91.008 0,0 62.21,-10.686 118.393,36.22 l 57.114,47.36 c 0,0 64.995,-77.537 96.107,-71.516 0,0 14.394,0.467 6.019,15.799 0,0 -43.631,60.822 -7.426,101.211 0,0 16.256,20.431 -8.806,21.358 0,0 -69.658,-7.897 -87.757,-27.862 0,0 -52.471,66.396 -213.114,34.828 0,0 -40.395,-12.071 -40.86,-19.047 0,0 -19.037,-2.785 -10.218,-12.992 0.001,0 -25.517,-24.604 -13.92,-34.351 z"
   id="path4396"
   inkscape:connector-curvature="0"
   style="fill:#ff3333" />
	<path
   d="m 110.851,444.689 c 0,0 26.936,-81.252 97.501,-84.967 0,0 55.251,-11.603 114.216,42.72 l 58.039,41.779 c 0,0 3.716,12.996 -6.498,22.759 0,0 -52.471,56.636 -193.147,32.953 0,0 -48.754,-10.683 -50.148,-17.631 0,0 12.532,-1.862 19.035,-17.177 0,0 7.429,-13.934 -12.997,-13.934 0,0.001 -32.962,4.638 -26.001,-6.502 z"
   id="path4398"
   inkscape:connector-curvature="0"
   style="fill:#ff9999" />
	<path
   d="m 151.711,422.874 c 0,0 -18.574,-8.361 -3.251,-27.867 0,0 13.004,-7.888 24.138,2.786 0,0 11.606,30.178 -20.887,25.081 z"
   id="path4400"
   inkscape:connector-curvature="0"
   style="fill:#ff3333" />
	<path
   d="m 168.417,409.404 c 0,0 -15.322,15.793 -20.424,-0.462 0,0 -2.325,-13.005 12.073,-11.613 0.001,-0.001 9.281,2.327 8.351,12.075 z"
   id="path4402"
   inkscape:connector-curvature="0"
   style="fill:#ffffff" />
	<path
   d="m 160.067,397.328 c 0,0 8.819,17.185 -11.14,14.858 0,0 -8.36,-12.531 5.092,-16.25 0,0 3.72,0 6.048,1.392 z"
   id="path4404"
   inkscape:connector-curvature="0"
   style="fill:#ff3333" />
	<path
   d="m 173.532,388.971 c 0,0 34.82,26 8.351,88.219 0,0 1.393,8.815 8.834,4.185 0,0 35.749,-53.403 -10.684,-94.728 0,-10e-4 -12.535,-7.883 -6.501,2.324 z"
   id="path4406"
   inkscape:connector-curvature="0"
   style="fill:#ff3333" />
	<path
   d="m 189.783,367.155 c 0,0 39.924,13.465 5.104,43.174 l 1.857,11.148 c 0,0 48.745,-39.929 0.465,-55.718 0.001,0 -12.535,-2.79 -7.426,1.396 z"
   id="path4408"
   inkscape:connector-curvature="0"
   style="fill:#ff3333" />
	<path
   d="m 206.503,407.546 c 0,0 22.742,-3.72 27.845,16.716 0,0 1.402,20.887 -25.062,24.14 0,0 29.237,-18.569 8.814,-32.963 0,0 -9.285,-5.11 -16.246,-6.036 l 4.649,-1.857 z"
   id="path4410"
   inkscape:connector-curvature="0"
   style="fill:#ff3333" />
	<path
   d="m 214.385,390.827 c 0,0 20.892,-0.928 22.289,13.933 0,0 2.789,13.005 -6.033,20.438 l -2.792,-5.117 c 0,0 15.327,-19.969 -14.854,-26.936 l 1.39,-2.318 z"
   id="path4412"
   inkscape:connector-curvature="0"
   style="fill:#ff3333" />
	<path
   d="m 223.674,355.547 c 0,0 7.438,23.678 -8.361,31.573 v 6.493 c 0,0 32.5,-5.104 10.673,-41.79 l -2.312,3.724 z"
   id="path4414"
   inkscape:connector-curvature="0"
   style="fill:#ff3333" />
	<path
   d="m 235.276,403.364 v 11.149 c 0,0 39.467,-32.964 -5.569,-45.501 0,0 28.33,14.861 5.569,34.352 z"
   id="path4416"
   inkscape:connector-curvature="0"
   style="fill:#ff3333" />
	<path
   d="m 255.713,359.255 c 0,0 11.142,14.866 -8.361,28.321 v 5.569 c 0,0 31.105,-13.925 15.323,-37.129 l -6.962,3.239 z"
   id="path4418"
   inkscape:connector-curvature="0"
   style="fill:#ff3333" />
	<path
   d="m 245.04,400.58 c 0,0 16.707,7.432 5.092,26.467 l 8.363,-5.104 c 0,0 8.361,-18.569 -13,-24.614 l -0.455,3.251 z"
   id="path4420"
   inkscape:connector-curvature="0"
   style="fill:#ff3333" />
	<path
   d="m 256.642,383.405 c 0,0 24.595,9.739 11.597,31.108 l 7.906,-5.572 c 0,0 10.213,-21.822 -16.716,-28.793 l -2.787,3.257 z"
   id="path4422"
   inkscape:connector-curvature="0"
   style="fill:#ff3333" />
	<path
   d="m 223.209,452.127 c 0,0 46.893,-64.08 90.084,-62.228 0,0 16.702,-3.253 11.137,10.68 -5.577,13.934 -1.401,0 -1.401,0 0,0 -23.211,25.073 -21.349,34.356 0,0 19.49,29.723 -9.289,34.82 0,0 -58.498,29.72 -65.465,0.933 0,0 30.177,5.565 61.29,-13.003 0,0 19.964,-12.07 4.637,-22.283 0,0 -4.637,-6.029 0.465,-15.322 0,0 20.9,-27.391 3.72,-19.969 0,0 -52.937,31.114 -62.689,50.609 -10e-4,0 -12.064,9.292 -11.14,1.407 z"
   id="path4424"
   inkscape:connector-curvature="0"
   style="fill:#ff3333" />
	<path
   d="m 305.388,416.828 c 0,0 32.501,12.075 -4.642,31.574 l 0.467,4.18 c 0,0 54.328,-21.831 6.032,-41.318 l -1.857,5.564 z"
   id="path4426"
   inkscape:connector-curvature="0"
   style="fill:#ff3333" />
	<path
   d="m 323.495,432.623 c 0,0 19.503,6.957 2.797,24.6 l 3.248,4.178 c 0,0 25.531,-21.82 -4.182,-32.965 l -1.863,4.187 z"
   id="path4428"
   inkscape:connector-curvature="0"
   style="fill:#ff3333" />
	<path
   d="m 310.492,446.079 c 0,0 28.323,13.933 1.856,27.397 0,0 38.548,-5.573 2.323,-30.65 l -4.179,3.253 z"
   id="path4430"
   inkscape:connector-curvature="0"
   style="fill:#ff3333" />
	<path
   d="m 326.742,480.902 c 0,0 19.504,-12.074 6.038,-23.217 0,10e-4 26.006,15.324 -6.038,23.217 z"
   id="path4432"
   inkscape:connector-curvature="0"
   style="fill:#ff3333" />
	<path
   d="m 335.099,448.862 c 0,0 33.445,9.763 8.371,28.792 0,0 36.673,-14.396 -5.114,-34.362 l -3.257,5.57 z"
   id="path4434"
   inkscape:connector-curvature="0"
   style="fill:#ff3333" />
	<path
   d="m 330.924,430.751 c 0,0 29.253,-4.636 15.327,19.514 0,0 19.038,-4.186 5.569,-22.294 0,0 -10.679,-12.531 -27.391,-2.773 l 6.495,5.553 z"
   id="path4436"
   inkscape:connector-curvature="0"
   style="fill:#ff3333" />
	<path
   d="m 215.313,350.438 -13.025,-38.31 c 0,0 39.867,-4.428 53.167,8.866 l 113.719,62.028 -29.533,20.684 c 10e-4,-0.001 -90.614,-57.792 -124.328,-53.268 z"
   id="path4438"
   inkscape:connector-curvature="0"
   style="fill:#ff9999" />
	<path
   d="M 355.996,370.869 C 331.389,360.184 294.713,341.157 294.713,341.157 233.892,296.581 192.1,309.578 192.1,309.578 c 19.038,8.823 10.213,43.179 10.213,43.179 78.472,-8.354 141.156,58.047 141.156,58.047 1.391,-10.225 35.748,-18.58 35.748,-18.58 -2.324,-11.147 -23.221,-21.355 -23.221,-21.355 z m -15.328,26.924 c 0,0 -5.037,-20.233 -1.593,-27.556 -0.17,-0.083 -0.342,-0.181 -0.512,-0.264 -1.983,3.615 -8.225,12.79 -20.171,12.037 0,0 -2.854,-15.878 0.599,-22.086 -0.082,-0.049 -0.159,-0.098 -0.236,-0.126 -3.177,3.012 -13.313,11.839 -22.191,11.07 0,0 -5.816,-16.327 -3.939,-24.795 -0.311,-0.165 -0.615,-0.324 -0.916,-0.484 -3.868,3.871 -13.838,13.298 -19.745,13.666 0,0 -11.169,-12.088 -6.569,-28.35 -0.122,-0.071 -0.238,-0.129 -0.357,-0.201 -2.753,4.854 -11.854,19.19 -24.19,21.119 0,0 -5.57,-23.005 -5.411,-34.184 -0.357,-0.114 -0.708,-0.213 -1.06,-0.314 -3.812,8.494 -14.509,31.603 -19.062,33.113 0,0 3.251,-26.46 -8.355,-37.146 0,0 10.683,-0.846 27.418,4.032 0.857,-1.919 1.374,-3.099 1.374,-3.099 -0.198,0.929 -0.291,2.091 -0.314,3.413 8.548,2.573 18.623,6.66 29.601,13.065 0.565,-0.999 0.889,-1.628 0.889,-1.628 -0.213,0.617 -0.368,1.222 -0.532,1.829 2.449,1.441 4.949,2.988 7.493,4.669 0,0 7.855,4.211 18.821,10.015 0.998,-1.005 1.608,-1.65 1.608,-1.65 -0.307,0.624 -0.52,1.357 -0.692,2.134 7.781,4.117 17.02,8.984 26.13,13.726 0.648,-0.615 1.026,-1.005 1.026,-1.005 -0.29,0.319 -0.557,0.715 -0.79,1.131 6.838,3.549 13.586,7.022 19.572,10.049 0.489,-0.868 0.721,-1.423 0.721,-1.423 0,0 6.503,-5.114 0.934,0 -0.479,0.424 -0.828,1.016 -1.143,1.687 8.579,4.335 15.53,7.719 18.783,8.987 -10e-4,0.001 -17.191,12.071 -17.191,18.569 z"
   id="path4440"
   inkscape:connector-curvature="0"
   style="fill:#ff3333" />
	<path
   d="m 454.894,379.692 c 0,0 -22.754,10.208 -18.574,16.244 0,0 6.038,4.175 11.608,5.11 0,0 -32.035,2.328 -29.254,19.034 0,0 -3.251,8.355 24.148,16.254 0,0 -25.549,4.64 -24.611,17.643 0,0 11.61,13.004 23.684,14.401 0,0 -25.079,1.378 -24.621,8.351 0,0 29.255,19.963 34.83,0 0,0 0.938,-10.682 -4.638,-29.729 0,0 -7.894,-32.486 9.285,-61.736 0,-0.001 6.493,-8.358 -1.857,-5.572 z"
   id="path4442"
   inkscape:connector-curvature="0"
   style="fill:#ff9999" />
</g>
</svg>