<?xml version="1.0" encoding="UTF-8" standalone="no"?>
<!-- Generator: Adobe Illustrator 15.0.0, SVG Export Plug-In . SVG Version: 6.00 Build 0)  -->

<svg
   xmlns:dc="http://purl.org/dc/elements/1.1/"
   xmlns:cc="http://creativecommons.org/ns#"
   xmlns:rdf="http://www.w3.org/1999/02/22-rdf-syntax-ns#"
   xmlns:svg="http://www.w3.org/2000/svg"
   xmlns="http://www.w3.org/2000/svg"
   xmlns:sodipodi="http://sodipodi.sourceforge.net/DTD/sodipodi-0.dtd"
   xmlns:inkscape="http://www.inkscape.org/namespaces/inkscape"
   version="1.1"
   id="レイヤー_1"
   x="0px"
   y="0px"
   width="327.26999"
   height="332.08289"
   viewBox="0 0 327.26997 332.08288"
   enable-background="new 0 0 595.28 841.89"
   xml:space="preserve"
   inkscape:version="0.48.2 r9819"
   sodipodi:docname="fukusuke2.svg"><metadata
   id="metadata4002"><rdf:RDF><cc:Work
       rdf:about=""><dc:format>image/svg+xml</dc:format><dc:type
         rdf:resource="http://purl.org/dc/dcmitype/StillImage" /></cc:Work></rdf:RDF></metadata><defs
   id="defs4000" /><sodipodi:namedview
   pagecolor="#ffffff"
   bordercolor="#666666"
   borderopacity="1"
   objecttolerance="10"
   gridtolerance="10"
   guidetolerance="10"
   inkscape:pageopacity="0"
   inkscape:pageshadow="2"
   inkscape:window-width="934"
   inkscape:window-height="485"
   id="namedview3998"
   showgrid="false"
   fit-margin-top="0"
   fit-margin-left="0"
   fit-margin-right="0"
   fit-margin-bottom="0"
   inkscape:zoom="0.28032165"
   inkscape:cx="164.16862"
   inkscape:cy="103.14052"
   inkscape:window-x="485"
   inkscape:window-y="32"
   inkscape:window-maximized="0"
   inkscape:current-layer="レイヤー_1" />
<g
   id="g3970"
   transform="translate(-133.47139,-192.00262)">
	<path
   d="m 459.894,378.075 c -0.754,0 -0.854,-0.064 -0.854,-0.554 0,-0.309 0.088,-0.552 0.198,-0.552 0.333,0 0.492,-0.727 0.201,-0.906 -0.239,-0.15 -0.241,-0.259 -0.013,-0.633 0.202,-0.333 0.219,-0.569 0.056,-0.885 -0.121,-0.236 -0.268,-1.119 -0.321,-1.939 -0.054,-0.817 -0.149,-1.656 -0.209,-1.836 -0.062,-0.182 -0.162,-0.61 -0.222,-0.941 -0.061,-0.331 -0.353,-0.838 -0.644,-1.113 -0.663,-0.631 -1.115,-1.756 -0.936,-2.329 0.091,-0.287 0.02,-0.484 -0.202,-0.565 -0.189,-0.066 -0.345,-0.376 -0.345,-0.685 0,-0.333 -0.183,-0.679 -0.443,-0.843 -0.243,-0.151 -0.442,-0.386 -0.442,-0.52 0,-0.131 -0.225,-0.531 -0.486,-0.862 -0.261,-0.332 -0.503,-0.826 -0.52,-1.063 -0.021,-0.251 -0.289,-0.631 -0.62,-0.876 -0.332,-0.241 -0.587,-0.518 -0.587,-0.628 0,-0.312 -0.743,-1.085 -1.041,-1.085 -0.154,0 -0.287,-0.099 -0.287,-0.212 0,-0.115 -0.321,-0.298 -0.72,-0.409 -0.642,-0.178 -0.712,-0.273 -0.653,-0.896 0.057,-0.597 -0.004,-0.697 -0.421,-0.697 -0.282,0 -0.881,-0.398 -1.427,-0.953 -0.526,-0.529 -1.172,-1.074 -1.462,-1.229 -0.29,-0.155 -0.962,-0.689 -1.517,-1.206 -0.555,-0.516 -1.312,-1.077 -1.705,-1.262 -0.385,-0.181 -1.117,-0.717 -1.604,-1.173 -0.487,-0.457 -0.901,-0.761 -0.907,-0.665 -0.006,0.102 -0.178,-0.021 -0.398,-0.288 -0.205,-0.245 -0.642,-0.525 -0.931,-0.596 -0.294,-0.073 -0.984,-0.542 -1.517,-1.028 -0.531,-0.491 -1.109,-0.897 -1.271,-0.897 -0.155,0 -0.3,-0.107 -0.3,-0.223 0,-0.12 -0.188,-0.221 -0.407,-0.221 -0.224,0 -0.788,-0.254 -1.23,-0.554 -0.444,-0.3 -1.019,-0.554 -1.251,-0.554 -0.244,0 -0.432,-0.096 -0.432,-0.221 0,-0.119 -0.153,-0.223 -0.331,-0.223 -0.533,0 -1.661,-0.646 -1.661,-0.953 0,-0.155 -0.331,-0.482 -0.731,-0.719 -1.594,-0.942 -2.528,-1.457 -3.431,-1.888 -0.509,-0.245 -0.931,-0.543 -0.931,-0.658 0,-0.115 -0.121,-0.21 -0.276,-0.21 -0.155,0 -0.763,-0.238 -1.384,-0.541 -0.619,-0.304 -1.272,-0.548 -1.482,-0.555 -0.597,-0.019 -1.063,-0.265 -1.063,-0.564 0,-0.307 -0.464,-0.554 -1.04,-0.554 -0.19,0 -0.598,-0.265 -0.887,-0.576 -0.307,-0.331 -0.666,-0.522 -0.851,-0.453 -0.178,0.067 -0.321,0.043 -0.321,-0.056 0,-0.415 -1.283,-0.889 -2.17,-0.8 -0.707,0.07 -0.931,0.016 -0.931,-0.23 0,-0.172 -0.275,-0.419 -0.606,-0.54 -0.333,-0.121 -0.882,-0.373 -1.208,-0.555 -0.332,-0.185 -0.677,-0.314 -0.774,-0.292 -0.355,0.076 -1.376,-0.31 -1.627,-0.615 -0.135,-0.163 -0.455,-0.31 -0.675,-0.31 -0.231,0 -0.547,-0.199 -0.697,-0.443 -0.183,-0.29 -0.521,-0.442 -0.985,-0.442 -0.399,0 -0.762,-0.082 -0.832,-0.189 -0.064,-0.103 -0.607,-0.235 -1.205,-0.296 -0.842,-0.089 -1.3,-0.293 -2.036,-0.922 -0.731,-0.618 -1.14,-0.806 -1.762,-0.806 -0.493,0 -1.382,-0.301 -2.291,-0.775 -0.818,-0.428 -1.731,-0.775 -2.036,-0.775 -0.643,0 -2.021,-0.541 -2.523,-0.989 -0.213,-0.191 -1.229,-0.399 -2.558,-0.526 -1.218,-0.117 -2.646,-0.329 -3.198,-0.477 -0.555,-0.147 -1.193,-0.294 -1.439,-0.332 -0.243,-0.036 -1.239,-0.274 -2.213,-0.53 -0.97,-0.255 -2.923,-0.611 -4.318,-0.787 -1.395,-0.175 -3.271,-0.472 -4.15,-0.653 -0.885,-0.184 -2.031,-0.321 -2.557,-0.308 -1.57,0.042 -5.1,-0.305 -5.689,-0.56 -0.303,-0.13 -1.505,-0.259 -2.656,-0.283 -2.79,-0.058 -6.915,-0.398 -7.238,-0.597 -0.296,-0.183 -3.61,-0.534 -6.818,-0.724 -3.72,-0.222 -6.805,-0.379 -7.881,-0.404 -0.575,-0.014 -0.999,-0.094 -0.947,-0.181 0.135,-0.219 -5.43,-0.021 -7.289,0.263 -0.9,0.137 -3.519,0.291 -5.821,0.344 -5.867,0.133 -6.512,0.119 -6.974,-0.168 -0.334,-0.206 -0.478,-0.204 -0.688,0.005 -0.309,0.311 -1.727,0.348 -1.727,0.045 0,-0.12 0.089,-0.253 0.222,-0.332 0.117,-0.07 0.222,-0.289 0.222,-0.465 0,-0.263 -0.09,-0.285 -0.422,-0.105 -0.663,0.358 -1.719,0.289 -2.146,-0.138 -0.465,-0.463 -1.353,-0.976 -3.188,-1.844 -0.799,-0.377 -1.606,-0.772 -1.817,-0.887 -0.578,-0.318 -4.758,-1.067 -6.373,-1.145 -0.796,-0.035 -2.68,-0.007 -4.206,0.065 -1.529,0.073 -3.512,0.312 -4.43,0.534 -3.763,0.906 -5.674,1.485 -6.241,1.893 -0.332,0.239 -0.707,0.431 -0.843,0.431 -0.355,0 -2.013,1.195 -2.729,1.971 -0.349,0.376 -0.774,0.687 -0.945,0.687 -0.175,0 -0.311,0.099 -0.311,0.231 0,0.132 -0.094,0.174 -0.221,0.097 -0.251,-0.156 -1.252,0.845 -1.444,1.442 -0.228,0.714 -1.609,1.069 -4.643,1.191 -1.58,0.062 -5.424,0.483 -8.524,0.933 -4.272,0.619 -6.235,0.81 -8.079,0.776 -1.345,-0.026 -4.717,0.113 -7.527,0.309 -3.963,0.276 -5.627,0.305 -7.505,0.127 -2.812,-0.263 -3.821,-0.151 -5.291,0.582 -0.862,0.431 -1.247,0.504 -2.048,0.389 -0.774,-0.114 -1.176,-0.046 -1.881,0.32 -0.487,0.252 -1.17,0.465 -1.495,0.465 -0.329,0 -1.34,0.198 -2.246,0.443 -0.907,0.243 -1.934,0.442 -2.281,0.442 -0.356,0 -0.919,0.148 -1.295,0.343 -0.362,0.188 -1.162,0.403 -1.759,0.475 -0.599,0.074 -1.097,0.214 -1.097,0.311 0,0.228 -1.284,0.642 -1.992,0.642 -0.336,0 -0.908,0.156 -1.306,0.355 -0.465,0.232 -0.963,0.305 -1.451,0.209 -0.579,-0.113 -1.007,0 -1.958,0.521 -0.665,0.363 -1.606,0.77 -2.071,0.896 -0.463,0.127 -1.163,0.424 -1.538,0.654 -0.575,0.352 -0.671,0.527 -0.585,1.086 0.081,0.552 0.013,0.689 -0.412,0.83 -0.309,0.099 -0.543,0.065 -0.597,-0.091 -0.049,-0.137 -0.22,-0.254 -0.377,-0.254 -0.152,0 -0.345,-0.154 -0.413,-0.332 -0.163,-0.429 -1.246,-0.11 -2.42,0.71 -0.62,0.434 -0.912,0.539 -0.977,0.354 -0.144,-0.418 -0.53,-0.352 -2.124,0.36 -0.773,0.348 -1.853,0.704 -2.378,0.791 -0.529,0.085 -1.616,0.403 -2.414,0.708 -0.796,0.304 -1.698,0.607 -2.003,0.674 -0.311,0.068 -0.651,0.196 -0.774,0.29 -0.309,0.233 -4.051,1.477 -4.981,1.655 -0.427,0.08 -1.173,0.371 -1.66,0.646 -0.486,0.272 -1.361,0.674 -1.937,0.887 -0.576,0.21 -1.127,0.501 -1.218,0.641 -0.095,0.144 -0.454,0.271 -0.83,0.288 -1.062,0.057 -2.571,0.509 -3.411,1.028 -0.801,0.493 -1.747,0.887 -3.121,1.297 -0.432,0.131 -1.139,0.416 -1.605,0.653 -0.464,0.234 -1.116,0.454 -1.482,0.497 -0.354,0.041 -0.936,0.268 -1.272,0.489 -1.062,0.709 -1.512,0.907 -2.413,1.067 -1.084,0.192 -2.757,0.784 -3.188,1.133 -0.187,0.149 -0.609,0.334 -0.962,0.42 -0.356,0.09 -0.903,0.355 -1.252,0.609 -0.346,0.253 -1.096,0.508 -1.694,0.576 -0.595,0.067 -1.714,0.463 -2.513,0.887 -0.798,0.422 -2.324,1.104 -3.431,1.532 -2.413,0.932 -3.831,1.594 -3.997,1.864 -0.068,0.114 -0.341,0.199 -0.63,0.199 -0.664,0 -1.683,0.804 -1.683,1.329 0,0.313 -0.212,0.459 -0.83,0.576 -0.457,0.084 -1.405,0.561 -2.113,1.061 -0.709,0.501 -1.681,1.122 -2.17,1.385 -0.487,0.261 -1.085,0.685 -1.329,0.941 -0.253,0.266 -0.537,0.464 -0.663,0.464 -0.323,0 -1.065,0.93 -1.076,1.352 -0.005,0.219 -0.409,0.505 -1.051,0.751 -1.085,0.415 -2.721,1.748 -2.721,2.215 0,0.486 -0.835,1.07 -1.264,0.883 -0.22,-0.097 -0.526,-0.152 -0.687,-0.127 -0.397,0.067 -1.151,0.861 -1.151,1.214 0,0.166 -0.154,0.434 -0.332,0.575 -0.177,0.144 -0.331,0.401 -0.331,0.554 0,0.162 -0.311,0.413 -0.708,0.573 -0.997,0.4 -1.597,0.907 -1.683,1.419 -0.086,0.51 -0.886,1.208 -1.395,1.217 -0.442,0.008 -1.308,0.813 -1.308,1.219 0,0.18 -0.376,0.412 -0.886,0.549 -0.873,0.233 -0.945,0.337 -1.223,1.732 -0.092,0.463 -0.31,0.796 -0.569,0.868 -0.415,0.113 -0.47,0.216 -0.513,0.945 -0.01,0.18 -0.229,0.426 -0.472,0.533 -0.25,0.108 -0.646,0.509 -0.878,0.885 -0.407,0.664 -0.469,0.83 -0.525,1.417 -0.013,0.142 -0.181,0.266 -0.358,0.266 -0.176,0 -0.332,0.093 -0.332,0.199 0,0.111 -0.243,0.257 -0.552,0.331 -0.309,0.074 -0.854,0.428 -1.229,0.798 -0.378,0.369 -0.743,0.669 -0.83,0.675 -0.087,0.006 -0.336,0.254 -0.565,0.565 -0.358,0.487 -0.371,0.597 -0.099,0.929 0.167,0.203 0.453,0.665 0.62,0.997 0.186,0.368 1.096,1.119 2.248,1.848 1.061,0.676 1.986,1.394 2.047,1.595 0.062,0.202 0.215,1.206 0.347,2.246 0.381,3.034 1.138,6.283 1.566,6.73 0.114,0.117 0.211,0.432 0.211,0.676 0,0.257 0.148,0.741 0.343,1.116 0.19,0.369 0.6,1.309 0.916,2.104 0.587,1.48 1.941,4.297 3.092,6.421 1.652,3.057 2.143,3.905 2.536,4.406 0.228,0.287 0.418,0.668 0.418,0.83 0,0.153 0.082,0.297 0.167,0.297 0.092,0 0.31,0.321 0.488,0.722 0.178,0.4 0.645,1.229 1.051,1.87 0.407,0.642 0.73,1.216 0.73,1.295 0,0.078 0.299,0.487 0.665,0.907 0.366,0.422 0.663,0.879 0.663,1.018 0,0.14 0.266,0.533 0.586,0.865 0.32,0.331 0.699,0.798 0.836,1.028 1.096,1.86 3.163,4.739 4.325,6.021 0.185,0.204 0.798,0.918 1.338,1.562 0.54,0.642 1.396,1.6 1.868,2.09 3.45,3.587 5.334,5.609 6.881,7.395 1.875,2.165 5.529,5.674 8.34,8.01 1.208,1.005 3.317,2.198 4.936,2.894 -0.336,0.378 -0.784,0.889 -1.221,1.39 -0.718,0.824 -2.254,2.421 -3.389,3.521 -4.757,4.62 -5.716,5.606 -6.645,6.837 -0.522,0.691 -1.154,1.487 -1.386,1.743 -1.177,1.305 -3.493,6.002 -4.173,8.464 -0.595,2.156 -0.61,2.24 -1.161,6.334 -0.792,5.892 0.655,13.146 3.731,18.698 3.051,5.504 4.754,7.667 6.923,8.785 0.388,0.199 0.782,0.549 0.857,0.758 0.077,0.216 0.815,0.729 1.673,1.161 0.858,0.432 1.871,1.123 2.297,1.563 0.426,0.442 0.906,0.788 1.092,0.788 0.193,0 0.371,0.104 0.426,0.249 0.1,0.266 5.521,3.07 5.936,3.07 0.139,0 0.609,0.31 1.052,0.691 0.491,0.424 1.134,0.691 1.659,0.691 0.483,0 1.287,0.229 1.84,0.525 0.547,0.293 1.466,0.568 2.074,0.622 0.609,0.054 1.215,0.244 1.369,0.429 0.152,0.183 0.775,0.357 1.383,0.388 0.609,0.03 1.449,0.229 1.867,0.442 0.42,0.214 1.411,0.455 2.213,0.539 0.803,0.084 1.613,0.284 1.812,0.446 0.525,0.429 6.626,0.596 7.107,0.194 0.223,-0.185 0.524,-0.233 0.706,-0.115 0.177,0.115 1.383,0.165 2.71,0.111 1.328,-0.054 3.027,-0.104 3.818,-0.111 0.773,-0.007 1.5,-0.087 1.59,-0.176 0.482,-0.472 3.098,0.071 4.73,0.981 1.836,1.024 3.125,1.388 5.891,1.661 0.969,0.096 2.229,0.42 2.78,0.715 0.554,0.295 1.166,0.539 1.355,0.539 0.193,0 0.346,0.122 0.346,0.276 0,0.151 0.622,0.277 1.369,0.277 0.747,0 1.438,0.112 1.522,0.248 0.498,0.81 6.982,0.849 9.058,0.055 0.482,-0.186 1.383,-0.184 2.738,0.004 2.269,0.314 3.7,0.152 3.933,-0.445 0.094,-0.241 0.341,-0.415 0.59,-0.415 0.248,0 0.429,-0.116 0.429,-0.276 0,-0.156 0.388,-0.228 0.885,-0.164 3.54,0.453 5.108,0.488 5.505,0.123 1.051,-0.97 2.771,-1.402 3.141,-0.789 0.08,0.132 0.371,0.253 0.621,0.258 3.07,0.057 4.293,-0.004 5.338,-0.267 2.047,-0.514 5.803,-0.209 6.777,0.551 0.768,0.599 5.199,0.801 10.51,0.48 4.371,-0.264 5.508,-0.415 5.627,-0.746 0.055,-0.152 0.39,-0.276 0.749,-0.276 0.36,0 0.724,-0.123 0.815,-0.276 0.092,-0.151 0.72,-0.276 1.384,-0.276 0.691,0 1.392,-0.18 1.622,-0.415 0.446,-0.459 1.504,-0.205 3.135,0.753 0.682,0.399 1.48,0.528 3.473,0.561 1.41,0.022 2.736,-0.053 2.918,-0.166 0.182,-0.114 1.465,-0.245 2.849,-0.29 1.411,-0.047 2.599,-0.217 2.702,-0.388 0.2,-0.33 1.779,-0.548 5.318,-0.734 1.301,-0.067 2.723,-0.275 3.182,-0.465 1.023,-0.423 1.714,-0.331 2.655,0.353 0.595,0.433 1.052,0.514 2.241,0.399 1.521,-0.146 4.785,-1.115 5.282,-1.568 0.153,-0.141 0.498,-0.252 0.774,-0.252 0.277,0 0.498,-0.093 0.498,-0.208 0,-0.117 0.359,-0.226 0.83,-0.249 0.47,-0.023 1.129,-0.065 1.521,-0.097 0.427,-0.034 1.051,0.25 1.631,0.742 2.047,1.736 2.17,1.812 2.383,1.471 0.104,-0.166 0.303,-0.276 0.439,-0.242 0.442,0.109 2.311,-0.367 2.192,-0.56 -0.064,-0.106 0.407,-0.219 1.044,-0.249 0.636,-0.03 1.475,-0.131 1.854,-0.222 0.387,-0.093 1.299,-0.172 2.074,-0.18 0.773,-0.008 1.474,-0.147 1.59,-0.318 0.133,-0.193 0.283,-0.203 0.415,-0.027 0.12,0.159 1.715,0.276 3.762,0.276 1.964,0 3.61,0.093 3.679,0.208 0.068,0.114 0.623,0.207 1.23,0.207 0.609,0 1.344,0.125 1.633,0.276 0.288,0.152 1.549,0.288 2.794,0.301 2.019,0.022 3.105,0.276 3.565,0.834 0.122,0.147 2.049,0.464 3.736,0.614 0.305,0.027 0.619,0.137 0.698,0.243 0.291,0.387 3.811,1.109 5.664,1.162 1.688,0.048 1.996,-0.021 2.406,-0.54 0.261,-0.329 0.871,-0.762 1.369,-0.968 0.498,-0.207 1.108,-0.562 1.369,-0.796 1.586,-1.423 1.825,-1.441 3.983,-0.3 1.715,0.906 3.812,1.123 4.923,0.507 0.922,-0.51 2.379,-0.532 4.205,-0.064 1.576,0.403 1.658,0.398 2.434,-0.168 0.827,-0.604 1.521,-0.667 5.753,-0.525 0.996,0.033 2.076,-0.088 2.421,-0.271 0.345,-0.185 1.355,-0.345 2.268,-0.359 1.052,-0.019 1.762,-0.168 1.965,-0.415 0.529,-0.644 1.646,-1.118 3,-1.277 1.301,-0.153 2.781,-0.624 3.027,-0.964 0.261,-0.359 1.695,-0.915 1.952,-0.756 0.265,0.163 3.679,-1.544 4.453,-2.228 0.249,-0.22 0.624,-0.391 0.857,-0.391 0.224,0 0.747,-0.325 1.134,-0.705 0.401,-0.394 1.245,-0.975 1.909,-1.314 0.663,-0.339 1.556,-1.104 2.019,-1.729 0.458,-0.618 1.729,-1.852 2.835,-2.752 1.106,-0.9 2.006,-1.769 2.006,-1.937 0,-0.166 0.378,-0.719 0.832,-1.217 1.033,-1.134 2.623,-3.596 2.893,-4.481 0.11,-0.359 0.431,-0.917 0.701,-1.217 0.278,-0.31 0.698,-1.161 0.954,-1.937 0.256,-0.774 0.746,-1.76 1.115,-2.24 0.694,-0.904 0.848,-1.383 1.098,-3.43 0.084,-0.691 0.269,-1.798 0.415,-2.489 0.42,-1.985 0.323,-4.37 -0.273,-6.749 -0.631,-2.518 -2.022,-5.723 -2.783,-6.411 -0.276,-0.251 -0.525,-0.568 -0.525,-0.67 0,-0.251 -2.435,-4.343 -3.127,-5.255 -0.29,-0.383 -1.347,-1.563 -2.364,-2.642 -1.018,-1.079 -2.185,-2.414 -2.613,-2.987 -0.434,-0.581 -0.981,-1.242 -1.245,-1.502 -1.095,-1.08 -2.001,-2.854 -2.855,-5.593 -0.457,-1.466 -0.951,-2.662 -1.55,-3.757 0.449,-0.256 1.044,-0.55 1.6,-0.781 1.815,-0.756 3.009,-1.493 4.163,-2.573 0.459,-0.431 1.229,-0.98 1.692,-1.209 0.466,-0.23 0.809,-0.496 0.754,-0.586 -0.061,-0.101 -0.029,-0.166 0.077,-0.166 0.25,0 1.258,-1.972 1.98,-3.875 0.326,-0.863 0.705,-1.696 0.853,-1.882 0.506,-0.63 0.997,-1.947 0.997,-2.679 0,-0.413 0.098,-1.15 0.221,-1.639 0.12,-0.482 0.276,-1.438 0.344,-2.103 0.066,-0.664 0.161,-1.252 0.21,-1.296 0.048,-0.041 0.753,-0.217 1.549,-0.385 1.798,-0.379 2.052,-0.645 4.542,-4.761 0.309,-0.51 0.89,-1.163 1.325,-1.491 1.314,-0.989 1.669,-1.432 2.34,-2.915 0.358,-0.798 0.732,-1.499 0.837,-1.572 0.106,-0.075 0.16,-0.266 0.124,-0.442 -0.144,-0.685 1.634,-3.058 2.301,-3.073 0.105,-0.002 0.133,-0.074 0.066,-0.18 -0.061,-0.097 0.026,-0.443 0.188,-0.753 0.167,-0.322 0.365,-0.976 0.453,-1.484 0.087,-0.508 0.242,-0.963 0.353,-1.032 0.311,-0.193 1.972,-2.699 1.972,-2.974 0,-0.122 0.17,-0.423 0.378,-0.665 0.777,-0.908 2.499,-4.175 2.499,-4.737 0,-0.171 0.144,-0.424 0.321,-0.566 0.178,-0.14 0.267,-0.389 0.199,-0.552 -0.067,-0.167 0.126,-0.719 0.441,-1.251 1.728,-2.922 2.915,-6.725 2.325,-7.438 -0.221,-0.265 -0.216,-0.368 0.023,-0.51 0.156,-0.093 0.314,-0.376 0.332,-0.596 0.018,-0.229 0.206,-0.666 0.41,-0.952 0.281,-0.399 0.309,-0.572 0.109,-0.696 -0.32,-0.197 0.599,-1.298 1.085,-1.298 0.156,0 0.288,-0.102 0.288,-0.222 0,-0.132 -0.07,-0.208 -0.176,-0.193 -0.489,0.072 -1.152,-0.352 -1.152,-0.735 0,-0.222 -0.096,-0.361 -0.199,-0.298 -0.358,0.221 0.045,-0.832 0.486,-1.274 0.267,-0.265 0.341,-0.502 0.201,-0.642 -0.324,-0.322 -0.068,-0.987 0.53,-1.384 0.62,-0.409 0.656,-0.725 0.15,-1.296 -0.354,-0.4 -0.35,-0.438 0.115,-0.784 0.399,-0.301 0.463,-0.509 0.354,-1.175 -0.116,-0.708 -0.062,-0.853 0.441,-1.184 0.311,-0.202 0.576,-0.529 0.576,-0.708 0,-0.186 0.243,-0.523 0.553,-0.766 0.708,-0.556 0.555,-0.852 -0.442,-0.852 -0.863,0 -0.931,-0.125 -0.449,-0.817 0.185,-0.268 0.249,-0.543 0.14,-0.609 -0.344,-0.209 -0.022,-0.935 0.554,-1.248 0.376,-0.208 0.601,-0.22 0.774,-0.048 0.332,0.332 1.462,-0.044 1.462,-0.487 10e-4,-0.228 -0.254,-0.329 -0.85,-0.329 z m -86.387,-41.088 c 0.037,-0.862 0.928,-2.234 1.631,-2.507 0.299,-0.117 0.908,-0.194 1.329,-0.172 0.774,0.045 0.774,0.045 0.729,1.042 -0.037,0.817 -0.186,1.124 -0.841,1.728 -0.695,0.637 -0.931,0.721 -1.838,0.663 -1.017,-0.065 -1.038,-0.081 -1.01,-0.754 z m -85.116,27.906 c 0.081,0.007 0.363,0.298 0.652,0.674 0.277,0.363 0.892,1.109 1.352,1.64 0.457,0.53 0.84,1.054 0.84,1.152 0,0.093 0.265,0.463 0.571,0.795 0.495,0.537 1.343,2.127 1.715,3.211 0.239,0.694 0.791,4.473 0.95,6.486 0.189,2.393 0.199,12.467 0.015,14.501 -0.07,0.794 -0.188,2.59 -0.262,4.007 -0.074,1.417 -0.267,3.073 -0.432,3.697 -0.205,0.774 -0.226,1.153 -0.067,1.205 0.163,0.054 0.156,0.3 -0.021,0.809 -0.137,0.397 -0.189,0.83 -0.111,0.953 0.08,0.122 0.175,0.984 0.211,1.935 0.053,1.351 -0.023,1.894 -0.354,2.546 -0.235,0.465 -0.367,0.968 -0.299,1.142 0.069,0.176 -0.08,0.652 -0.343,1.095 -0.262,0.444 -0.465,1.064 -0.465,1.419 0,0.354 -0.146,0.684 -0.332,0.751 -0.209,0.076 -0.333,0.41 -0.333,0.897 0,0.422 -0.111,0.84 -0.243,0.919 -0.154,0.092 -0.158,0.229 -0.011,0.376 0.16,0.16 0.062,0.487 -0.31,1.041 -0.446,0.663 -0.549,1.118 -0.576,2.534 -0.022,1.151 -0.129,1.765 -0.321,1.838 -0.37,0.14 -0.502,0.996 -0.65,4.207 -0.068,1.482 -0.208,2.989 -0.312,3.342 -0.111,0.377 -0.095,0.796 0.034,1.018 0.143,0.244 0.13,0.487 -0.039,0.688 -0.27,0.321 -0.375,2.436 -0.177,3.541 0.153,0.842 0.845,2.849 1.034,2.996 0.074,0.058 0.554,0.967 1.062,2.008 0.508,1.041 1.085,2.029 1.273,2.181 0.199,0.16 0.342,0.401 0.342,0.574 0,0.162 0.229,0.543 0.499,0.83 0.276,0.297 1.068,1.186 1.782,2.005 0.715,0.819 1.383,1.472 1.506,1.472 0.123,0 0.513,0.332 0.881,0.754 0.72,0.817 3.7,2.714 4.632,2.941 0.31,0.075 0.796,0.295 1.106,0.501 1.765,1.169 4.229,1.766 8.744,2.122 1.971,0.154 2.243,0.155 3.321,0.014 1.925,-0.255 2.433,-0.388 2.833,-0.743 0.51,-0.451 0.768,-0.202 0.289,0.279 -0.199,0.198 -0.355,0.46 -0.355,0.597 0,0.326 1.395,0.036 2.28,-0.475 0.39,-0.227 1.106,-0.521 1.595,-0.655 0.575,-0.157 1.039,-0.476 1.328,-0.907 0.242,-0.367 1.163,-1.12 2.048,-1.682 1.173,-0.746 1.638,-1.175 1.732,-1.594 0.221,-0.998 0.792,-1.907 1.487,-2.372 0.872,-0.583 1.663,-2.056 1.808,-3.363 0.093,-0.817 -0.012,-1.395 -0.446,-2.501 -0.458,-1.168 -0.579,-1.904 -0.644,-3.917 -0.081,-2.568 -0.244,-3.34 -1.014,-4.828 -0.239,-0.465 -0.374,-1.062 -0.3,-1.339 0.08,-0.305 -0.092,-0.929 -0.444,-1.615 -0.318,-0.622 -0.575,-1.241 -0.575,-1.396 0,-0.151 -0.182,-0.675 -0.405,-1.162 -1.137,-2.501 -1.397,-3.146 -1.353,-3.343 0.029,-0.12 -0.012,-0.574 -0.091,-0.996 -0.078,-0.421 -0.18,-1.079 -0.222,-1.438 -0.043,-0.376 -0.13,-0.809 -0.199,-0.996 -0.292,-0.796 -0.375,-1.85 -0.162,-2.104 0.165,-0.198 0.167,-1.062 0.005,-2.79 -0.307,-3.275 -0.306,-3.08 -0.028,-5.622 0.157,-1.439 0.171,-2.833 0.042,-3.985 -0.109,-0.973 -0.12,-1.87 -0.022,-1.991 0.282,-0.354 0.669,-2.434 0.465,-2.506 -0.099,-0.035 -0.133,-0.295 -0.076,-0.582 0.053,-0.289 -0.01,-0.72 -0.146,-0.963 -0.181,-0.334 -0.168,-0.504 0.055,-0.687 0.163,-0.132 0.427,-0.677 0.576,-1.186 0.151,-0.509 0.368,-1.052 0.478,-1.184 0.107,-0.135 0.248,-1.308 0.31,-2.612 0.062,-1.307 0.17,-2.469 0.245,-2.592 0.146,-0.238 0.214,-0.685 0.405,-2.7 0.067,-0.708 0.366,-1.821 0.653,-2.436 0.56,-1.193 0.834,-2.435 0.916,-4.14 0.056,-1.127 0.419,-2.184 1.134,-3.296 0.356,-0.555 0.433,-0.856 0.265,-1.053 -0.163,-0.197 -0.129,-0.421 0.123,-0.775 0.188,-0.266 0.354,-0.705 0.354,-0.941 0,-0.501 0.422,-1.77 0.833,-2.501 0.148,-0.265 0.273,-0.607 0.273,-0.753 0,-0.146 0.352,-0.653 0.774,-1.117 0.424,-0.465 0.774,-0.988 0.774,-1.152 0,-0.165 0.297,-0.708 0.665,-1.217 0.367,-0.509 0.663,-1.008 0.663,-1.118 0,-0.644 2.547,-0.648 4.495,-0.008 0.72,0.235 2.047,0.577 2.956,0.761 0.906,0.183 1.817,0.427 2.023,0.543 0.207,0.114 1.131,0.48 2.038,0.807 0.907,0.327 1.911,0.729 2.214,0.887 0.305,0.158 1.55,0.65 2.768,1.095 1.217,0.444 2.387,0.897 2.601,1.009 0.222,0.113 0.517,0.197 0.687,0.197 0.164,0 0.786,0.249 1.383,0.554 0.598,0.307 1.339,0.556 1.649,0.556 0.312,0 0.659,0.084 0.775,0.188 0.119,0.105 0.498,0.284 0.875,0.411 0.609,0.204 3.255,2.024 4.116,2.832 0.199,0.187 0.465,0.331 0.609,0.331 0.134,0 0.256,0.102 0.256,0.211 0,0.116 0.32,0.379 0.718,0.587 0.399,0.208 1.017,0.616 1.384,0.911 1.594,1.287 3.814,2.737 4.537,2.964 0.422,0.132 0.877,0.363 0.998,0.508 0.386,0.465 2.687,2.126 2.943,2.126 0.133,0 0.575,0.306 0.974,0.674 0.407,0.375 1.175,0.937 1.728,1.262 0.546,0.321 1.527,1.018 2.169,1.539 0.642,0.521 1.319,0.952 1.495,0.952 0.178,0 0.321,0.083 0.321,0.188 0,0.105 0.364,0.432 0.83,0.742 0.465,0.309 1.156,0.859 1.571,1.25 0.399,0.375 0.85,0.697 0.975,0.697 0.13,0 0.586,0.301 1.029,0.676 0.434,0.367 1.351,1.136 2.014,1.691 1.661,1.389 4.428,4.03 4.428,4.229 0,0.088 0.643,0.732 1.44,1.45 0.951,0.856 1.44,1.464 1.44,1.794 0,0.266 0.214,0.694 0.463,0.918 0.264,0.239 0.6,0.676 0.775,1.008 0.176,0.331 0.463,0.74 0.663,0.941 0.194,0.193 1.048,1.703 1.9,3.363 1.591,3.101 1.897,4.133 2.093,7.062 0.057,0.863 0.159,1.895 0.232,2.325 0.191,1.139 0.212,1.283 0.377,3.076 0.088,0.909 0.192,1.721 0.235,1.794 0.043,0.073 0.187,1.073 0.321,2.225 0.133,1.151 0.294,2.49 0.354,2.978 0.061,0.491 0.15,1.493 0.2,2.247 0.047,0.753 0.142,1.451 0.21,1.56 0.067,0.111 0.164,0.61 0.22,1.119 0.056,0.51 0.307,1.21 0.565,1.572 0.252,0.354 0.465,0.841 0.465,1.062 0,0.227 -0.597,1.584 -1.327,3.022 -0.733,1.439 -1.329,2.758 -1.329,2.933 0,0.179 -0.208,0.788 -0.467,1.363 -0.569,1.27 -0.638,1.438 -1.545,3.828 -0.395,1.042 -0.794,2.08 -0.895,2.326 -0.447,1.084 -1.723,4.508 -1.963,5.267 -0.288,0.908 -2.104,4.305 -2.656,4.96 -0.188,0.224 -0.49,0.643 -0.688,0.953 -0.2,0.31 -0.812,1.039 -1.395,1.66 -0.564,0.599 -1.452,1.649 -1.938,2.291 -0.486,0.643 -1.064,1.361 -1.262,1.57 -0.201,0.213 -1.081,1.229 -1.948,2.248 -0.866,1.018 -2.313,2.567 -3.2,3.423 -1.548,1.498 -5.127,4.303 -5.489,4.303 -0.096,0 -0.531,0.277 -0.953,0.604 -1.052,0.82 -2.234,1.618 -3.806,2.568 -0.377,0.227 -1.085,0.731 -1.572,1.118 -2.243,1.787 -7.128,4.604 -10.406,5.999 -1.438,0.614 -5.175,1.887 -5.533,1.887 -0.177,0 -0.509,0.093 -0.708,0.199 -0.5,0.267 -7.196,1.942 -8.368,2.097 -1.361,0.178 -3.254,0.504 -6.643,1.146 -3.341,0.629 -3.734,0.689 -5.755,0.881 -0.732,0.069 -1.628,0.213 -1.992,0.314 -0.368,0.105 -1.308,0.251 -2.104,0.329 -1.594,0.157 -11.956,1.609 -12.84,1.801 -0.306,0.065 -1.594,0.252 -2.878,0.416 -1.286,0.167 -3.809,0.565 -5.646,0.894 -6.817,1.221 -7.609,1.332 -9.518,1.323 -2.127,-0.01 -10.627,-0.641 -11.845,-0.88 -0.306,-0.06 -1.638,-0.155 -2.987,-0.218 -1.352,-0.061 -3.076,-0.21 -3.875,-0.333 -0.799,-0.123 -2.523,-0.362 -3.875,-0.54 -2.146,-0.28 -3.104,-0.443 -5.18,-0.878 -0.625,-0.132 -3.521,-0.924 -4.605,-1.263 -0.398,-0.121 -0.881,-0.259 -1.105,-0.307 -0.221,-0.05 -3.033,-0.999 -6.266,-2.114 -3.232,-1.117 -6.164,-2.108 -6.53,-2.211 -1.063,-0.296 -3.314,-1.16 -3.438,-1.322 -0.058,-0.071 -0.458,-0.31 -0.879,-0.521 -1.881,-0.944 -5.533,-3.36 -5.533,-3.662 0,-0.096 -0.234,-0.281 -0.499,-0.397 -0.273,-0.122 -1.384,-1.058 -2.469,-2.082 -1.085,-1.023 -2.272,-2.108 -2.646,-2.413 -0.376,-0.308 -1.328,-1.144 -2.148,-1.882 -0.818,-0.739 -1.854,-1.656 -2.334,-2.069 -2.678,-2.297 -3.848,-3.368 -4.992,-4.571 -2.106,-2.215 -3.271,-3.526 -3.279,-3.697 -0.005,-0.098 -0.342,-0.554 -0.752,-1.02 -2.182,-2.465 -6.153,-9.452 -7.009,-12.33 -0.216,-0.73 -0.545,-1.727 -0.726,-2.213 -0.183,-0.485 -0.502,-2.037 -0.707,-3.433 -0.501,-3.432 -0.48,-3.316 -0.845,-4.338 -0.183,-0.51 -0.28,-0.985 -0.22,-1.052 0.062,-0.066 0.105,-2.082 0.099,-4.472 -0.006,-2.392 0.089,-4.914 0.211,-5.602 0.122,-0.687 0.312,-1.8 0.42,-2.468 0.108,-0.665 0.301,-1.771 0.422,-2.437 0.121,-0.667 0.316,-1.835 0.432,-2.589 0.113,-0.753 0.274,-1.473 0.351,-1.594 0.257,-0.405 0.421,-1.64 0.793,-6 0.391,-4.56 0.618,-5.932 1.187,-7.129 0.306,-0.639 0.757,-1.948 0.994,-2.878 0.54,-2.115 0.809,-2.635 2.519,-4.847 0.77,-0.997 1.58,-2.061 1.822,-2.393 0.762,-1.04 2.728,-3.122 2.949,-3.122 0.119,0 0.348,-0.154 0.492,-0.332 0.379,-0.464 1.521,-0.995 2.143,-0.995 0.516,0 0.979,-0.687 1.076,-1.594 0.083,-0.793 1.58,-2.487 2.71,-3.068 2.015,-1.036 3.392,-1.943 4.36,-2.869 0.613,-0.585 1.749,-1.378 2.546,-1.774 1.527,-0.759 2.897,-1.648 3.675,-2.385 0.256,-0.241 1.661,-1.013 3.099,-1.703 1.706,-0.817 2.947,-1.574 3.521,-2.146 0.61,-0.611 1.507,-1.141 2.878,-1.706 2.435,-1.002 3.874,-1.741 3.874,-1.991 0,-0.301 2.414,-1.496 3.873,-1.918 0.74,-0.215 2.037,-0.764 2.923,-1.237 0.887,-0.473 1.736,-0.853 1.916,-0.853 0.179,0 0.797,-0.235 1.396,-0.529 0.597,-0.299 1.516,-0.603 2.068,-0.688 0.554,-0.087 1.44,-0.377 1.994,-0.652 0.546,-0.275 1.592,-0.565 2.323,-0.646 1.906,-0.214 3.233,-0.521 5.91,-1.374 3.764,-1.199 7.29,-1.465 8.524,-0.643 0.334,0.222 0.687,0.42 0.766,0.425 z m 72.534,-16.079 c 0.798,-0.478 1.93,-0.497 2.702,-0.039 0.739,0.437 1.384,1.761 1.287,2.646 -0.061,0.555 -0.17,0.651 -0.791,0.71 -0.398,0.037 -0.72,-0.022 -0.72,-0.134 0,-0.292 -1.813,-1.505 -2.501,-1.671 -0.83,-0.203 -0.819,-1.005 0.023,-1.512 z m 33.04,26.528 c -0.18,-0.267 -0.438,-0.546 -0.587,-0.638 -0.264,-0.16 -0.255,-0.856 0.038,-2.76 0.172,-1.138 1.777,-1.731 3.084,-1.144 0.588,0.264 0.62,0.368 0.601,1.941 -0.014,1.193 -0.928,2.447 -2.062,2.825 -0.663,0.222 -0.79,0.196 -1.074,-0.224 z m 0.656,1.848 c 0,0.117 -0.157,0.222 -0.335,0.222 -0.177,0 -0.332,-0.104 -0.332,-0.222 0,-0.119 0.155,-0.221 0.332,-0.221 0.178,0.001 0.335,0.102 0.335,0.221 z m 12.063,72.392 c -0.075,0.126 -0.321,0.221 -0.565,0.221 -0.241,0 -0.429,-0.095 -0.429,-0.221 0,-0.122 0.254,-0.222 0.562,-0.222 0.31,0 0.505,0.1 0.432,0.222 z m -0.775,0.664 c 0.132,0 0.223,0.087 0.223,0.222 0,0.133 -0.091,0.221 -0.223,0.221 -0.133,0 -0.22,-0.088 -0.22,-0.221 0,-0.135 0.087,-0.222 0.22,-0.222 z m 0.112,1.992 c 0.054,0.042 0.103,0.096 0.147,0.151 -0.113,-0.082 -0.227,-0.17 -0.344,-0.268 0.064,0.025 0.127,0.063 0.197,0.117 z m -3.085,17.092 c 0.549,1.106 0.537,2.394 -0.022,2.607 -0.227,0.086 -0.666,0.712 -0.967,1.375 -0.613,1.355 -1.021,1.729 -1.237,1.135 -0.142,-0.389 -2.554,-1.16 -4.407,-1.41 -0.47,-0.063 -0.89,-0.136 -0.968,-0.167 -0.083,-0.033 -0.249,-0.076 -0.415,-0.106 -0.064,-0.012 -0.132,-0.025 -0.197,-0.037 0.021,-0.03 0.041,-0.059 0.063,-0.089 0.33,-0.438 0.84,-1.272 1.118,-1.825 0.276,-0.554 0.797,-1.23 1.142,-1.483 0.38,-0.283 0.686,-0.754 0.775,-1.196 0.164,-0.822 0.479,-1.771 0.907,-2.723 0.159,-0.358 0.354,-1.041 0.424,-1.483 0.081,-0.513 0.453,-1.224 1.204,-2.284 0.248,0.063 0.442,0.125 0.538,0.178 0.332,0.182 0.759,0.248 0.996,0.154 0.528,-0.209 1.963,0.606 2.089,1.187 0.053,0.244 0.008,0.692 -0.101,0.996 -1.228,3.456 -1.379,4.289 -0.942,5.171 z m -12.457,8.478 c 0.272,-0.125 0.681,-0.465 0.93,-0.775 0.124,-0.155 0.382,-0.461 0.688,-0.814 1.055,0.015 1.97,-0.023 2.435,-0.13 0.744,-0.171 4.121,0.57 5.089,1.117 0.54,0.305 0.541,0.326 0.014,0.906 -0.352,0.389 -0.761,0.557 -1.175,0.484 -0.596,-0.104 -0.637,-0.027 -0.637,1.189 0,0.72 -0.08,1.381 -0.18,1.479 -0.099,0.1 -0.608,-0.199 -1.134,-0.663 -0.525,-0.465 -1.314,-0.912 -1.757,-0.996 -0.443,-0.084 -0.932,-0.313 -1.093,-0.512 -0.156,-0.194 -0.525,-0.296 -0.802,-0.222 -0.276,0.075 -0.595,-10e-4 -0.691,-0.166 -0.098,-0.164 -0.65,-0.304 -1.203,-0.304 -0.322,0 -0.763,-0.048 -1.182,-0.117 0.29,-0.227 0.55,-0.409 0.698,-0.476 z m 13.292,-19.305 c -0.49,-0.242 -1.026,-0.459 -1.484,-0.612 0.014,-0.018 0.022,-0.033 0.036,-0.051 0.362,-0.46 0.69,-1.168 0.797,-1.691 0.061,-0.005 0.135,-10e-4 0.181,-0.013 0.359,-0.09 0.835,-0.026 1.037,0.139 0.212,0.172 0.65,0.268 1.01,0.221 0.577,-0.075 0.635,0.028 0.615,1.106 -0.03,1.711 -0.312,1.828 -2.192,0.901 z m -50.757,36.191 c 0,0.02 -0.023,0.026 -0.061,0.025 0.02,-0.01 0.04,-0.021 0.059,-0.03 0,10e-4 0.002,0.004 0.002,0.005 z M 232.879,482.606 c 0.135,2.738 0.092,3.613 -0.2,3.97 -0.204,0.249 -0.398,0.645 -0.429,0.871 -0.029,0.224 -0.387,0.912 -0.774,1.493 -0.387,0.581 -0.72,1.22 -0.72,1.383 0,0.554 -1.109,2.476 -1.521,2.634 -0.222,0.086 -0.415,0.348 -0.415,0.562 0,0.214 -0.193,0.472 -0.415,0.553 -0.222,0.081 -0.415,0.308 -0.415,0.484 0,0.442 -1.599,1.969 -1.825,1.742 -0.108,-0.108 -0.218,-0.58 -0.249,-1.078 -0.042,-0.674 0.166,-1.12 0.871,-1.867 0.521,-0.554 0.927,-1.121 0.927,-1.3 0,-0.175 0.251,-0.913 0.554,-1.632 0.303,-0.72 0.609,-1.74 0.678,-2.255 0.068,-0.525 0.211,-1.074 0.322,-1.244 0.207,-0.316 0.234,-0.443 0.604,-2.711 0.2,-1.234 -0.074,-3.82 -0.568,-6.198 0.159,0.153 0.318,0.307 0.478,0.46 1.019,0.98 2.267,2.116 2.8,2.544 0.048,0.039 0.122,0.102 0.18,0.148 0.039,0.48 0.092,0.946 0.117,1.441 z m -14.901,-14.438 c -0.388,0 -1.874,-1.451 -1.729,-1.688 0.086,-0.14 -0.041,-0.249 -0.289,-0.249 -0.443,0 -0.54,-0.335 -0.194,-0.67 0.11,-0.106 0.235,-0.062 0.29,0.104 0.056,0.166 0.204,0.225 0.346,0.138 0.145,-0.088 0.25,0.028 0.25,0.277 0,0.237 0.332,0.636 0.746,0.896 2.656,1.662 4.277,3.737 5.514,7.057 l 0.959,2.572 -0.18,4.84 c -0.157,4.232 -0.258,5.01 -0.803,6.183 l -0.621,1.342 -0.708,-0.94 c -1.062,-1.41 -1.881,-3.431 -2.561,-6.307 -0.548,-2.323 -0.858,-9.449 -0.472,-10.843 0.283,-1.025 -0.057,-2.712 -0.548,-2.712 z m -10.898,7.883 c -0.416,0.385 -1.036,0.766 -1.397,0.857 -0.359,0.092 -0.649,0.259 -0.649,0.374 0,0.117 -0.318,0.352 -0.733,0.539 -0.608,0.275 -0.819,0.252 -1.245,-0.139 -0.275,-0.253 -0.518,-0.802 -0.525,-1.188 -0.008,-0.388 -0.192,-0.962 -0.4,-1.245 -0.213,-0.289 -0.6,-1.162 -0.857,-1.937 -0.259,-0.774 -0.826,-1.935 -1.26,-2.572 -0.424,-0.626 -0.864,-1.729 -0.953,-2.393 -0.153,-1.134 -0.109,-1.26 0.553,-1.605 0.752,-0.393 3.043,-0.466 3.816,-0.123 0.406,0.18 3.733,6.61 4.209,8.132 0.145,0.474 0.021,0.763 -0.559,1.3 z m 0.022,7.137 c -0.514,1.217 -0.795,1.405 -1.516,1.017 -0.391,-0.21 -0.553,-0.574 -0.553,-1.238 0,-0.746 0.156,-1.017 0.76,-1.313 0.664,-0.326 0.822,-0.315 1.245,0.083 0.444,0.416 0.449,0.537 0.064,1.451 z m -14.569,-52.236 c -0.507,-1.019 -1.009,-1.997 -1.117,-2.181 -0.874,-1.462 -1.772,-5.208 -1.4,-5.844 0.063,-0.11 0.139,-0.708 0.166,-1.328 0.115,-2.547 1.253,-4.828 3.513,-7.048 2.835,-2.786 3.292,-3.136 5.337,-4.089 2.236,-1.045 3.653,-1.241 3.653,-0.508 0,0.225 -0.12,0.709 -0.256,1.04 -0.142,0.347 -0.326,1.106 -0.421,1.727 -0.092,0.613 -0.432,2.592 -0.763,4.428 -0.595,3.32 -1.29,12.169 -0.989,12.619 0.08,0.123 0.211,1.173 0.287,2.346 0.161,2.413 0.871,4.793 1.883,6.311 0.75,1.129 2.181,2.744 2.428,2.744 0.448,0 1.391,1.615 1.508,2.591 0.07,0.576 0.282,1.184 0.462,1.327 0.221,0.178 0.296,0.51 0.226,0.997 -0.114,0.787 0.246,2.522 0.961,4.626 0.465,1.373 0.537,1.544 1.174,2.835 0.199,0.398 0.363,0.831 0.363,0.951 0,0.252 -6.93,0.192 -8.171,-0.072 -5.18,-1.098 -7.925,-2.066 -9.164,-3.237 -0.931,-0.879 -2.591,-3.069 -2.591,-3.421 0,-0.162 -0.153,-0.575 -0.354,-0.951 -0.217,-0.408 -0.432,-1.638 -0.555,-3.188 -0.107,-1.395 -0.258,-2.837 -0.331,-3.222 -0.125,-0.657 -0.045,-0.763 1.439,-1.849 0.863,-0.633 1.571,-1.245 1.571,-1.36 0,-0.115 0.41,-0.595 0.896,-1.053 0.794,-0.744 0.912,-0.985 1.029,-2.091 0.123,-1.153 0.062,-1.395 -0.784,-3.1 z m 3.477,28.86 c 1.198,0.562 2.385,1.059 2.645,1.059 0.246,0 0.796,0.148 1.239,0.334 0.047,0.02 0.088,0.033 0.133,0.051 -0.285,0.009 -0.526,0.1 -0.526,0.205 0,0.115 -0.483,0.237 -1.092,0.276 -0.94,0.06 -1.162,-0.037 -1.59,-0.691 -0.272,-0.415 -0.6,-0.836 -0.72,-0.927 -0.071,-0.053 -0.091,-0.166 -0.089,-0.307 z m 30.007,-93.47 c -0.149,0 -0.625,-0.398 -1.083,-0.907 -0.857,-0.952 -0.881,-1.283 -0.165,-2.369 0.604,-0.911 1.447,-1.141 2.599,-0.704 0.322,0.122 0.734,0.494 0.941,0.849 0.204,0.354 0.638,0.815 0.984,1.052 0.332,0.226 0.621,0.637 0.621,0.887 0,0.543 -2.236,2.745 -2.791,2.745 -0.198,0 -0.313,-0.063 -0.244,-0.133 0.192,-0.194 -0.553,-1.42 -0.862,-1.42 z m 33.425,-24.018 c 0.156,-0.404 1.907,-0.456 2.637,-0.081 0.952,0.49 1.705,1.376 1.705,2.006 0,0.398 0.141,0.644 0.42,0.73 0.858,0.275 0.731,0.776 -0.311,1.222 -0.53,0.228 -1.104,0.435 -1.261,0.455 -1.436,0.193 -2.499,-0.724 -2.74,-2.363 -0.088,-0.598 -0.254,-1.208 -0.371,-1.361 -0.112,-0.148 -0.148,-0.432 -0.079,-0.608 z m -43.254,-3.212 c 0.132,0 0.223,0.089 0.223,0.223 0,0.133 -0.091,0.22 -0.223,0.22 -0.134,0 -0.221,-0.087 -0.221,-0.22 0,-0.134 0.087,-0.223 0.221,-0.223 z m -32.675,19.073 c 0.464,-0.244 0.939,-0.576 1.025,-0.72 0.185,-0.298 1.698,-0.621 2.162,-0.462 0.223,0.08 0.281,0.374 0.206,1.061 -0.142,1.329 -0.992,2.387 -2.266,2.823 -0.95,0.327 -0.996,0.323 -0.996,-0.067 0,-0.231 -0.311,-0.719 -0.708,-1.117 -0.758,-0.76 -0.731,-0.834 0.577,-1.518 z m -6.288,79.552 c 0,-0.099 -0.365,-0.532 -0.83,-0.984 -0.46,-0.447 -1.227,-1.273 -1.715,-1.85 -0.489,-0.573 -1.805,-1.954 -2.935,-3.076 -1.129,-1.124 -2.047,-2.11 -2.047,-2.204 0,-0.089 -0.225,-0.409 -0.49,-0.695 -0.795,-0.864 -1.06,-1.225 -1.06,-1.44 0,-0.115 -0.145,-0.273 -0.299,-0.331 -0.168,-0.062 -0.358,-0.388 -0.432,-0.742 -0.073,-0.351 -0.631,-1.162 -1.252,-1.826 -0.62,-0.665 -1.117,-1.245 -1.117,-1.307 0,-0.061 -0.33,-0.485 -0.72,-0.93 -0.394,-0.448 -1.12,-1.495 -1.604,-2.314 -0.486,-0.817 -1.311,-2.018 -1.826,-2.655 -0.521,-0.642 -0.941,-1.262 -0.941,-1.384 0,-0.125 -0.188,-0.39 -0.432,-0.607 -0.242,-0.22 -0.64,-0.788 -0.909,-1.297 -0.266,-0.509 -0.665,-1.15 -0.908,-1.46 -0.777,-0.996 -1.823,-2.725 -3.175,-5.246 -0.735,-1.374 -1.64,-3.029 -2.025,-3.708 -0.389,-0.688 -0.76,-1.494 -0.842,-1.827 -0.078,-0.332 -0.337,-0.845 -0.577,-1.151 -0.888,-1.137 -0.159,-9.741 1.026,-12.087 0.405,-0.808 0.393,-1.771 -0.036,-2.592 -0.185,-0.354 -0.266,-0.643 -0.181,-0.643 0.084,0 -0.058,-0.23 -0.298,-0.497 -0.246,-0.27 -0.72,-0.929 -1.03,-1.438 -0.542,-0.887 -0.555,-0.972 -0.232,-1.472 0.2,-0.312 0.287,-0.75 0.21,-1.052 -0.101,-0.403 0.022,-0.635 0.555,-1.027 0.62,-0.458 2.053,-2.476 1.999,-2.814 -0.026,-0.174 1.365,-1.438 1.587,-1.438 0.09,0 0.178,-0.143 0.178,-0.299 0,-0.167 0.364,-0.64 0.83,-1.074 0.456,-0.426 1.148,-1.173 1.538,-1.661 0.395,-0.493 1.129,-1.168 1.66,-1.525 0.531,-0.359 0.998,-0.701 1.056,-0.777 0.123,-0.153 3.638,-2.567 5.164,-3.544 0.513,-0.328 1.418,-0.765 2.017,-0.975 1.193,-0.42 3.506,-1.692 4.228,-2.329 0.245,-0.216 1.086,-0.704 1.881,-1.094 2.724,-1.333 5.477,-0.945 5.156,0.728 -0.125,0.65 0.113,0.753 0.843,0.366 0.355,-0.188 0.775,-0.074 2.104,0.569 2.06,0.998 3.21,1.189 5.622,0.935 2.215,-0.235 3.181,-0.597 3.579,-1.34 0.165,-0.309 0.761,-1.151 1.347,-1.904 0.587,-0.754 1.051,-1.438 1.051,-1.55 0,-0.106 0.157,-0.327 0.334,-0.476 0.476,-0.394 0.398,-0.866 -0.177,-1.087 -0.269,-0.103 -0.726,-0.441 -1.021,-0.751 -0.357,-0.38 -0.862,-0.608 -1.548,-0.696 -0.555,-0.072 -1.242,-0.245 -1.506,-0.377 l -0.487,-0.244 0.553,-0.43 c 0.705,-0.546 2.502,-1.209 3.831,-1.409 0.554,-0.082 1.169,-0.18 1.35,-0.209 0.182,-0.029 1.129,-0.438 2.104,-0.907 1.108,-0.534 2.271,-0.906 3.101,-1.002 1.814,-0.202 2.586,-0.402 3.031,-0.786 0.198,-0.173 0.48,-0.258 0.597,-0.182 0.124,0.079 0.921,-0.218 1.783,-0.664 0.864,-0.446 1.699,-0.756 1.87,-0.691 0.421,0.157 1.684,-0.327 1.684,-0.648 0,-0.156 0.342,-0.262 0.831,-0.254 0.463,0.006 1.169,-0.097 1.604,-0.23 2.081,-0.646 3.503,-1.215 4.208,-1.682 0.814,-0.542 1.569,-0.789 2.877,-0.938 1.763,-0.2 2.059,-0.29 4.006,-1.2 0.42,-0.195 0.787,-0.213 1.229,-0.058 0.548,0.192 0.729,0.14 1.394,-0.409 0.58,-0.48 0.997,-0.631 1.727,-0.631 0.644,0 1.473,-0.252 2.492,-0.754 0.842,-0.414 1.71,-0.707 1.938,-0.652 0.225,0.055 0.952,-0.104 1.615,-0.353 0.666,-0.25 1.365,-0.456 1.561,-0.456 0.191,0 0.527,-0.188 0.73,-0.409 0.283,-0.311 0.708,-0.413 1.749,-0.431 1.483,-0.021 3.408,-0.412 3.601,-0.731 0.065,-0.111 0.385,-0.198 0.717,-0.198 0.335,0 0.875,-0.146 1.228,-0.332 0.341,-0.18 0.952,-0.334 1.329,-0.334 0.386,0 1.129,-0.197 1.66,-0.442 0.531,-0.243 1.092,-0.44 1.25,-0.44 0.666,0 2.675,-0.789 2.939,-1.152 0.415,-0.57 1.233,-0.553 1.053,0.022 -0.13,0.411 -0.051,0.438 1.145,0.366 0.708,-0.045 1.582,-0.178 1.947,-0.301 0.362,-0.12 1.605,-0.275 2.735,-0.342 1.129,-0.067 2.206,-0.238 2.368,-0.377 0.154,-0.132 0.416,-0.181 0.541,-0.1 0.136,0.084 0.732,0.023 1.329,-0.134 0.774,-0.205 1.229,-0.221 1.594,-0.055 0.28,0.127 1.272,0.382 2.204,0.564 1.375,0.27 2.102,0.283 3.873,0.077 1.196,-0.141 2.381,-0.365 2.623,-0.499 0.249,-0.136 0.688,-0.199 0.997,-0.143 0.311,0.056 0.777,0.016 1.062,-0.088 0.283,-0.106 1.22,-0.155 2.105,-0.111 0.883,0.043 1.74,0.081 1.924,0.087 0.183,0.008 0.731,0.144 1.22,0.304 1.216,0.4 2.944,0.584 3.104,0.328 0.175,-0.28 1.587,-0.27 2.119,0.019 0.295,0.157 0.554,0.153 0.864,-0.019 0.338,-0.188 0.597,-0.162 1.106,0.101 0.774,0.401 1.483,1.385 1.196,1.659 -0.111,0.103 -1.684,0.603 -3.521,1.118 -1.838,0.515 -3.964,1.109 -4.761,1.328 -0.792,0.222 -2.898,0.867 -4.692,1.44 l -3.254,1.04 -1.151,-1.151 c -1.529,-1.528 -2.767,-2.098 -6.287,-2.886 -1.816,-0.408 -3.71,-0.262 -5.004,0.385 -1.327,0.663 -3.39,2.615 -3.227,3.054 0.059,0.16 0.003,0.697 -0.127,1.207 -0.185,0.729 -0.154,1.272 0.144,2.623 0.205,0.931 0.468,1.932 0.576,2.203 0.106,0.265 0.147,0.628 0.089,0.774 -0.061,0.152 -0.975,0.675 -2.037,1.163 -2.744,1.262 -5.101,2.5 -6.198,3.257 -1.131,0.777 -3.144,1.944 -5.137,2.974 -0.79,0.407 -2.346,1.424 -3.454,2.254 -2.124,1.594 -3.512,2.475 -3.896,2.475 -0.132,0 -0.643,-0.365 -1.106,-0.789 -1.326,-1.209 -3.409,-2.062 -5.445,-2.232 -1.573,-0.132 -1.857,-0.092 -2.812,0.381 -2.509,1.244 -4.138,3.635 -4.236,6.227 -0.056,1.417 -0.024,1.528 0.538,1.881 0.332,0.209 0.638,0.4 0.688,0.433 0.049,0.028 0.097,0.232 0.111,0.452 0.011,0.213 0.186,0.633 0.374,0.897 0.313,0.439 0.442,0.472 1.108,0.276 0.419,-0.124 1.08,-0.221 1.494,-0.221 h 0.742 l -1.406,1.594 c -0.769,0.871 -2.592,2.79 -4.018,4.229 -1.428,1.439 -3.02,3.177 -3.51,3.83 -0.499,0.663 -0.975,1.195 -1.073,1.195 -0.098,0 -0.242,0.266 -0.322,0.597 -0.079,0.332 -0.335,0.864 -0.575,1.197 -0.24,0.331 -0.432,0.68 -0.432,0.785 0,0.104 -0.555,0.764 -1.217,1.45 -0.663,0.685 -1.218,1.367 -1.218,1.493 0,0.124 -0.095,0.409 -0.203,0.609 -0.464,0.863 -0.904,1.931 -0.904,2.192 0,0.146 -0.288,0.55 -0.642,0.9 -0.819,0.812 -1.614,2.519 -1.551,3.328 0.057,0.731 -0.15,1.681 -0.567,2.611 -0.391,0.87 -0.978,2.655 -1.25,3.807 -0.12,0.509 -0.338,1.02 -0.483,1.13 -0.148,0.111 -0.885,0.135 -1.66,0.056 -1.13,-0.116 -1.501,-0.257 -1.95,-0.742 -0.307,-0.332 -0.695,-0.598 -0.874,-0.598 -0.171,0 -0.318,-0.154 -0.318,-0.331 0,-0.499 -0.91,-0.619 -1.817,-0.239 -0.729,0.305 -0.961,0.646 -0.862,1.278 0.055,0.363 -1.484,0.907 -2.657,0.941 -0.819,0.022 -1.458,0.179 -1.881,0.458 -0.798,0.527 -1.061,0.571 -1.838,0.301 -0.559,-0.193 -0.72,-0.119 -1.605,0.735 -0.53,0.513 -1.184,1.269 -1.415,1.64 -1.307,2.078 -2.229,3.373 -2.901,4.05 -0.414,0.422 -0.741,0.934 -0.741,1.162 0,0.223 -0.093,0.583 -0.201,0.788 -0.996,1.887 -2.199,6.175 -2.557,9.119 -0.068,0.554 -0.211,1.085 -0.32,1.195 -0.381,0.381 -1.986,-0.841 -2.007,-1.527 -0.004,-0.145 -0.639,-0.694 -1.392,-1.207 -1.208,-0.82 -1.571,-0.953 -2.854,-1.039 -1.108,-0.074 -1.688,-0.001 -2.337,0.299 -2.066,0.955 -3.506,2.568 -4.916,5.512 -0.297,0.62 -0.598,1.136 -0.684,1.169 -0.163,0.063 -0.155,0.182 0.099,1.421 0.165,0.8 0.896,0.82 2.511,0.07 0.667,-0.31 1.243,-0.558 1.298,-0.558 0.053,0 0.033,0.487 -0.045,1.062 -0.135,0.996 -0.1,1.107 0.586,1.774 1.372,1.337 3.898,1.7 5.226,0.751 0.332,-0.238 0.82,-0.481 1.051,-0.521 0.244,-0.044 0.543,-0.299 0.687,-0.586 0.331,-0.664 2.741,-2.46 3.111,-2.319 0.31,0.119 0.747,1.189 0.876,2.142 0.106,0.779 -0.314,2.213 -1.209,4.117 -1.101,2.34 -1.594,4.628 -1.641,7.615 -0.031,1.86 -0.119,2.661 -0.308,2.725 -0.283,0.092 -3.614,-3.012 -3.614,-3.368 z m -1.927,-16.258 c -0.795,0.307 -2.278,0.169 -2.278,-0.211 0,-0.159 0.202,-0.576 0.454,-0.931 0.516,-0.73 1.538,-0.881 2.267,-0.331 0.545,0.407 0.31,1.184 -0.443,1.473 z m 33.304,86.804 c -0.692,0.371 -10.451,0.557 -10.926,0.208 -0.18,-0.132 -0.872,-0.295 -1.508,-0.354 -0.637,-0.06 -1.254,-0.237 -1.346,-0.388 -0.153,-0.251 -3.149,-1.165 -3.564,-1.087 -0.104,0.02 -0.664,-0.174 -1.217,-0.42 -0.553,-0.247 -1.163,-0.456 -1.328,-0.456 -0.171,0 -0.691,-0.206 -1.189,-0.471 -0.498,-0.265 -0.957,-0.475 -1.051,-0.481 -0.301,-0.02 -3.73,-2.616 -4.297,-3.253 -0.281,-0.316 -1.207,-1.091 -2.037,-1.702 -2.323,-1.713 -3.78,-3.384 -4.856,-5.572 -0.966,-1.962 -0.98,-2.047 -1.03,-5.698 -0.07,-5.117 0.408,-9.11 1.217,-10.15 0.277,-0.358 0.572,-1.023 0.673,-1.521 0.101,-0.493 0.438,-1.743 0.761,-2.821 0.324,-1.079 0.587,-2.022 0.595,-2.13 0.007,-0.104 0.304,-0.465 0.636,-0.774 0.332,-0.311 0.623,-0.769 0.623,-0.982 0,-0.221 0.249,-0.557 0.553,-0.747 0.305,-0.189 0.554,-0.595 0.554,-0.898 0,-0.308 0.308,-1.106 0.691,-1.798 0.383,-0.692 0.765,-1.43 0.857,-1.66 0.092,-0.23 0.94,-1.091 1.909,-1.936 0.967,-0.846 1.896,-1.798 2.088,-2.144 0.184,-0.332 0.526,-0.623 0.732,-0.623 0.207,0 0.46,-0.193 0.543,-0.414 0.218,-0.581 0.622,-0.249 1.111,0.912 0.234,0.554 0.769,2.103 1.204,3.485 1.523,4.841 4.349,12.772 5.525,15.518 0.653,1.521 1.61,3.823 2.128,5.117 0.873,2.185 1.38,3.282 2.412,5.228 0.209,0.396 0.713,1.466 1.119,2.379 1.244,2.793 1.326,2.955 2.844,5.614 0.805,1.411 1.452,2.668 1.452,2.821 0,0.166 0.083,0.277 0.208,0.277 0.115,0 0.444,0.456 0.746,1.037 0.297,0.57 0.926,1.535 1.396,2.144 0.471,0.605 1.195,1.632 1.605,2.268 0.747,1.16 0.747,1.16 0.167,1.472 z m 5.116,-12.207 c -0.359,0.165 -0.663,0.432 -0.663,0.582 0,0.622 -1.084,0.221 -1.717,-0.637 -0.92,-1.244 -2.433,-4.65 -2.433,-5.477 0,-0.719 0.851,-1.632 1.521,-1.632 0.222,0 0.461,-0.118 0.559,-0.276 0.316,-0.512 0.646,-0.277 1.439,1.023 2.277,3.735 2.689,5.777 1.294,6.417 z m -3.845,-13.957 c -0.608,-0.112 -1.268,-0.33 -1.466,-0.483 -0.554,-0.43 -0.415,-1.501 0.222,-1.703 0.304,-0.096 0.553,-0.35 0.553,-0.562 0,-0.205 0.221,-0.461 0.471,-0.544 0.611,-0.203 2.019,-2.139 2.019,-2.775 0,-0.239 -0.317,-0.912 -0.691,-1.466 -0.374,-0.553 -0.691,-1.182 -0.691,-1.369 0,-0.193 -0.243,-0.802 -0.554,-1.383 -0.309,-0.581 -0.553,-1.22 -0.553,-1.452 0,-0.232 -0.243,-0.719 -0.553,-1.106 -0.311,-0.388 -0.554,-0.965 -0.554,-1.313 0,-0.564 0.097,-0.608 1.038,-0.471 0.58,0.085 1.231,0.208 1.479,0.278 1.062,0.304 1.697,1.811 2.198,5.212 0.501,3.402 1.397,8.001 1.946,9.985 0.59,2.13 2.408,5.856 3.59,7.357 0.74,0.94 0.914,1.927 0.371,2.104 -0.15,0.049 -0.359,10e-4 -0.525,-0.119 -0.367,-0.267 -2.166,-2.787 -2.659,-3.728 -2.048,-3.9 -4.024,-6.163 -5.641,-6.462 z m 6.137,20.597 c 0.064,-0.246 0.446,-0.64 0.861,-0.886 0.42,-0.249 1.135,-0.812 1.632,-1.287 1.327,-1.266 4.509,-2.446 4.509,-1.673 0,0.152 -0.249,0.526 -0.553,0.83 -0.305,0.305 -0.461,0.554 -0.346,0.554 0.115,0 -0.346,0.271 -1.037,0.608 -0.692,0.338 -1.319,0.713 -1.411,0.844 -0.089,0.125 -0.36,0.268 -0.581,0.304 -0.229,0.038 -0.774,0.311 -1.217,0.606 -1.023,0.686 -2.021,0.738 -1.857,0.1 z m 27.401,0.304 c -0.194,0 -0.648,0.388 -1.038,0.885 -0.389,0.498 -0.842,1.037 -1.037,1.231 -0.193,0.193 -0.346,0.474 -0.346,0.636 0,0.16 -0.248,0.446 -0.553,0.637 -0.305,0.191 -0.553,0.501 -0.553,0.691 0,0.193 -0.122,0.346 -0.277,0.346 -0.154,0 -0.514,0.456 -0.816,1.037 -0.301,0.581 -0.884,1.427 -1.322,1.923 -1.618,1.825 -2.01,2.354 -2.01,2.71 0,0.194 -0.135,0.404 -0.291,0.457 -0.156,0.052 -0.322,0.331 -0.359,0.608 -0.037,0.276 -0.209,0.6 -0.373,0.703 -0.295,0.186 -0.713,1.661 -0.753,2.657 -0.019,0.477 -0.188,0.544 -1.212,0.484 -0.663,-0.039 -1.61,-0.265 -2.143,-0.512 -0.525,-0.244 -1.129,-0.374 -1.342,-0.291 -0.207,0.081 -0.465,-0.041 -0.553,-0.263 -0.089,-0.221 -0.289,-0.344 -0.43,-0.263 -0.157,0.092 -0.328,0.042 -0.428,-0.124 -0.089,-0.147 -0.36,-0.276 -0.582,-0.276 -0.44,-0.001 -3.365,-1.771 -3.838,-2.324 -0.156,-0.185 -0.615,-0.537 -1.029,-0.793 -0.87,-0.538 -2.812,-3.052 -3.127,-4.047 -0.243,-0.77 0.167,-1.135 1.273,-1.135 0.415,0 0.814,-0.184 0.898,-0.415 0.082,-0.221 0.334,-0.344 0.54,-0.263 0.225,0.089 0.532,-0.027 0.733,-0.276 0.2,-0.249 0.455,-0.429 0.607,-0.429 0.144,0 0.54,-0.264 0.871,-0.581 0.343,-0.326 0.996,-0.748 1.494,-0.963 0.885,-0.383 4.232,-3.493 4.232,-3.933 0,-0.122 0.248,-0.396 0.553,-0.608 0.305,-0.212 0.553,-0.493 0.553,-0.622 0,-0.138 0.113,-0.374 0.271,-0.567 1.217,-1.493 1.609,-2.077 1.803,-2.683 0.125,-0.39 0.555,-1.079 0.982,-1.577 0.427,-0.498 0.84,-1.133 0.941,-1.452 0.096,-0.304 0.301,-0.567 0.441,-0.567 0.149,0 0.264,-0.317 0.264,-0.732 0,-0.415 0.186,-0.938 0.427,-1.203 0.812,-0.896 1.315,-3.285 1.431,-6.071 0.494,0.395 0.988,0.778 1.418,1.099 1.173,0.876 2.236,1.71 2.359,1.85 0.123,0.141 0.463,0.332 0.773,0.43 0.309,0.1 0.996,0.52 1.55,0.942 2.236,1.717 4.802,3.173 6.554,3.717 0.995,0.312 1.87,0.71 1.937,0.888 0.067,0.178 0.298,0.32 0.52,0.32 0.056,0 0.139,0.015 0.24,0.042 -1.147,1.024 -2.267,2.104 -2.446,2.427 -0.186,0.332 -0.395,0.545 -0.489,0.498 -0.095,-0.048 -0.374,0.035 -0.65,0.193 -0.276,0.158 -0.365,0.282 -0.207,0.29 0.151,0.008 -0.222,0.344 -0.83,0.747 -0.608,0.403 -1.306,0.933 -1.549,1.176 -0.239,0.239 -0.747,0.71 -1.106,1.026 -0.885,0.778 -1.632,1.714 -1.632,2.044 0.002,0.153 -0.151,0.276 -0.344,0.276 z m 8.646,5.504 c -0.23,0.353 -0.799,1.147 -1.274,1.783 -0.479,0.644 -1.181,1.757 -1.593,2.531 -2.061,3.872 -2.611,4.724 -3.303,5.104 -0.719,0.397 -0.812,0.382 -1.304,-0.209 -0.926,-1.113 -0.989,-2.351 -0.192,-3.762 0.578,-1.023 1.086,-2.785 1.06,-3.679 -0.003,-0.118 0.168,-0.415 0.367,-0.636 0.206,-0.229 0.585,-0.844 0.844,-1.369 0.257,-0.521 1.964,-2.404 3.762,-4.149 1.798,-1.745 3.292,-3.282 3.292,-3.388 0,-0.336 3.733,-3.817 4.094,-3.817 0.191,0 0.43,-0.193 0.512,-0.415 0.019,-0.053 0.048,-0.103 0.081,-0.149 1.126,0.34 2.673,0.885 3.213,1.164 0.196,0.102 0.438,0.187 0.659,0.243 -0.354,0.306 -0.725,0.54 -0.855,0.54 -0.129,0 -0.83,0.558 -1.549,1.23 -0.72,0.674 -1.721,1.595 -2.213,2.033 -0.498,0.444 -0.899,0.876 -0.899,0.969 0,0.182 -0.245,0.497 -1.377,1.77 -0.838,0.942 -2.877,3.522 -3.325,4.206 z m 12.334,-2.738 c -0.436,0 -0.701,0.248 -3.576,3.347 -2.694,2.904 -2.953,3.207 -2.976,3.484 -0.031,0.389 -1.718,1.684 -2.327,1.787 -0.438,0.074 -0.537,-0.044 -0.477,-0.569 0.076,-0.655 2.174,-4.066 3.146,-5.117 0.281,-0.305 0.512,-0.653 0.512,-0.774 0,-0.301 2.213,-2.41 3.706,-3.532 0.72,-0.54 1.368,-1.255 1.452,-1.599 0.081,-0.332 0.281,-0.623 0.429,-0.623 0.151,0 0.595,-0.249 0.981,-0.553 0.388,-0.304 0.999,-0.554 1.355,-0.554 0.359,0 0.65,-0.123 0.65,-0.276 0,-0.152 0.18,-0.276 0.401,-0.276 0.221,0 0.575,-0.174 0.788,-0.388 0.061,-0.061 0.16,-0.135 0.287,-0.218 0.191,0.053 0.362,0.096 0.486,0.119 0.617,0.115 1.508,0.359 1.982,0.544 -0.212,0.125 -0.406,0.215 -0.543,0.216 -0.193,0.002 -0.359,0.118 -0.359,0.252 0,0.141 -0.277,0.315 -0.637,0.401 -0.36,0.086 -0.989,0.512 -1.451,0.981 -0.463,0.471 -0.924,0.836 -1.065,0.844 -0.143,0.008 -0.415,0.222 -0.636,0.498 -0.244,0.305 -0.316,0.33 -0.194,0.069 0.104,-0.224 -0.208,-0.039 -0.678,0.401 -0.47,0.439 -0.871,0.981 -0.871,1.175 0.002,0.207 -0.164,0.361 -0.385,0.361 z m 28.795,7.634 c -0.225,0.225 -1.301,-0.554 -1.301,-0.94 0,-0.506 0.398,-0.415 0.969,0.221 0.273,0.304 0.422,0.627 0.332,0.719 z m 1.437,-6.141 c -0.343,0.162 -0.76,0.124 -1.203,-0.11 -0.359,-0.191 -0.911,-0.379 -1.176,-0.401 -0.275,-0.023 -0.682,-0.128 -0.912,-0.235 -0.226,-0.104 -0.857,-0.25 -1.383,-0.318 -0.525,-0.067 -0.969,-0.143 -0.969,-0.165 0,-0.022 -0.815,-0.086 -1.783,-0.139 -0.969,-0.053 -1.955,-0.166 -2.158,-0.249 -0.202,-0.082 -0.746,0.044 -1.189,0.276 -0.802,0.422 -0.809,0.44 -0.373,1.106 0.243,0.373 0.94,0.827 1.549,1.01 0.609,0.183 1.442,0.668 1.854,1.079 0.553,0.553 0.869,0.679 1.217,0.483 0.305,-0.17 0.471,-0.16 0.471,0.028 0,0.161 0.221,0.29 0.498,0.29 0.283,0 0.746,0.231 1.078,0.539 0.332,0.309 0.629,0.492 0.691,0.429 0.219,-0.218 1.116,0.913 0.945,1.189 -0.216,0.348 -1.582,0.192 -4.514,-0.513 -1.244,-0.299 -2.529,-0.538 -2.891,-0.538 -0.357,0 -1.327,-0.181 -2.157,-0.401 -0.829,-0.221 -1.551,-0.363 -1.604,-0.317 -0.053,0.045 0.596,0.77 1.425,1.594 1.411,1.401 2.028,2.721 1.272,2.721 -0.15,0 -0.277,-0.138 -0.277,-0.304 0,-0.183 -0.331,-0.255 -0.829,-0.181 -0.47,0.071 -0.829,0.047 -0.829,-0.055 0,-0.1 -0.65,-0.316 -1.453,-0.484 -0.802,-0.168 -1.736,-0.396 -2.088,-0.51 -1.071,-0.347 -0.699,0.731 0.758,2.197 1.32,1.327 1.535,2.09 0.598,2.117 -0.246,0.007 -1.245,0.043 -2.24,0.082 -1.135,0.043 -2.411,-0.117 -3.458,-0.436 -3.845,-1.169 -4.735,-1.476 -5.311,-1.831 -0.332,-0.205 -0.71,-0.381 -0.83,-0.388 -0.448,-0.025 -1.079,-0.354 -1.577,-0.821 -0.454,-0.426 -0.459,-0.521 -0.055,-1.103 0.717,-1.03 1.877,-2.406 3.148,-3.734 0.637,-0.663 1.166,-1.317 1.166,-1.438 0,-0.702 5.395,-4.729 6.334,-4.729 0.235,0 0.691,-0.318 1.052,-0.733 0.075,-0.087 0.15,-0.161 0.224,-0.231 0.791,0.592 2.19,0.75 4.847,0.547 1.373,-0.105 1.965,-0.052 2.745,0.245 0.895,0.337 2.196,0.428 6.242,0.356 0.03,0.031 0.06,0.062 0.09,0.093 3.157,3.292 3.519,3.764 3.055,3.983 z m 1.191,1.051 c -0.063,-0.187 0.082,-0.332 0.33,-0.332 0.249,0 0.443,0.194 0.443,0.443 0.001,0.5 -0.596,0.414 -0.773,-0.111 z m 47.409,-0.582 c -0.748,0.569 -1.604,0.914 -2.075,0.836 -0.193,-0.032 -0.276,0.074 -0.18,0.23 0.096,0.155 -0.014,0.29 -0.235,0.29 -0.23,0 -0.857,0.246 -1.41,0.554 -0.553,0.308 -1.229,0.553 -1.521,0.553 -0.277,0 -0.598,0.111 -0.678,0.235 -0.086,0.132 -0.761,0.32 -1.535,0.429 -0.774,0.109 -1.395,0.34 -1.41,0.525 -0.021,0.249 -0.059,0.249 -0.152,0 -0.085,-0.226 -0.332,-0.252 -0.775,-0.083 -0.47,0.181 -0.741,0.139 -0.981,-0.152 -0.183,-0.221 -0.512,-0.4 -0.733,-0.4 -0.225,0 -0.787,-0.2 -1.285,-0.457 -0.941,-0.485 -3.979,-0.714 -4.227,-0.317 -0.203,0.326 -1.971,0.304 -2.176,-0.028 -0.085,-0.137 0.146,-0.608 0.514,-1.051 0.781,-0.94 1.062,-1.771 0.756,-2.24 -0.13,-0.2 -1.05,-0.477 -2.073,-0.622 -1.604,-0.229 -1.97,-0.194 -2.862,0.275 -1.135,0.597 -2.051,1.034 -3.126,1.491 -0.372,0.158 -1.023,0.517 -1.411,0.777 l -0.719,0.484 0.032,-0.802 c 0.036,-0.886 2.102,-3.319 2.817,-3.319 0.773,0 2.809,-1.613 3,-2.379 0.128,-0.509 0.025,-0.943 -0.235,-1.197 1.309,-0.324 3.586,-0.659 4.765,-0.659 0.589,0 1.482,-0.248 2.348,-0.649 0.654,-0.304 1.29,-0.545 1.938,-0.76 1.031,0.226 2.247,0.397 3.343,0.446 0.995,0.044 1.825,0.175 1.825,0.288 0,0.125 0.1,0.208 0.249,0.208 0.626,0 4.094,2.271 6.141,4.021 2.568,2.2 2.935,2.814 2.071,3.473 z m 13.887,3.569 c -0.598,0.953 -1.54,0.857 -2.448,-0.249 -0.455,-0.553 -0.818,-1.069 -0.818,-1.161 0,-0.092 -0.559,-0.774 -1.245,-1.521 -0.686,-0.747 -1.245,-1.43 -1.245,-1.521 0,-0.091 -0.908,-1.106 -2.005,-2.24 -1.097,-1.134 -2.315,-2.476 -2.69,-2.96 -0.814,-1.053 -3.768,-3.291 -5.455,-4.135 -0.382,-0.191 -0.703,-0.387 -0.92,-0.546 0.149,-0.014 0.298,-0.026 0.419,-0.026 0.62,0 1.513,-0.1 2.003,-0.223 0.135,-0.033 0.346,-0.076 0.602,-0.124 0.593,0.363 1.298,0.729 1.74,0.891 0.555,0.202 0.967,0.431 0.9,0.498 -0.069,0.068 0.373,0.461 0.981,0.871 0.605,0.409 1.7,1.298 2.42,1.965 0.72,0.666 1.627,1.467 2.005,1.77 0.373,0.298 1.075,1.052 1.521,1.632 0.456,0.593 1.316,1.715 1.908,2.489 0.594,0.775 1.436,2.01 1.867,2.739 0.659,1.105 0.735,1.414 0.46,1.851 z m 12.362,5.6 c -0.698,0.136 -1.425,-0.455 -2.061,-1.672 -0.26,-0.498 -0.422,-0.588 -0.65,-0.359 -0.48,0.481 -0.694,0.359 -0.876,-0.498 -0.095,-0.452 -0.45,-1.244 -0.78,-1.742 -0.731,-1.104 -1.449,-2.738 -1.858,-4.232 -0.168,-0.616 -0.848,-1.964 -1.533,-3.042 -0.686,-1.079 -1.433,-2.304 -1.688,-2.767 -0.249,-0.452 -0.814,-1.244 -1.244,-1.742 -0.43,-0.498 -0.788,-1.039 -0.788,-1.189 0,-0.521 0.5,-0.249 1.273,0.691 1.934,2.352 6.45,8.882 6.465,9.349 0.003,0.108 0.379,0.72 0.85,1.384 0.471,0.663 1.155,1.678 1.549,2.296 0.389,0.608 0.924,1.354 1.189,1.659 0.271,0.309 0.552,0.816 0.637,1.147 0.118,0.465 0.013,0.621 -0.485,0.717 z m 14.66,-14.728 c -0.388,0.202 -0.691,0.566 -0.691,0.83 0,1.102 -1.411,3.034 -2.711,3.714 -0.525,0.274 -0.885,0.671 -0.885,0.975 0,0.292 -0.415,0.772 -0.969,1.12 -0.525,0.33 -0.898,0.723 -0.815,0.857 0.081,0.134 -0.111,0.249 -0.415,0.249 -0.305,0 -0.567,0.096 -0.567,0.207 0,0.112 -0.262,0.637 -0.566,1.135 -0.542,0.885 -0.592,0.904 -1.106,0.442 -0.305,-0.273 -0.54,-0.581 -0.54,-0.705 0,-0.878 -3.911,-8.05 -6.004,-11.009 -0.945,-1.338 -4.072,-4.564 -7.053,-7.437 0.45,-0.153 0.934,-0.29 1.264,-0.348 0.953,-0.165 2.463,-0.744 2.989,-1.146 0.497,-0.38 3.342,-1.202 4.162,-1.202 0.06,0 0.135,-0.019 0.203,-0.028 0.471,0.812 0.896,1.488 1.217,1.918 1.324,1.771 5.148,5.104 6.846,5.969 0.385,0.195 1.078,0.674 1.493,1.029 0.415,0.355 1.013,0.664 1.286,0.664 0.277,0 0.512,0.127 0.512,0.276 0,0.148 0.36,0.361 0.774,0.46 1.189,0.281 2.269,0.904 2.269,1.311 -0.002,0.202 -0.306,0.518 -0.693,0.719 z m 3.706,-4.785 c -0.223,0.223 -0.649,0.093 -1.59,-0.483 -0.72,-0.441 -1.799,-0.904 -2.448,-1.052 -0.637,-0.144 -1.362,-0.463 -1.604,-0.705 -0.249,-0.249 -0.6,-0.442 -0.802,-0.442 -0.193,0 -0.623,-0.225 -0.927,-0.484 -0.313,-0.268 -0.857,-0.73 -1.217,-1.037 -0.36,-0.306 -0.737,-0.522 -0.844,-0.484 -0.105,0.038 -0.997,-0.746 -1.95,-1.715 -0.888,-0.901 -1.502,-1.67 -2.166,-2.78 0.651,-0.164 1.423,-0.495 1.681,-0.763 0.157,-0.162 0.551,-0.362 0.992,-0.519 1.016,1.274 2.354,2.59 4.126,4.165 0.308,0.273 1.106,0.909 1.798,1.432 0.692,0.523 1.393,1.125 1.577,1.355 0.177,0.222 0.338,0.306 0.346,0.18 0.008,-0.129 0.4,0.09 0.871,0.484 0.471,0.394 1.058,0.719 1.3,0.719 0.885,-10e-4 1.488,1.498 0.857,2.129 z m -6.39,-11.976 c -0.084,-0.094 -0.177,-0.228 -0.272,-0.379 0.226,-0.15 0.431,-0.298 0.58,-0.431 0.558,-0.497 2.131,-1.731 3.494,-2.76 0.088,0.029 0.166,0.065 0.224,0.112 0.202,0.164 0.678,0.291 1.037,0.276 0.366,-0.016 1.313,0.09 2.115,0.235 0.857,0.155 1.452,0.16 1.452,0.014 0,-0.149 0.078,-0.203 0.194,-0.134 0.255,0.152 3.872,0.532 4.702,0.494 0.359,-0.016 0.636,0.092 0.636,0.248 0,0.158 0.166,0.276 0.388,0.276 0.782,0 0.166,1.27 -0.747,1.538 -0.812,0.238 -0.889,0.356 -0.927,1.436 -0.036,1.039 -0.193,1.312 -1.355,2.352 -0.719,0.643 -1.606,1.639 -1.96,2.198 -0.733,1.162 -1.272,1.3 -1.953,0.498 -0.259,-0.304 -0.57,-0.553 -0.692,-0.553 -0.36,0.002 -6.076,-4.48 -6.916,-5.42 z m 40.655,-12.585 c 1.083,1.282 3.714,6.832 3.856,8.132 0.084,0.768 -0.089,2.074 -0.467,3.54 -0.856,3.319 -1.092,3.974 -2.411,6.694 -0.657,1.355 -1.193,2.648 -1.193,2.876 0,0.708 -1.355,2.393 -2.213,2.751 -0.471,0.197 -0.83,0.516 -0.83,0.734 0,0.388 -1.448,2.13 -1.77,2.13 -0.092,0 -1.065,0.602 -2.172,1.342 -1.107,0.74 -2.656,1.695 -3.457,2.13 -0.803,0.436 -1.452,0.888 -1.452,1.01 0,0.118 -0.194,0.221 -0.415,0.221 -0.451,0 -1.383,0.465 -2.13,1.062 -0.253,0.202 -0.968,0.417 -1.549,0.465 -1.079,0.09 -2.269,0.623 -2.269,1.018 0,0.122 -0.249,0.222 -0.553,0.222 -0.305,0 -0.765,0.12 -1.023,0.267 -0.606,0.344 -4.232,1.356 -5.892,1.645 -1.466,0.255 -2.213,0.553 -2.213,0.882 0,0.121 -0.346,0.209 -0.761,0.194 -0.419,-0.016 -1.438,0.177 -2.269,0.429 -0.829,0.251 -1.669,0.456 -1.866,0.456 -0.535,0 -0.443,-0.491 0.193,-1.03 0.329,-0.278 0.742,-0.851 0.954,-1.32 0.205,-0.456 0.922,-1.397 1.591,-2.089 0.668,-0.691 1.173,-1.39 1.12,-1.549 -0.057,-0.169 0.083,-0.436 0.332,-0.637 0.226,-0.182 0.429,-0.595 0.429,-0.871 0,-0.298 0.359,-0.846 0.829,-1.265 0.747,-0.665 2.213,-3.254 2.213,-3.907 0,-0.135 0.305,-0.528 0.664,-0.857 0.369,-0.339 0.873,-1.272 1.134,-2.103 0.262,-0.83 0.87,-1.937 1.369,-2.489 0.492,-0.545 1.443,-2.116 2.103,-3.472 0.658,-1.355 1.304,-2.476 1.425,-2.476 0.126,0 0.221,-0.124 0.221,-0.29 0,-0.166 0.16,-0.457 0.374,-0.678 0.204,-0.212 0.458,-0.913 0.561,-1.549 0.188,-1.162 1.212,-3.292 1.583,-3.292 0.106,0 0.274,-0.429 0.373,-0.954 0.099,-0.525 0.459,-1.302 0.802,-1.729 0.334,-0.415 0.766,-1.096 0.93,-1.466 0.726,-1.632 1.147,-2.712 1.458,-3.734 0.186,-0.608 0.623,-1.542 0.974,-2.074 0.345,-0.526 0.725,-1.411 0.829,-1.937 0.105,-0.525 0.302,-1.101 0.429,-1.259 0.128,-0.157 0.433,-1.037 0.667,-1.922 0.482,-1.826 1.041,-3.181 1.312,-3.181 0.094,0 0.349,0.276 0.587,0.636 0.411,0.621 2.688,3.319 3.897,4.619 0.705,0.758 1.689,1.991 2.516,3.153 0.294,0.415 0.843,1.121 1.18,1.522 z m 1.411,-42.034 c -0.102,3.984 -0.275,4.814 -1.473,7.061 -0.708,1.329 -2.054,2.856 -2.518,2.856 -0.154,0 -0.323,0.077 -0.365,0.167 -0.041,0.091 -0.964,0.608 -2.024,1.14 -1.396,0.697 -1.88,1.044 -1.705,1.219 0.333,0.333 0.288,0.575 -0.111,0.575 -0.177,0 -0.331,0.103 -0.331,0.22 0,0.134 -0.081,0.222 -0.2,0.222 -0.108,0 -0.862,0.403 -1.66,0.886 -0.796,0.483 -1.653,0.886 -1.881,0.886 -0.62,0 -1.636,0.401 -1.906,0.753 -0.12,0.156 -0.695,0.348 -1.271,0.422 -0.952,0.118 -1.088,0.079 -1.427,-0.432 -0.359,-0.54 -0.357,-0.601 0.032,-1.264 0.33,-0.563 0.429,-1.317 0.506,-3.907 0.112,-3.764 0.271,-4.253 1.454,-4.445 0.465,-0.075 0.963,-0.275 1.115,-0.447 0.421,-0.476 1.041,-2.456 1.144,-3.652 0.129,-1.504 0.508,-3.487 0.81,-4.229 0.139,-0.341 0.327,-1.416 0.417,-2.39 0.093,-0.975 0.291,-2.52 0.442,-3.433 0.153,-0.906 0.271,-1.861 0.267,-2.103 -0.006,-0.245 -0.066,-1.284 -0.133,-2.324 -0.068,-1.034 -0.179,-2.878 -0.249,-4.096 -0.162,-2.877 -0.332,-4.139 -0.597,-4.473 -0.129,-0.162 -0.185,-0.598 -0.128,-0.996 0.092,-0.642 -0.459,-3.349 -0.793,-3.897 -0.083,-0.134 -0.257,-0.818 -0.393,-1.526 -0.135,-0.709 -0.48,-1.85 -0.774,-2.545 -0.289,-0.687 -0.531,-1.313 -0.531,-1.373 0,-0.147 1.751,-1.085 2.325,-1.247 0.428,-0.119 0.863,0.076 2.234,1 1.104,0.742 2.347,1.712 3.61,2.814 0.663,0.58 1.328,1.062 1.461,1.062 0.384,0 1.143,0.952 1.464,1.839 0.284,0.786 0.23,1.682 -0.395,6.685 -0.23,1.838 -0.166,4.807 0.131,6.088 0.155,0.671 0.866,2.413 1.58,3.874 1.821,3.725 1.988,4.538 1.873,9.01 z m 22.448,-52.025 c -0.198,2.802 -0.333,3.586 -1.122,6.487 -0.89,3.276 -1.176,4.066 -2.413,6.64 -0.7,1.461 -1.35,2.907 -1.44,3.212 -0.09,0.303 -0.344,0.952 -0.564,1.437 -0.222,0.498 -0.587,1.374 -0.83,1.992 -0.238,0.61 -0.811,1.905 -1.272,2.879 -0.463,0.976 -0.827,1.837 -0.81,1.915 0.021,0.08 -0.109,0.263 -0.287,0.41 -0.178,0.146 -0.32,0.381 -0.32,0.521 0,0.142 -0.195,0.498 -0.443,0.809 -0.248,0.31 -0.442,0.675 -0.442,0.829 0,0.155 -0.253,0.676 -0.576,1.185 -0.365,0.575 -0.495,0.989 -0.353,1.129 0.21,0.211 -0.289,1.484 -0.688,1.749 -0.105,0.069 -0.166,0.331 -0.127,0.555 0.078,0.464 -1.271,2.966 -1.599,2.966 -0.108,0 -0.2,0.266 -0.2,0.574 0,0.311 -0.185,0.842 -0.398,1.151 -0.846,1.218 -2.258,4.668 -2.258,5.513 0,0.289 -0.096,0.509 -0.221,0.509 -0.133,0 -0.224,0.09 -0.224,0.223 0,0.42 -0.967,1.549 -1.327,1.549 -0.73,0 -1.418,-1.334 -0.863,-1.677 0.116,-0.072 0.16,-0.337 0.088,-0.559 -0.072,-0.229 0.034,-1.051 0.233,-1.805 0.198,-0.753 0.404,-1.585 0.453,-1.826 0.051,-0.248 0.318,-0.929 0.61,-1.55 0.29,-0.619 0.588,-1.326 0.674,-1.605 0.082,-0.265 0.238,-0.497 0.332,-0.497 0.418,0 0.616,-1.218 0.656,-4.05 0.055,-3.678 0.072,-3.637 -3.091,-6.579 -1.239,-1.153 -2.465,-2.341 -2.718,-2.632 -1.511,-1.749 -1.996,-2.239 -2.22,-2.252 -0.392,-0.019 -1.278,-1.268 -1.199,-1.689 0.098,-0.509 1.018,-0.619 1.51,-0.179 0.225,0.201 0.456,0.644 0.53,1.02 0.075,0.377 0.277,0.81 0.467,0.998 0.176,0.178 0.415,0.485 0.512,0.663 0.203,0.378 0.771,0.532 2.52,0.685 1.02,0.089 1.41,0.027 1.893,-0.297 0.337,-0.225 1.008,-0.589 1.496,-0.807 1.15,-0.517 1.605,-0.943 2.035,-1.905 0.196,-0.442 0.498,-0.965 0.676,-1.175 0.234,-0.274 0.279,-0.674 0.166,-1.493 -0.085,-0.621 -0.244,-1.117 -0.355,-1.117 -0.111,0 -0.143,-0.223 -0.072,-0.509 0.143,-0.576 -0.87,-3.008 -1.299,-3.119 -0.146,-0.039 -0.908,-0.3 -1.706,-0.584 -2.39,-0.858 -4.797,-0.589 -6.285,0.703 -0.555,0.479 -1.227,1.494 -1.375,2.068 -0.232,0.908 -0.461,2.671 -0.385,2.966 0.056,0.214 -0.093,0.6 -0.343,0.886 -0.537,0.622 -1.041,0.512 -2.083,-0.452 -0.882,-0.818 -2.81,-1.809 -4.184,-2.148 -0.561,-0.142 -1.849,-0.269 -2.867,-0.287 -1.527,-0.027 -2.095,0.067 -3.265,0.549 -1.947,0.799 -2.375,0.772 -2.774,-0.184 -0.181,-0.433 -0.782,-1.34 -1.353,-2.047 -0.574,-0.709 -1.125,-1.514 -1.242,-1.817 -0.111,-0.287 -0.35,-0.703 -0.509,-0.884 -0.16,-0.186 -0.739,-0.83 -1.263,-1.406 -0.521,-0.574 -1.067,-1.185 -1.194,-1.329 -0.125,-0.144 -0.36,-0.696 -0.509,-1.206 -0.195,-0.664 -0.395,-0.941 -0.676,-0.941 -0.217,0 -1,-0.642 -1.728,-1.415 -1.478,-1.578 -1.417,-1.751 0.51,-1.438 0.597,0.096 1.238,0.179 1.427,0.185 0.217,0.009 0.743,-0.739 1.41,-2.002 2.332,-4.406 2.344,-4.436 2.344,-5.911 0,-1.24 -0.069,-1.448 -0.719,-2.147 -0.592,-0.639 -1.053,-0.858 -2.603,-1.254 -3.962,-1.003 -6.361,-0.51 -8.811,1.82 -0.643,0.608 -1.279,1.091 -1.438,1.089 -0.4,-0.009 -1.104,-0.659 -1.454,-1.345 -0.163,-0.317 -0.781,-0.999 -1.382,-1.517 -0.596,-0.52 -1.082,-1.066 -1.082,-1.218 0,-0.152 -0.322,-0.5 -0.721,-0.774 -0.393,-0.272 -1.021,-0.887 -1.383,-1.352 -0.362,-0.464 -0.814,-0.859 -0.997,-0.868 -0.353,-0.015 -1.581,-0.872 -1.262,-0.881 0.292,-0.008 -0.929,-1.398 -1.594,-1.816 -0.31,-0.196 -0.832,-0.605 -1.128,-0.892 -0.732,-0.695 -2.267,-1.719 -2.591,-1.725 -0.136,-0.004 -0.72,-0.398 -1.315,-0.891 -0.601,-0.493 -1.184,-0.887 -1.319,-0.887 -0.127,0 -0.423,-0.198 -0.62,-0.42 -0.205,-0.229 -0.873,-0.657 -1.473,-0.941 -0.597,-0.282 -1.096,-0.59 -1.096,-0.673 0,-0.232 0.6,-0.774 1.329,-1.201 0.863,-0.507 0.933,-0.749 0.616,-2.145 -0.217,-0.95 -0.503,-1.395 -1.646,-2.546 -0.769,-0.773 -1.44,-1.569 -1.511,-1.793 -0.161,-0.518 -1.112,-1.186 -2.374,-1.672 -0.835,-0.32 -1.462,-0.382 -2.924,-0.286 -1.672,0.108 -2.048,0.224 -3.729,1.14 -1.018,0.555 -2.047,1.018 -2.258,1.018 -0.215,0 -0.975,-0.344 -1.705,-0.773 -0.73,-0.429 -1.377,-0.775 -1.45,-0.775 -0.119,0 -4.604,-1.732 -5.711,-2.204 -0.457,-0.195 -4.384,-1.507 -7.571,-2.528 -0.996,-0.318 -2.015,-0.581 -2.258,-0.581 -0.244,0 -0.499,-0.088 -0.566,-0.198 -0.146,-0.238 -0.606,-0.385 -4.304,-1.377 -3.011,-0.808 -3.121,-0.903 -3.121,-2.697 0,-0.512 -0.2,-1.472 -0.444,-2.135 -0.243,-0.665 -0.368,-1.277 -0.275,-1.363 0.091,-0.085 1.162,-0.201 2.38,-0.261 2.944,-0.14 4.769,-0.584 5.8,-1.413 1.514,-1.215 1.948,-1.338 5.711,-1.61 4.584,-0.334 6.98,-0.26 10.406,0.328 1.814,0.311 3.357,0.605 3.431,0.652 0.21,0.138 1.239,0.28 3.21,0.447 0.974,0.085 2.105,0.291 2.513,0.464 0.407,0.168 1.14,0.31 1.628,0.31 0.708,0 1,0.133 1.465,0.664 0.609,0.694 1.131,2.147 1.141,3.164 0.003,0.344 0.155,0.908 0.34,1.263 0.345,0.664 2.094,2.214 2.5,2.214 0.132,0 0.598,0.21 1.019,0.461 0.911,0.545 2.436,0.849 5.048,1.014 2.257,0.141 3.198,0.003 3.938,-0.576 0.302,-0.235 0.909,-0.672 1.329,-0.953 0.421,-0.282 0.806,-0.718 0.841,-0.952 0.039,-0.244 0.134,-0.576 0.223,-0.765 0.083,-0.182 0.153,-0.886 0.153,-1.549 v -1.218 h 1.44 c 0.886,0 1.582,0.119 1.814,0.31 0.21,0.172 0.586,0.251 0.853,0.176 0.259,-0.072 0.919,0.059 1.45,0.288 1.019,0.439 3.765,0.904 4.251,0.721 0.155,-0.059 0.267,0.001 0.267,0.143 0,0.13 0.197,0.244 0.418,0.244 0.224,0 0.479,0.158 0.544,0.333 0.076,0.208 0.397,0.332 0.862,0.332 0.399,0 0.851,0.106 0.974,0.232 0.129,0.127 0.721,0.322 1.318,0.435 1.461,0.271 4.348,1.295 4.618,1.636 0.124,0.154 0.354,0.247 0.495,0.199 0.148,-0.05 0.732,0.114 1.308,0.366 0.575,0.248 1.163,0.453 1.315,0.453 0.157,0 0.312,0.088 0.355,0.199 0.091,0.233 3.82,1.993 4.416,2.082 0.229,0.035 0.643,0.271 0.908,0.514 0.665,0.618 2.413,1.365 3.563,1.524 0.51,0.069 1.086,0.31 1.273,0.526 0.19,0.223 0.698,0.519 1.14,0.665 0.443,0.147 0.916,0.408 1.062,0.588 0.146,0.177 0.346,0.271 0.442,0.211 0.163,-0.099 1.44,0.625 2.148,1.215 0.154,0.13 0.357,0.223 0.486,0.223 0.377,0 2.458,1.162 2.458,1.372 0,0.113 0.165,0.172 0.388,0.133 0.214,-0.035 0.739,0.156 1.184,0.433 0.442,0.277 0.86,0.498 0.941,0.498 0.078,0 0.544,0.252 1.028,0.56 0.789,0.495 2.236,1.314 4.096,2.314 1.107,0.594 2.591,1.557 3.543,2.302 0.486,0.38 1.159,0.83 1.494,1 0.332,0.169 0.609,0.396 0.609,0.497 0,0.1 0.144,0.188 0.298,0.188 0.168,0 0.522,0.244 0.809,0.555 0.284,0.311 0.605,0.555 0.729,0.555 0.119,0 0.454,0.23 0.721,0.496 0.275,0.276 0.873,0.796 1.338,1.162 1.329,1.044 1.861,1.607 1.861,1.97 0,0.202 0.087,0.355 0.199,0.355 0.246,0 2.014,3.011 2.014,3.433 0,0.176 0.095,0.365 0.222,0.442 0.116,0.07 0.221,0.309 0.221,0.51 0,0.212 0.151,0.663 0.35,1.039 0.691,1.312 0.881,5.018 0.521,10.111 z m -21.457,11.953 c 0,-0.515 0.708,-0.913 1.639,-0.92 0.643,-0.006 0.996,0.148 1.497,0.655 0.888,0.897 0.806,1.896 -0.213,2.583 -0.465,0.314 -0.884,0.438 -1.151,0.341 -0.222,-0.083 -0.399,-0.215 -0.376,-0.278 0.023,-0.067 -0.285,-0.563 -0.676,-1.096 -0.393,-0.53 -0.72,-1.114 -0.72,-1.285 z"
   id="path3972"
   inkscape:connector-curvature="0" />
	<path
   d="m 335.333,320.198 c 0.442,0.168 1.347,-0.288 1.163,-0.589 -0.187,-0.302 -0.608,-0.255 -1.117,0.127 -0.378,0.284 -0.382,0.331 -0.046,0.462 z"
   id="path3974"
   inkscape:connector-curvature="0" />
	<path
   d="m 356.763,333.933 c 0,-0.371 -0.952,-0.925 -2.899,-1.686 -1.305,-0.509 -4.463,-0.78 -5.181,-0.446 -0.244,0.114 -0.907,0.372 -1.482,0.577 -1.904,0.68 -5.048,3.011 -5.048,3.747 0,0.171 0.354,0.6 0.796,0.963 0.687,0.563 0.778,0.739 0.665,1.283 -0.127,0.607 -0.1,0.632 0.807,0.643 0.525,0.006 1.452,0.215 2.093,0.475 0.643,0.261 1.19,0.427 1.24,0.377 0.188,-0.188 1.601,0.442 1.885,0.841 0.572,0.807 1.612,1.155 3.473,1.166 1.416,0.007 1.978,-0.095 2.812,-0.508 1.482,-0.737 1.974,-1.631 2.057,-3.757 0.063,-1.594 0.027,-1.757 -0.574,-2.512 -0.353,-0.443 -0.644,-0.97 -0.644,-1.163 z"
   id="path3976"
   inkscape:connector-curvature="0" />
	<path
   d="m 393.158,349.129 c -1.022,-0.544 -2.967,-0.643 -4.96,-0.25 -0.554,0.109 -1.193,0.285 -1.44,0.395 -0.243,0.111 -0.883,0.407 -1.438,0.666 -2.014,0.941 -3.087,2.485 -3.109,4.472 -0.007,0.663 -0.089,1.393 -0.186,1.637 -0.302,0.77 0.993,2.283 2.608,3.049 1.335,0.633 1.528,0.663 3.345,0.536 1.061,-0.072 2.312,-0.046 2.788,0.057 0.476,0.104 1.461,0.243 2.192,0.31 1.804,0.167 2.255,-0.23 3.65,-3.22 0.395,-0.848 0.35,-3.033 -0.083,-3.941 -1.02,-2.148 -1.571,-2.757 -3.367,-3.711 z m -2.546,5.641 c -1.042,0.751 -1.098,0.835 -0.731,1.103 0.223,0.159 0.482,0.287 0.589,0.287 0.101,0 0.079,0.198 -0.053,0.443 -0.317,0.585 -1.154,0.554 -1.706,-0.067 -1.237,-1.396 -1.793,-3.427 -1.223,-4.494 0.289,-0.544 1.929,-1.416 2.66,-1.416 0.274,0 0.751,0.242 1.04,0.531 1.201,1.199 0.995,2.482 -0.576,3.613 z"
   id="path3978"
   inkscape:connector-curvature="0" />
	<path
   d="m 416.58,359.556 c 1.577,-1.549 1.929,-2.246 2.055,-4.06 0.062,-0.909 0.138,-1.861 0.17,-2.104 0.037,-0.311 -0.055,-0.424 -0.31,-0.377 -0.193,0.035 -0.509,-0.133 -0.665,-0.354 -0.29,-0.405 -3.065,-1.815 -3.575,-1.815 -0.144,0 -0.554,-0.149 -0.885,-0.323 -1.03,-0.536 -1.949,-0.558 -3.677,-0.08 -1.901,0.525 -2.755,1.02 -4.515,2.621 -1.75,1.592 -2.412,3.253 -1.615,4.049 0.176,0.176 0.27,0.393 0.196,0.462 -0.075,0.078 -0.031,0.134 0.102,0.134 0.127,0 0.42,0.278 0.643,0.61 0.252,0.375 0.621,0.621 0.962,0.642 0.308,0.017 1.838,0.102 3.433,0.187 2.833,0.15 4.02,0.435 4.803,1.146 0.622,0.562 1.882,0.241 2.878,-0.738 z m -6.531,-4.859 c -0.203,-0.203 0.531,-1.384 0.932,-1.493 0.641,-0.177 0.685,-0.155 0.685,0.342 -10e-4,0.865 -1.112,1.657 -1.617,1.151 z"
   id="path3980"
   inkscape:connector-curvature="0" />
	<path
   d="m 425.247,372.962 c -0.169,-0.199 -0.3,-0.5 -0.3,-0.687 0,-0.42 -1.693,-2.17 -2.103,-2.17 -0.153,0 -0.323,-0.102 -0.364,-0.221 -0.146,-0.426 -3.731,-0.438 -5.06,-0.02 -2.19,0.691 -2.418,0.861 -4.649,3.452 -0.669,0.774 -0.879,2.303 -0.375,2.715 0.228,0.188 0.296,0.572 0.22,1.235 -0.107,0.934 -0.076,0.988 0.941,1.771 0.73,0.561 1.282,0.808 1.805,0.808 0.422,0 0.917,0.088 1.129,0.2 0.49,0.261 2.899,0.562 4.561,0.569 1.106,0.005 1.342,-0.07 1.704,-0.549 0.235,-0.31 0.523,-0.674 0.654,-0.83 0.124,-0.148 0.631,-0.275 1.095,-0.275 0.731,0 0.914,-0.098 1.196,-0.632 0.277,-0.527 0.291,-0.984 0.088,-2.822 -0.133,-1.194 -0.38,-2.351 -0.542,-2.544 z m -6.562,1.394 c -0.523,0.709 -0.709,0.755 -1.175,0.287 -0.409,-0.406 -0.399,-0.774 0.035,-1.394 0.443,-0.631 1.168,-0.619 1.402,0.021 0.132,0.361 0.064,0.643 -0.262,1.086 z"
   id="path3982"
   inkscape:connector-curvature="0" />
	<path
   d="m 443.262,371.323 c -0.512,-0.976 -2.264,-1.646 -4.256,-1.63 -0.864,0.009 -1.795,0.089 -2.104,0.186 -2.016,0.619 -3.72,1.91 -5.592,4.235 -1.479,1.836 -1.483,1.923 -0.158,3.673 2.059,2.724 3.207,3.53 5.307,3.722 0.797,0.072 1.607,0.18 1.814,0.238 0.385,0.111 1.817,-0.188 2.835,-0.596 0.304,-0.12 0.834,-0.641 1.173,-1.15 0.342,-0.513 0.963,-1.36 1.385,-1.893 0.474,-0.598 0.764,-1.201 0.764,-1.593 0,-0.354 0.096,-0.691 0.221,-0.768 0.376,-0.234 0.244,-1.745 -0.213,-2.431 -0.507,-0.758 -0.7,-1.083 -1.176,-1.993 z m -4.811,4.261 c -0.818,0.111 -0.969,0.05 -1.538,-0.63 -0.481,-0.575 -0.581,-0.846 -0.42,-1.151 0.271,-0.518 1.14,-1.064 2.024,-1.273 1.085,-0.255 1.205,-0.244 1.591,0.146 0.936,0.94 -0.063,2.694 -1.657,2.908 z"
   id="path3984"
   inkscape:connector-curvature="0" />
	<path
   d="m 231.706,351.732 c 0.331,0 0.635,0.108 0.681,0.244 0.119,0.352 3.193,0.64 4.964,0.462 1.374,-0.137 1.535,-0.204 1.604,-0.662 0.074,-0.51 0.365,-0.639 0.595,-0.267 0.177,0.292 1.789,0.278 2.341,-0.019 0.222,-0.118 0.421,-0.377 0.421,-0.545 0,-0.177 0.349,-0.83 0.775,-1.451 0.426,-0.619 0.788,-1.338 0.807,-1.594 0.104,-1.526 0.058,-1.899 -0.343,-2.7 -0.743,-1.483 -1.64,-2.287 -2.833,-2.542 -1.483,-0.316 -2.496,-0.265 -3.963,0.199 -1.949,0.617 -3.38,1.509 -4.503,2.808 -1.011,1.172 -1.038,1.238 -1.333,3.475 -0.325,2.459 -0.283,2.592 0.787,2.592 z m 6.509,-1.549 c 0,0.221 -0.178,0.312 -0.533,0.271 -0.662,-0.077 -0.771,-0.17 -0.574,-0.493 0.221,-0.355 1.107,-0.179 1.107,0.222 z m -2.412,-3.764 c 0.846,-1.262 1.659,-1.445 2.068,-0.467 0.473,1.13 -0.109,2.697 -1.229,3.303 -0.382,0.207 -0.495,0.152 -0.822,-0.401 -0.47,-0.798 -0.476,-1.748 -0.017,-2.435 z"
   id="path3986"
   inkscape:connector-curvature="0" />
	<path
   d="m 202.771,362.636 c 0.908,0.067 1.828,0.222 2.06,0.348 0.518,0.278 3.499,0.702 4.938,0.702 0.575,0 1.347,0.15 1.681,0.326 0.754,0.397 2.334,0.44 2.701,0.072 0.148,-0.149 0.266,-0.453 0.266,-0.697 0,-0.244 0.147,-0.594 0.336,-0.807 0.418,-0.471 0.986,-3.521 0.836,-4.495 -0.061,-0.398 -0.244,-0.862 -0.42,-1.062 -0.175,-0.198 -0.31,-0.455 -0.31,-0.587 0,-0.131 -0.398,-0.62 -0.907,-1.118 -0.723,-0.704 -1.13,-0.913 -1.992,-1.027 -0.597,-0.08 -1.209,-0.18 -1.359,-0.224 -0.155,-0.041 -0.479,-0.036 -0.722,0.017 -1.86,0.384 -3.275,0.908 -4.316,1.602 -1.395,0.927 -2.877,2.382 -2.877,2.821 0,0.178 -0.076,0.311 -0.179,0.311 -0.2,0 -1.342,2.368 -1.389,2.878 -0.068,0.755 0.06,0.826 1.653,0.94 z m 3.415,-3.532 c 0.399,-0.731 1.169,-1.42 2.188,-1.953 0.709,-0.372 0.639,-0.374 1.04,0.021 0.479,0.469 0.438,1.777 -0.089,2.93 -0.619,1.351 -0.933,1.594 -2.059,1.594 -0.817,0 -1.015,-0.093 -1.233,-0.576 -0.338,-0.756 -0.307,-1.176 0.153,-2.016 z"
   id="path3988"
   inkscape:connector-curvature="0" />
	<path
   d="m 168.912,384.285 c 0.375,0.006 0.853,0.143 1.073,0.308 0.468,0.348 1.639,0.25 2.724,-0.228 0.974,-0.428 1.113,-0.399 1.672,0.352 0.533,0.719 1.383,0.869 2.512,0.443 0.641,-0.242 1.883,-1.497 1.883,-1.904 0,-0.136 0.222,-0.488 0.507,-0.796 1.766,-1.928 1.935,-2.188 1.798,-2.791 -0.075,-0.331 -0.372,-0.778 -0.668,-1.007 -0.4,-0.309 -0.531,-0.619 -0.531,-1.263 0,-0.463 -0.102,-0.912 -0.221,-0.984 -0.128,-0.076 -0.223,-0.275 -0.223,-0.475 0,-0.189 -0.299,-0.688 -0.662,-1.107 -0.366,-0.421 -0.666,-0.849 -0.666,-0.953 0,-0.103 -0.618,-0.497 -1.372,-0.873 -1.263,-0.631 -2.244,-0.804 -3.055,-0.537 -2.68,0.886 -3.448,1.555 -5.001,4.367 -0.725,1.307 -0.834,1.714 -0.933,3.44 -0.073,1.308 -0.01,2.299 0.188,2.979 0.266,0.907 0.373,1.02 0.975,1.029 z m 2.667,-7.81 c 0.274,-0.19 1.152,-0.207 1.816,-0.033 0.265,0.07 0.753,0.516 1.072,0.981 0.505,0.732 0.565,0.984 0.433,1.804 -0.087,0.531 -0.284,1.157 -0.448,1.417 -0.41,0.653 -1.565,0.852 -2.274,0.389 -0.952,-0.621 -1.816,-1.7 -1.816,-2.27 -0.001,-0.534 0.768,-1.974 1.217,-2.288 z"
   id="path3990"
   inkscape:connector-curvature="0" />
	<path
   d="m 191.106,383.057 2.456,-0.066 2.455,-0.066 0.645,0.674 c 0.356,0.377 0.828,0.677 1.062,0.677 0.235,0 0.665,0.192 0.976,0.438 1.069,0.847 2.391,0.523 4.139,-1.013 l 0.731,-0.644 -0.321,-1.482 c -0.178,-0.819 -0.312,-1.771 -0.303,-2.127 0.028,-1.016 -0.76,-4.072 -1.147,-4.447 -2.059,-1.982 -4.981,-2.726 -7.039,-1.791 -2.505,1.136 -3.612,2.677 -4.168,5.797 -0.36,2.015 -0.356,2.112 0.071,3.067 l 0.443,0.983 z m 3.525,-6.863 c 0.218,-0.333 0.6,-0.679 0.857,-0.779 0.509,-0.198 1.617,-0.058 2.016,0.256 0.562,0.443 1.498,2.67 1.445,3.444 -0.131,1.971 -1.115,2.167 -2.67,0.534 -1.961,-2.061 -2.216,-2.593 -1.648,-3.455 z"
   id="path3992"
   inkscape:connector-curvature="0" />
	<path
   d="m 178.551,393.352 c -0.269,0.554 -0.578,1.172 -0.696,1.395 -0.113,0.218 -0.27,1.218 -0.343,2.212 -0.116,1.594 -0.06,2.02 0.465,3.477 0.327,0.909 0.698,1.982 0.819,2.37 0.125,0.397 0.314,0.766 0.432,0.84 0.122,0.076 0.21,0.3 0.21,0.521 0,0.21 0.207,0.608 0.455,0.874 0.844,0.904 3.021,0.459 4.394,-0.896 0.443,-0.438 0.995,-0.822 1.239,-0.865 0.238,-0.04 0.475,-0.287 0.51,-0.531 0.046,-0.311 0.532,-0.696 1.551,-1.228 1.194,-0.625 1.496,-0.887 1.549,-1.351 0.053,-0.447 0.332,-0.705 1.263,-1.16 1.466,-0.717 1.61,-1.121 1.032,-2.893 -0.24,-0.729 -0.5,-1.616 -0.578,-1.97 -0.082,-0.356 -0.803,-1.327 -1.628,-2.192 -1.815,-1.894 -3.21,-2.589 -5.202,-2.589 -1.218,0 -1.513,0.093 -2.613,0.827 -1.439,0.96 -2.186,1.784 -2.859,3.159 z m 2.548,1.251 c 0.177,-0.066 0.331,-0.268 0.331,-0.433 0,-0.539 0.865,-0.737 1.573,-0.36 0.658,0.351 0.542,1.356 -0.449,3.926 -0.239,0.618 -0.331,0.687 -0.615,0.452 -0.473,-0.4 -1.172,-2.092 -1.172,-2.845 0,-0.353 0.142,-0.67 0.332,-0.74 z"
   id="path3994"
   inkscape:connector-curvature="0" />
	<path
   d="m 167.704,393.417 c -0.556,-1.462 -3.287,-3.629 -4.536,-3.597 -0.248,0.006 -0.932,0.291 -1.552,0.649 -1.48,0.855 -2.421,1.974 -3.442,4.099 -0.67,1.396 -0.86,2.053 -0.895,3.1 -0.07,2.304 0.263,3.411 1.617,5.38 0.533,0.774 0.761,0.928 1.359,0.928 0.398,0 0.906,-0.141 1.14,-0.316 0.658,-0.498 0.875,-0.412 1.723,0.673 1.211,1.549 2.418,2.022 3.37,1.326 0.35,-0.258 0.41,-0.54 0.364,-1.692 -0.044,-1.129 0.027,-1.47 0.385,-1.849 0.808,-0.854 1.141,-2.059 1.228,-4.426 0.054,-1.529 -0.015,-2.492 -0.206,-2.924 -0.161,-0.362 -0.405,-0.953 -0.555,-1.351 z m -3.04,6.397 c -0.473,1.024 -0.987,1.07 -2.029,0.178 -0.418,-0.361 -0.906,-0.664 -1.062,-0.664 -0.156,0 -0.288,-0.097 -0.288,-0.211 0,-0.115 -0.397,-0.433 -0.886,-0.704 -1.075,-0.601 -1.14,-1.232 -0.298,-2.914 0.973,-1.949 1.353,-2.199 2.6,-1.717 0.655,0.253 1.736,1.251 2.099,1.938 0.391,0.743 0.312,3.121 -0.136,4.094 z"
   id="path3996"
   inkscape:connector-curvature="0" />
</g>
</svg>