<?xml version="1.0" encoding="UTF-8" standalone="no"?>
<!-- Created with Inkscape (http://www.inkscape.org/) -->

<svg
   xmlns:dc="http://purl.org/dc/elements/1.1/"
   xmlns:cc="http://creativecommons.org/ns#"
   xmlns:rdf="http://www.w3.org/1999/02/22-rdf-syntax-ns#"
   xmlns:svg="http://www.w3.org/2000/svg"
   xmlns="http://www.w3.org/2000/svg"
   xmlns:sodipodi="http://sodipodi.sourceforge.net/DTD/sodipodi-0.dtd"
   xmlns:inkscape="http://www.inkscape.org/namespaces/inkscape"
   width="38.231998"
   height="38.233002"
   id="svg3154"
   version="1.1"
   inkscape:version="0.48.0 r9654"
   sodipodi:docname="illi-ichi_logo.svg">
  <defs
     id="defs3156" />
  <sodipodi:namedview
     id="base"
     pagecolor="#ffffff"
     bordercolor="#666666"
     borderopacity="1.0"
     inkscape:pageopacity="0.0"
     inkscape:pageshadow="2"
     inkscape:zoom="1.979899"
     inkscape:cx="14.01048"
     inkscape:cy="30.366004"
     inkscape:document-units="px"
     inkscape:current-layer="layer1"
     showgrid="false"
     fit-margin-top="0"
     fit-margin-left="0"
     fit-margin-right="0"
     fit-margin-bottom="0"
     inkscape:window-width="794"
     inkscape:window-height="438"
     inkscape:window-x="2275"
     inkscape:window-y="309"
     inkscape:window-maximized="0" />
  <metadata
     id="metadata3159">
    <rdf:RDF>
      <cc:Work
         rdf:about="">
        <dc:format>image/svg+xml</dc:format>
        <dc:type
           rdf:resource="http://purl.org/dc/dcmitype/StillImage" />
        <dc:title></dc:title>
      </cc:Work>
    </rdf:RDF>
  </metadata>
  <g
     inkscape:label="レイヤー 1"
     inkscape:groupmode="layer"
     id="layer1"
     transform="translate(-346.59829,-270.38854)">
    <polygon
       points="137.776,119.905 137.776,121.415 158.451,121.415 158.451,93.792 130.826,93.792 130.826,114.464 132.337,114.464 132.337,95.299 156.941,95.299 156.941,119.905 "
       id="polygon25"
       style="fill:#000000;fill-opacity:1"
       transform="translate(221.07629,181.90254)" />
    <polygon
       points="132.871,118.465 135.756,118.447 139.513,114.69 143.282,118.437 143.56,118.437 146.192,118.437 152.477,118.437 154.676,116.408 144.154,116.408 137.435,109.724 134.52,109.724 138.076,113.261 "
       id="polygon27"
       style="fill:#000000;fill-opacity:1"
       transform="translate(221.07629,181.90254)" />
    <polygon
       points="137.776,122.896 137.776,126.719 163.754,126.719 163.754,88.486 125.522,88.486 125.522,114.464 129.347,114.464 129.347,92.31 159.931,92.31 159.931,122.896 "
       id="polygon29"
       style="fill:#000000;fill-opacity:1"
       transform="translate(221.07629,181.90254)" />
  </g>
</svg>
