<?xml version="1.0" encoding="UTF-8" standalone="no"?>
<!-- Created with Inkscape (http://www.inkscape.org/) -->

<svg
   xmlns:dc="http://purl.org/dc/elements/1.1/"
   xmlns:cc="http://creativecommons.org/ns#"
   xmlns:rdf="http://www.w3.org/1999/02/22-rdf-syntax-ns#"
   xmlns:svg="http://www.w3.org/2000/svg"
   xmlns="http://www.w3.org/2000/svg"
   xmlns:xlink="http://www.w3.org/1999/xlink"
   xmlns:sodipodi="http://sodipodi.sourceforge.net/DTD/sodipodi-0.dtd"
   xmlns:inkscape="http://www.inkscape.org/namespaces/inkscape"
   width="195.00276"
   height="154.40399"
   id="svg2"
   version="1.1"
   inkscape:version="0.48.2 r9819"
   sodipodi:docname="lambda-cube_nomove_stlc.svg">
  <defs
     id="defs4">
    <linearGradient
       id="linearGradient5278">
      <stop
         style="stop-color:#ffffff;stop-opacity:1;"
         offset="0"
         id="stop5280" />
      <stop
         id="stop5286"
         offset="1"
         style="stop-color:#ffdf6b;stop-opacity:1;" />
    </linearGradient>
    <marker
       inkscape:stockid="Arrow2Mend"
       orient="auto"
       refY="0"
       refX="0"
       id="Arrow2Mend"
       style="overflow:visible">
      <path
         id="path3875"
         style="font-size:12px;fill-rule:evenodd;stroke-width:0.625;stroke-linejoin:round"
         d="M 8.7185878,4.0337352 -2.2072895,0.01601326 8.7185884,-4.0017078 c -1.7454984,2.3720609 -1.7354408,5.6174519 -6e-7,8.035443 z"
         transform="scale(-0.6,-0.6)"
         inkscape:connector-curvature="0" />
    </marker>
    <marker
       inkscape:stockid="Arrow2Lend"
       orient="auto"
       refY="0"
       refX="0"
       id="Arrow2Lend"
       style="overflow:visible">
      <path
         id="path3869"
         style="font-size:12px;fill-rule:evenodd;stroke-width:0.625;stroke-linejoin:round"
         d="M 8.7185878,4.0337352 -2.2072895,0.01601326 8.7185884,-4.0017078 c -1.7454984,2.3720609 -1.7354408,5.6174519 -6e-7,8.035443 z"
         transform="matrix(-1.1,0,0,-1.1,-1.1,0)"
         inkscape:connector-curvature="0">
        <animate
           attributeType="CSS"
           attributeName="stroke-width"
           fill="freeze"
           begin="0s"
           dur="3s"
           repeatCount="0"
           values="0.625"
           id="animate2991" />
      </path>
    </marker>
    <radialGradient
       inkscape:collect="always"
       xlink:href="#linearGradient5278"
       id="radialGradient5284"
       cx="97.231186"
       cy="90.004112"
       fx="97.231186"
       fy="90.004112"
       r="127.53701"
       gradientTransform="matrix(1,0,0,0.93069304,0,6.2379117)"
       gradientUnits="userSpaceOnUse" />
  </defs>
  <sodipodi:namedview
     id="base"
     pagecolor="#ffffff"
     bordercolor="#666666"
     borderopacity="1.0"
     inkscape:pageopacity="0.0"
     inkscape:pageshadow="2"
     inkscape:zoom="1.4518661"
     inkscape:cx="38.456251"
     inkscape:cy="32.831309"
     inkscape:document-units="px"
     inkscape:current-layer="layer1"
     showgrid="false"
     inkscape:window-width="1436"
     inkscape:window-height="856"
     inkscape:window-x="0"
     inkscape:window-y="0"
     inkscape:window-maximized="1"
     fit-margin-top="0"
     fit-margin-left="0"
     fit-margin-right="0"
     fit-margin-bottom="0">
    <inkscape:grid
       type="xygrid"
       id="grid3781"
       empspacing="5"
       visible="true"
       enabled="true"
       snapvisiblegridlinesonly="true" />
  </sodipodi:namedview>
  <metadata
     id="metadata7">
    <rdf:RDF>
      <cc:Work
         rdf:about="">
        <dc:format>image/svg+xml</dc:format>
        <dc:type
           rdf:resource="http://purl.org/dc/dcmitype/StillImage" />
        <dc:title />
      </cc:Work>
    </rdf:RDF>
  </metadata>
  <g
     inkscape:label="Layer 1"
     inkscape:groupmode="layer"
     id="layer1"
     transform="translate(-10.481073,-1.8414237)">
    <path
       sodipodi:type="arc"
       style="fill:url(#radialGradient5284);fill-opacity:1;stroke:none"
       id="path4753"
       sodipodi:cx="97.231186"
       sodipodi:cy="90.004112"
       sodipodi:rx="127.53701"
       sodipodi:ry="118.69781"
       d="m 224.7682,90.004112 a 127.53701,118.69781 0 1 1 -255.074024,0 127.53701,118.69781 0 1 1 255.074024,0 z"
       transform="matrix(1.0020875,0,0,1.0020875,8.2118041,-12.055521)" />
    <g
       inkscape:label="Layer 1"
       id="g5094"
       transform="matrix(0.5473319,0,0,0.88540501,-49.077054,-175.60412)">
      <g
         transform="matrix(0.97028012,0,0,1.0306302,10.01953,-4.3415174)"
         style="font-size:22.39844322px;font-style:normal;font-weight:normal;line-height:125%;letter-spacing:0px;word-spacing:0px;fill:#000000;fill-opacity:1;stroke:none;font-family:Sans"
         id="g5096">
        <g
           transform="matrix(4.8204145,0,0,2.8053526,-774.37527,-875.88222)"
           id="layer1-0"
           inkscape:label="レイヤー 1"
           style="fill:#000000;fill-opacity:1;opacity:0.26724138">
          <path
             style="fill:#000000;fill-opacity:1"
             inkscape:connector-curvature="0"
             id="path33"
             d="m 198.8085,407.07818 c -0.377,-0.403 -0.726,-0.752 -1.049,-1.049 -1.183,-1.128 -2.379,-1.935 -3.588,-2.419 -0.942,-0.214 -1.412,-0.739 -1.412,-1.573 0.027,-0.968 0.497,-1.492 1.412,-1.572 0.348,0.027 0.833,0.351 1.452,0.968 2.903,2.662 5.417,5.229 7.541,7.703 3.844,4.275 6.976,7.232 9.396,8.872 1.936,1.317 3.576,2.03 4.92,2.138 0.323,0 0.483,0.161 0.483,0.483 0,0.887 -0.483,1.802 -1.452,2.742 -0.618,0.592 -1.237,0.888 -1.854,0.888 -0.539,0 -1.13,-0.242 -1.775,-0.727 -0.915,-0.752 -3.159,-3.333 -6.734,-7.743 -2.286,-2.875 -4.221,-5.215 -5.807,-7.016 l -0.081,0.241 c -2.097,3.684 -4.396,6.871 -6.896,9.558 -1.882,2.07 -4.06,3.778 -6.533,5.122 -0.564,0.269 -0.955,0.403 -1.169,0.403 -0.78,0 -1.586,-0.458 -2.419,-1.372 -0.7,-0.672 -1.049,-1.263 -1.049,-1.773 0.081,-0.403 0.498,-0.619 1.25,-0.646 1.801,-0.269 3.146,-0.604 4.033,-1.008 2.124,-0.807 4.167,-2.286 6.129,-4.437 1.962,-2.151 3.616,-4.638 4.96,-7.46 0.081,-0.135 0.161,-0.242 0.242,-0.323 z" />
          <path
             style="fill:#000000;fill-opacity:1"
             inkscape:connector-curvature="0"
             id="path35"
             d="m 239.8605,409.90118 c 2.204,0 5.095,0.203 8.67,0.604 2.554,0.242 4.651,0.364 6.291,0.364 0.887,0 1.774,-0.054 2.661,-0.161 0.216,0 0.323,0.094 0.323,0.281 0,0.861 -0.216,1.695 -0.646,2.501 -0.484,0.753 -0.954,1.128 -1.411,1.128 -0.403,0 -0.874,-0.094 -1.412,-0.282 -2.446,-0.86 -4.799,-1.438 -7.057,-1.734 -2.016,-0.323 -4.49,-0.484 -7.42,-0.484 -3.603,0.054 -6.533,0.296 -8.791,0.726 -2.313,0.404 -4.302,0.927 -5.968,1.573 -0.646,0.242 -1.089,0.362 -1.331,0.362 -0.968,-0.026 -1.492,-0.443 -1.573,-1.25 0.026,-0.456 0.255,-0.887 0.686,-1.291 0.404,-0.348 0.86,-0.55 1.371,-0.604 7.474,-1.155 12.676,-1.733 15.607,-1.733 z" />
        </g>
        <path
           d="m 143.77415,359.47728 c 0.9697,1.05722 1.80819,1.8629 2.51545,2.41702 0.70722,0.54684 1.37436,0.95514 2.00142,1.22491 l 0,0.49215 c -0.72184,0.34999 -1.4218,0.79839 -2.09985,1.34522 -0.6781,0.53955 -1.48742,1.33429 -2.42796,2.38421 l -0.84213,0 c 0.68535,-1.46552 1.40353,-2.592 2.15454,-3.37945 l -17.4441,0 0,-1.10461 17.4441,0 c -0.55415,-0.70724 -0.94058,-1.2322 -1.15929,-1.57489 -0.21876,-0.34268 -0.54321,-0.9442 -0.97337,-1.80456 l 0.83119,0"
           id="path5098"
           inkscape:connector-curvature="0"
           style="opacity:0.3" />
        <path
           d="m 382.13537,274.01167 c 10.67742,0 24.68306,0.55572 42.00239,1.65349 12.37301,0.66248 22.53207,0.99646 30.47716,0.99646 4.29712,0 8.59425,-0.14782 12.89138,-0.44074 1.04643,0 1.5648,0.25733 1.5648,0.76925 0,2.35704 -1.04643,4.64017 -3.12959,6.84665 -2.34477,2.06139 -4.62171,3.08797 -6.83568,3.08797 -1.95236,0 -4.23415,-0.25733 -6.84053,-0.77199 -11.8498,-2.35431 -23.24907,-3.93662 -34.1881,-4.74694 -9.76664,-0.88423 -21.75211,-1.32498 -35.94668,-1.32498 -17.45498,0.14783 -31.64955,0.81032 -42.58858,1.98748 -11.20548,1.10597 -20.84132,2.53771 -28.91237,4.30618 -3.12959,0.66249 -5.27573,0.991 -6.44812,0.991 -4.68954,-0.0712 -7.22809,-1.21274 -7.6205,-3.42196 0.12596,-1.24832 1.23536,-2.42822 3.32337,-3.53419 1.95721,-0.95268 4.16633,-1.50566 6.64191,-1.65348 36.20828,-3.1619 61.40971,-4.7442 75.60914,-4.7442"
           id="path4007"
           style="opacity:0.5;fill:#00ff00;fill-opacity:1"
           inkscape:connector-curvature="0" />
        <path
           d="m 317.05249,298.1283 c 4.30308,0 21.01956,-0.0206 22.69521,0.0171 -1.93082,-2.34164 -5.06483,-7.03274 -7.11237,-11.95405 1.10292,0.0274 1.9067,-0.0137 2.68158,0.002 1.95276,1.94121 8.31255,9.89368 15.09307,12.9136 0.0274,0.54659 0.003,0.88064 -0.0137,1.73075 -4.4172,2.1995 -9.69835,6.59706 -15.04711,13.13146 -0.78681,0 -1.43176,-0.0466 -2.78289,-0.007 1.92296,-4.91771 5.38882,-9.96892 7.10469,-11.94092 -4.37345,-0.0137 -20.64632,-0.0103 -23.05861,-0.0103 -2.00369,-0.007 -15.25469,-0.048 -16.21828,-0.024 -0.85217,0.0446 -5.42106,0.0422 -6.65048,0.0137 -1.40611,0.024 -5.11853,0.0274 -6.7666,0.0274 -0.85101,0.0206 -4.29554,0.049 -5.30124,0.0172 0.0507,-1.56375 0.0171,-1.48495 0.0377,-2.32357 -0.003,-0.34581 -0.003,-0.72879 -0.0171,-1.54283 2.01534,0.003 34.4957,-0.0425 33.00489,-0.024"
           id="path4009"
           style="opacity:0.5;fill:#ff0000;fill-opacity:1"
           inkscape:connector-curvature="0" />
        <path
           inkscape:connector-curvature="0"
           style="opacity:0.5;fill:#ff0000;fill-opacity:1"
           id="path4070"
           d="m 138.25495,362.85214 c 1.29306,0 6.31625,-0.006 6.81978,0.005 -0.58021,-0.66287 -1.52196,-1.99083 -2.13722,-3.38395 0.33141,0.008 0.57295,-0.004 0.80579,5.7e-4 0.5868,0.54952 2.49788,2.80069 4.53537,3.65557 0.008,0.15472 9.1e-4,0.2493 -0.004,0.48993 -1.32734,0.62263 -2.9143,1.86749 -4.52156,3.71725 -0.23643,0 -0.43024,-0.0131 -0.83624,-0.002 0.57783,-1.3921 1.61931,-2.82199 2.13492,-3.38023 -1.3142,-0.004 -6.2041,-0.003 -6.92898,-0.003 -0.60209,-0.002 -4.58393,-0.0136 -4.87348,-0.007 -0.25608,0.0125 -1.629,0.0119 -1.99843,0.004 -0.42253,0.007 -1.53809,0.008 -2.03331,0.008 -0.25573,0.006 -1.29079,0.0138 -1.593,0.005 0.0153,-0.44266 0.005,-0.42037 0.0114,-0.65775 -9.1e-4,-0.0978 -9.1e-4,-0.20631 -0.005,-0.43675 0.60559,8.5e-4 10.36574,-0.0119 9.91775,-0.007" />
        <path
           d="m 100.42969,374.2623 c 1.13281,-1.43229 2.22656,-3.1901 3.28125,-5.27344 l 6.26953,-12.28516 c -0.66407,-2.60414 -1.28907,-4.43357 -1.875,-5.48828 -0.57293,-1.05466 -1.45834,-1.582 -2.65625,-1.58203 -1.10678,3e-5 -2.16146,0.5469 -3.16406,1.64063 l -0.95703,-1.05469 c 1.79687,-1.96612 3.57421,-2.94919 5.33203,-2.94922 1.22395,3e-5 2.17447,0.35159 2.85156,1.05469 0.67707,0.69013 1.24348,1.7969 1.69922,3.32031 0.45571,1.52346 1.10025,4.46617 1.93359,8.82813 1.08072,5.69011 1.92056,9.28386 2.51953,10.78125 0.61197,1.48437 1.33462,2.22656 2.16797,2.22656 0.59894,0 1.15233,-0.20833 1.66016,-0.625 l 0.74219,1.17187 c -1.28909,1.00261 -2.44794,1.50391 -3.47657,1.50391 -1.45835,0 -2.50001,-0.7487 -3.125,-2.24609 -0.62501,-1.4974 -1.49741,-5.52734 -2.61718,-12.08985 l -0.11719,0 c -2.21355,4.4922 -4.38152,9.16667 -6.50391,14.02344 l -3.96484,0 0,-0.95703"
           id="path4699" />
        <path
           d="m 165.7012277,311.34465700000004 c -0.324267,0.28473 3.676899,-3.16174 4.024809,-3.45849 l 3.190259,-2.72111 c -0.76528,-0.66855 -3.347595,-2.86868 -3.659088,-3.13104 -0.392437,-0.34377 -3.937229,-3.36938 -4.248876,-3.62207 -0.239471,-0.20433 -11.267445,-9.63966 -11.469977,-9.8154 l 15.873602,0.0105 c 2.336689,1.99304 7.275629,6.24163 7.814429,6.66472 0.40576,0.37704 2.3285,2.00739 2.68657,2.33545 0.23775,0.20401 8.43182,7.2095 8.81567,7.51692 0.26629,0.24427 4.33737,3.72621 5.1514,4.42498 1.20816,1.03021 4.35068,3.72297 4.62656,3.97162 0.39727,0.33658 3.33351,2.84946 3.94456,3.37539 0.40044,0.34466 2.72635,2.29407 3.53783,2.99183 l -4.74407,9.48264 c -0.37911,-0.3051 -8.82384,-7.51183 -9.09101,-7.75391 -0.40611,-0.36797 -4.94825,-4.24561 -6.26829,-5.35048 -1.33353,-1.11614 -4.95544,-4.25537 -5.16617,-4.41927 l -0.82678,0.70093 c -0.228,0.20176 -17.375607,14.94737 -19.61497,16.87828 l -15.696562,0.0914 16.283209,-14.00112"
           id="path4701" />
      </g>
    </g>
    <g
       inkscape:label="Layer 1"
       id="g5088"
       transform="matrix(0.52009095,0,0,0.59833121,-45.700721,-47.899402)"
       style="fill:#000000;fill-opacity:1">
      <g
         style="font-size:40px;font-style:normal;font-weight:normal;line-height:125%;letter-spacing:0px;word-spacing:0px;fill:#000000;fill-opacity:1;stroke:none;font-family:Sans"
         id="g5090"
         transform="translate(10.01953,-34.341517)">
        <path
           d="m 100.42969,374.2623 c 1.13281,-1.43229 2.22656,-3.1901 3.28125,-5.27344 l 6.26953,-12.28516 c -0.66407,-2.60414 -1.28907,-4.43357 -1.875,-5.48828 -0.57293,-1.05466 -1.45834,-1.582 -2.65625,-1.58203 -1.10678,3e-5 -2.16146,0.5469 -3.16406,1.64063 l -0.95703,-1.05469 c 1.79687,-1.96612 3.57421,-2.94919 5.33203,-2.94922 1.22395,3e-5 2.17447,0.35159 2.85156,1.05469 0.67707,0.69013 1.24348,1.7969 1.69922,3.32031 0.45571,1.52346 1.10025,4.46617 1.93359,8.82813 1.08072,5.69011 1.92056,9.28386 2.51953,10.78125 0.61197,1.48437 1.33462,2.22656 2.16797,2.22656 0.59894,0 1.15233,-0.20833 1.66016,-0.625 l 0.74219,1.17187 c -1.28909,1.00261 -2.44794,1.50391 -3.47657,1.50391 -1.45835,0 -2.50001,-0.7487 -3.125,-2.24609 -0.62501,-1.4974 -1.49741,-5.52734 -2.61718,-12.08985 l -0.11719,0 c -2.21355,4.4922 -4.38152,9.16667 -6.50391,14.02344 l -3.96484,0 0,-0.95703"
           style="font-variant:normal;font-stretch:normal;font-family:Cambria Math;-inkscape-font-specification:Cambria Math;fill:#000000;fill-opacity:1;opacity:0.3"
           id="path5092"
           inkscape:connector-curvature="0" />
        <path
           d="m 182.75456,220.3924 c -1.84822,-1.72508 -3.55915,-3.21899 -5.14262,-4.49033 -5.79955,-4.82848 -11.66283,-8.28291 -17.58982,-10.35471 -4.61806,-0.91604 -6.92219,-3.16334 -6.92219,-6.73334 0.13236,-4.14359 2.43649,-6.38661 6.92219,-6.72906 1.70603,0.11558 4.0837,1.50248 7.11828,4.1436 14.23168,11.39488 26.55632,22.38312 36.96901,32.97326 18.84484,18.29945 34.19916,30.95711 46.06297,37.97725 9.49106,5.63751 17.531,8.68957 24.11983,9.15187 1.58347,0 2.36785,0.68917 2.36785,2.06751 0,3.79688 -2.36785,7.7136 -7.11828,11.73734 -3.02969,2.5341 -6.06427,3.80115 -9.08905,3.80115 -2.6424,0 -5.53972,-1.0359 -8.70176,-3.11198 -4.48571,-3.21899 -15.4867,-14.26715 -33.01279,-33.14449 -11.20689,-12.30664 -20.69304,-22.32319 -28.46824,-30.0325 l -0.3971,1.03162 c -10.28034,15.76964 -21.55096,29.41182 -33.80697,40.91372 -9.22632,8.86079 -19.90374,16.17202 -32.02738,21.9251 -2.76496,1.15148 -4.6818,1.72508 -5.73092,1.72508 -3.82387,0 -7.7752,-1.96051 -11.85891,-5.87295 -3.43168,-2.87655 -5.14261,-5.40637 -5.14261,-7.58946 0.39709,-1.72507 2.44139,-2.64967 6.128,-2.76525 8.82923,-1.15147 15.42296,-2.58547 19.77139,-4.31482 10.4127,-3.45442 20.42831,-9.78539 30.04681,-18.9929 9.61852,-9.20752 17.72709,-19.85331 24.31593,-31.93309 0.39709,-0.57787 0.78928,-1.0359 1.18638,-1.38262"
           id="path3198"
           style="opacity:0.5;fill:#00ff00;fill-opacity:1"
           inkscape:connector-curvature="0" />
        <path
           d="m 232.35546,203.8257 c -1.29352,-2.38218 -2.63093,-5.61565 -7.66651,-7.52284 -2.55601,-0.52815 -8.9307,-1.58805 -15.37611,5.83455 -1.53626,-1.75353 -2.15061,-2.23169 -3.58485,-3.96671 4.55053,-5.35449 12.2688,-12.04287 23.41704,-10.92666 0,0 5.82921,1.19703 7.93494,4.24115 7.0825,10.48656 6.11368,14.43787 9.62383,27.23792 3.12355,15.05789 8.48715,44.72915 12.09043,55.86059 2.45823,6.82834 4.68004,11.41758 9.58822,11.67844 2.13857,-0.10368 4.38839,-0.97409 6.02211,-2.36372 0,0 0.0919,0.28228 2.81774,4.36864 -2.85573,2.18091 -4.99944,3.36016 -7.12583,4.32402 -2.05427,0.93118 -7.24287,2.51855 -11.8119,0.0341 -6.15235,-3.06714 -7.38922,-10.71007 -10.58546,-24.3727 -0.6394,-2.36042 -3.60728,-18.94374 -5.33689,-28.53726 l -0.47363,0.0113 c -7.04792,14.17625 -7.76795,16.02456 -11.33849,23.5827 -4.74668,10.6429 -8.98754,19.80158 -13.26944,29.44668 -2.78448,0.0114 -5.45866,-0.056 -6.62315,-0.0412 -0.63081,0.008 0.26336,-0.008 -5.54924,0.0227 -0.35758,-5e-4 -2.06202,0.008 -2.78626,7.2e-4 -0.0189,-1.43625 -0.0113,-2.41162 -0.003,-3.578 3.67675,-4.70021 5.72122,-7.83916 9.66875,-14.80717 2.76022,-5.15693 4.53266,-8.6362 9.53199,-18.45286 5.07191,-9.95908 11.67038,-22.6933 16.94809,-33.17924 -0.65813,-2.50815 -2.7396,-10.21923 -3.57122,-12.31421 z"
           id="path3200"
           style="opacity:0.5;fill:#ff0000;fill-opacity:1"
           inkscape:connector-curvature="0" />
        <path
           inkscape:connector-curvature="0"
           style="opacity:0.5;fill:#ff0000;fill-opacity:1"
           id="path4072"
           d="m 108.34693,351.71029 c -0.34287,-0.62974 -0.69736,-1.48451 -2.03208,-1.98868 -0.67749,-0.13962 -2.36717,-0.4198 -4.07557,1.54238 -0.4072,-0.46355 -0.57003,-0.58996 -0.95021,-1.04862 1.20619,-1.41547 3.25196,-3.18355 6.20689,-2.88848 0,0 1.5451,0.31643 2.10323,1.12116 1.87728,2.77215 1.62048,3.81669 2.55088,7.2004 0.82793,3.9806 2.24958,11.82428 3.20468,14.7669 0.65157,1.80509 1.24048,3.01827 2.54143,3.08722 0.56685,-0.0274 1.16319,-0.2575 1.59622,-0.62484 0,0 0.0243,0.0747 0.74687,1.15485 -0.75694,0.57653 -1.32517,0.88826 -1.88876,1.14307 -0.5445,0.24616 -1.9198,0.66578 -3.13086,0.009 -1.63073,-0.81082 -1.95857,-2.83124 -2.80577,-6.44299 -0.16948,-0.62399 -0.95615,-5.00784 -1.41459,-7.54391 l -0.12553,0.003 c -1.86811,3.74752 -2.05897,4.23612 -3.00537,6.23414 -1.25815,2.81348 -2.38221,5.2346 -3.51717,7.78431 -0.73807,0.003 -1.44687,-0.0148 -1.75552,-0.0109 -0.1672,0.002 0.0698,-0.002 -1.47088,0.006 -0.0947,-1.3e-4 -0.54654,0.002 -0.73851,1.9e-4 -0.005,-0.37968 -0.003,-0.63753 -8e-4,-0.94586 0.97455,-1.24251 1.51645,-2.0723 2.56279,-3.9143 0.73161,-1.36325 1.20141,-2.28302 2.52653,-4.87807 1.34435,-2.63272 3.09332,-5.99903 4.49222,-8.77101 -0.17443,-0.66304 -0.72614,-2.70149 -0.94658,-3.2553 z" />
        <path
           d="m 143.77415,359.47728 c 0.9697,1.05722 1.80819,1.8629 2.51545,2.41702 0.70722,0.54684 1.37436,0.95514 2.00142,1.22491 l 0,0.49215 c -0.72184,0.34999 -1.4218,0.79839 -2.09985,1.34522 -0.6781,0.53955 -1.48742,1.33429 -2.42796,2.38421 l -0.84213,0 c 0.68535,-1.46552 1.40353,-2.592 2.15454,-3.37945 l -17.4441,0 0,-1.10461 17.4441,0 c -0.55415,-0.70724 -0.94058,-1.2322 -1.15929,-1.57489 -0.21876,-0.34268 -0.54321,-0.9442 -0.97337,-1.80456 l 0.83119,0"
           id="path4709" />
        <path
           d="m 227.32299,331.37013 c 1.31134,0.006 9.89357,-0.005 10.23738,-0.002 0.58792,0.004 24.99361,0.008 25.69422,0.004 l -11.70643,6.23282 c -1.51453,-0.009 -15.64977,-0.0161 -16.11035,-0.0166 -0.29268,0.001 -10.58327,0.01 -10.85614,0.0127 l -3.66059,-0.004 c -0.32252,-1.7e-4 -5.27211,-0.001 -7.20734,0.002 l -11.18083,-0.006 4.64654,-6.22845 4.71858,-6.1e-4 c 0.42891,-5.6e-4 4.88084,7.2e-4 5.2548,-7.2e-4 0.28414,0.006 3.6344,0.008 3.96628,0.002 l 2.50465,0.009"
           id="path4711" />
      </g>
    </g>
  </g>
</svg>
