<?xml version="1.0" encoding="UTF-8" standalone="no"?>
<!-- Created with Inkscape (http://www.inkscape.org/) -->

<svg
   xmlns:dc="http://purl.org/dc/elements/1.1/"
   xmlns:cc="http://creativecommons.org/ns#"
   xmlns:rdf="http://www.w3.org/1999/02/22-rdf-syntax-ns#"
   xmlns:svg="http://www.w3.org/2000/svg"
   xmlns="http://www.w3.org/2000/svg"
   xmlns:sodipodi="http://sodipodi.sourceforge.net/DTD/sodipodi-0.dtd"
   xmlns:inkscape="http://www.inkscape.org/namespaces/inkscape"
   width="176.23535"
   height="83.842865"
   viewBox="0 0 176.23535 83.842865"
   id="svg10841"
   version="1.1"
   inkscape:version="0.48.2 r9819"
   sodipodi:docname="menu.svg">
  <defs
     id="defs10843" />
  <sodipodi:namedview
     id="base"
     pagecolor="#ffffff"
     bordercolor="#666666"
     borderopacity="1.0"
     inkscape:pageopacity="0.0"
     inkscape:pageshadow="2"
     inkscape:zoom="3.3872595"
     inkscape:cx="72.401324"
     inkscape:cy="24.806396"
     inkscape:document-units="px"
     inkscape:current-layer="layer1"
     showgrid="false"
     inkscape:window-width="1213"
     inkscape:window-height="714"
     inkscape:window-x="99"
     inkscape:window-y="75"
     inkscape:window-maximized="0"
     fit-margin-top="0"
     fit-margin-left="0"
     fit-margin-right="0"
     fit-margin-bottom="0">
    <inkscape:grid
       type="xygrid"
       id="grid10869"
       empspacing="5"
       visible="true"
       enabled="true"
       snapvisiblegridlinesonly="true" />
  </sodipodi:namedview>
  <metadata
     id="metadata10846">
    <rdf:RDF>
      <cc:Work
         rdf:about="">
        <dc:format>image/svg+xml</dc:format>
        <dc:type
           rdf:resource="http://purl.org/dc/dcmitype/StillImage" />
      </cc:Work>
    </rdf:RDF>
  </metadata>
  <g
     inkscape:label="Layer 1"
     inkscape:groupmode="layer"
     id="layer1"
     transform="translate(-1.3144991,5.8392541)">
    <g
       style="font-size:10px;font-style:normal;font-variant:normal;font-weight:normal;font-stretch:normal;line-height:125%;letter-spacing:0px;word-spacing:0px;fill:#000000;fill-opacity:1;stroke:none;font-family:Andale Mono;-inkscape-font-specification:Andale Mono"
       id="text10849">
      <path
         d="m 4.2148897,-1.3275354 -2.9003906,0 0,-0.7421875 2.9003906,0 0,0.7421875"
         style="font-family:Andale Mono;-inkscape-font-specification:Andale Mono"
         id="path12122" />
      <path
         d="m 17.598679,-5.8392541 -0.878906,6.8896484 -0.742188,0 -1.171875,-3.8818359 -1.166992,3.8818359 -0.761719,0 -0.859375,-6.8896484 0.791016,0 0.581054,5.6005859 1.015625,-3.3886719 0.800782,0 1.020507,3.39843752 0.590821,-5.61035152 0.78125,0"
         style="font-family:Andale Mono;-inkscape-font-specification:Andale Mono"
         id="path12124" />
      <path
         d="m 22.77446,1.0503943 -0.761719,0 0,-3.2617188 c -4e-6,-0.4524702 -0.07325,-0.7796183 -0.219726,-0.9814453 -0.143233,-0.2050736 -0.36947,-0.3076126 -0.678711,-0.3076172 -0.465498,4.6e-6 -0.965172,0.2897178 -1.499024,0.8691407 l 0,3.6816406 -0.761718,0 0,-6.8896484 0.761718,0 0,2.5488281 c 0.546873,-0.5794222 1.123044,-0.8691354 1.728516,-0.8691406 0.953772,5.2e-6 1.430659,0.5761765 1.430664,1.7285156 l 0,3.4814453"
         style="font-family:Andale Mono;-inkscape-font-specification:Andale Mono"
         id="path12126" />
      <path
         d="m 26.797898,-4.1595666 c 0.699866,5.2e-6 1.256506,0.2441455 1.669921,0.7324218 0.413407,0.4882853 0.620112,1.1311883 0.620118,1.928711 -6e-6,0.80403817 -0.206711,1.45182399 -0.620118,1.94335935 -0.413415,0.49153657 -0.970055,0.73730455 -1.669921,0.73730465 -0.703128,-1e-7 -1.261395,-0.24414048 -1.674805,-0.73242184 -0.410157,-0.49153537 -0.615235,-1.14094878 -0.615235,-1.94824216 0,-0.8007779 0.206705,-1.4436809 0.620118,-1.928711 0.413409,-0.4882763 0.970049,-0.7324166 1.669922,-0.7324218 m 0,4.67773433 c 0.462236,5.4e-7 0.826819,-0.19531177 1.09375,-0.5859375 0.266922,-0.39062349 0.400386,-0.86425583 0.40039,-1.42089843 -4e-6,-0.5859344 -0.13184,-1.0677047 -0.395508,-1.4453125 -0.263675,-0.3775998 -0.629886,-0.5664017 -1.098632,-0.5664063 -0.472008,4.6e-6 -0.838219,0.1871789 -1.098633,0.5615235 -0.260419,0.3710974 -0.390627,0.8544953 -0.390625,1.4501953 -2e-6,0.56640822 0.131834,1.04329576 0.395508,1.43066406 0.263669,0.38411531 0.628252,0.57617241 1.09375,0.57617187"
         style="font-family:Andale Mono;-inkscape-font-specification:Andale Mono"
         id="path12128" />
      <path
         d="m 40.889694,1.0503943 -0.756836,0 c -0.06185,-0.20507792 -0.09278,-0.47851515 -0.09277,-0.8203125 -0.432947,0.63476581 -1.022139,0.9521483 -1.767578,0.9521484 -0.377606,-1e-7 -0.711265,-0.1334635 -1.000977,-0.40039059 -0.286459,-0.27018175 -0.429688,-0.61686109 -0.429687,-1.04003906 -10e-7,-0.25064949 0.05045,-0.47200343 0.151367,-0.6640625 0.10091,-0.19205515 0.249022,-0.35318775 0.444336,-0.48339845 0.195311,-0.1334609 0.432941,-0.2376275 0.712891,-0.3125 0.279945,-0.078122 0.611976,-0.131833 0.996093,-0.1611328 l 0.854493,-0.068359 0,-0.2441406 c -5e-6,-0.8723917 -0.406905,-1.3085892 -1.220704,-1.3085938 -0.19206,4.6e-6 -0.4362,0.042322 -0.732421,0.1269532 -0.292971,0.081384 -0.54525,0.1790407 -0.756836,0.2929687 l -0.200196,-0.546875 c 0.693358,-0.3548127 1.337888,-0.5322213 1.933594,-0.5322265 1.15885,5.2e-6 1.738276,0.6136113 1.738281,1.8408203 l 0,2.18749997 c -5e-6,0.44270907 0.04231,0.83658889 0.126953,1.18164063 m -0.888671,-1.50878907 0,-0.92285153 c -0.686853,0.061851 -1.158858,0.120445 -1.416016,0.1757812 -0.253909,0.052086 -0.475263,0.1513693 -0.664063,0.29785158 -0.185548,0.14648619 -0.278322,0.3450537 -0.27832,0.59570313 -2e-6,0.22786572 0.07975,0.4117848 0.239258,0.55175781 0.159503,0.13997463 0.362953,0.20996154 0.610351,0.20996094 0.27018,6e-7 0.538734,-0.0797519 0.805665,-0.23925781 0.266923,-0.16275942 0.501298,-0.38574097 0.703125,-0.66894532"
         style="font-family:Andale Mono;-inkscape-font-specification:Andale Mono"
         id="path12130" />
      <path
         d="m 47.159226,1.0503943 -0.761719,0 0,-3.3398438 c -5e-6,-0.8072875 -0.149744,-1.2109329 -0.449219,-1.2109375 -0.152999,4.6e-6 -0.322269,0.1399784 -0.507812,0.4199219 -0.182295,0.2766966 -0.273441,0.4296912 -0.273438,0.4589844 l 0,3.671875 -0.756836,0 0,-3.3398438 c -2e-6,-0.8072875 -0.151369,-1.2109329 -0.454101,-1.2109375 -0.149742,4.6e-6 -0.317385,0.1399784 -0.50293,0.4199219 -0.182293,0.2766966 -0.273439,0.4296912 -0.273438,0.4589844 l 0,3.671875 -0.761718,0 0,-5.0878906 0.732422,0 0,0.7666015 c 0.143227,-0.2701777 0.312498,-0.4850212 0.507812,-0.6445312 0.198566,-0.1627553 0.395506,-0.2441354 0.59082,-0.2441406 0.205076,5.2e-6 0.388995,0.081385 0.551758,0.2441406 0.162757,0.15951 0.275062,0.3743535 0.336914,0.6445312 0.143226,-0.2701777 0.314124,-0.4850212 0.512696,-0.6445312 0.198563,-0.1627553 0.393876,-0.2441354 0.585937,-0.2441406 0.615229,5.2e-6 0.922846,0.5501348 0.922852,1.6503906 l 0,3.5595703"
         style="font-family:Andale Mono;-inkscape-font-specification:Andale Mono"
         id="path12132" />
      <path
         d="m 58.311569,1.0503943 -3.129882,0 0,-0.69824219 1.186523,0 0,-5.49316411 -1.186523,0 0,-0.6982421 3.129882,0 0,0.6982421 -1.142578,0 0,5.49316411 1.142578,0 0,0.69824219"
         style="font-family:Andale Mono;-inkscape-font-specification:Andale Mono"
         id="path12134" />
      <path
         d="m 4.2148897,11.172465 -2.9003906,0 0,-0.742188 2.9003906,0 0,0.742188"
         style="font-family:Andale Mono;-inkscape-font-specification:Andale Mono"
         id="path12136" />
      <path
         d="m 17.02739,13.550394 -0.771485,0 0,-5.9082028 -1.040039,2.8271488 -0.756836,0 -1.040039,-2.8271488 0,5.9082028 -0.771484,0 0,-6.8896481 1.040039,0 1.152344,3.1396484 1.147461,-3.1396484 1.040039,0 0,6.8896481"
         style="font-family:Andale Mono;-inkscape-font-specification:Andale Mono"
         id="path12138" />
      <path
         d="m 22.925827,11.030863 -3.491211,0 c -10e-7,0.576174 0.166014,1.051434 0.498047,1.425781 0.335284,0.37435 0.74544,0.561524 1.230469,0.561524 0.462236,0 0.939123,-0.08301 1.430664,-0.249024 l 0.131836,0.610352 c -0.449223,0.201823 -0.973311,0.302734 -1.572266,0.302734 -0.755211,0 -1.363934,-0.242513 -1.826172,-0.727539 -0.46224,-0.485025 -0.69336,-1.139321 -0.693359,-1.96289 -1e-6,-0.807289 0.206705,-1.4501918 0.620117,-1.9287114 0.416665,-0.4817659 0.953774,-0.722651 1.611328,-0.7226562 0.585934,5.2e-6 1.075843,0.2229867 1.469727,0.6689453 0.393875,0.4459676 0.590815,1.0400423 0.59082,1.7822263 l 0,0.239258 m -0.830078,-0.620117 c -4e-6,-0.397132 -0.123702,-0.7307905 -0.371094,-1.0009767 -0.247399,-0.2734331 -0.524092,-0.4101517 -0.830078,-0.4101563 -0.393883,4.6e-6 -0.721031,0.1302128 -0.981445,0.390625 -0.257163,0.2604206 -0.400392,0.6005895 -0.429688,1.020508 l 2.612305,0"
         style="font-family:Andale Mono;-inkscape-font-specification:Andale Mono"
         id="path12140" />
      <path
         d="m 28.897507,13.550394 -0.756836,0 c -0.06185,-0.205078 -0.09278,-0.478515 -0.09277,-0.820312 -0.432947,0.634766 -1.022139,0.952148 -1.767579,0.952148 -0.377606,0 -0.711264,-0.133463 -1.000976,-0.40039 -0.28646,-0.270182 -0.429689,-0.616861 -0.429688,-1.040039 -10e-7,-0.25065 0.05046,-0.472004 0.151368,-0.664063 0.10091,-0.192055 0.249022,-0.353188 0.444335,-0.483398 0.195311,-0.133461 0.432941,-0.237628 0.712891,-0.3125 0.279945,-0.07812 0.611976,-0.131833 0.996094,-0.161133 l 0.854492,-0.06836 0,-0.24414 c -4e-6,-0.8723919 -0.406905,-1.3085894 -1.220703,-1.308594 -0.19206,4.6e-6 -0.436201,0.042322 -0.732422,0.1269532 -0.292971,0.081385 -0.545249,0.1790407 -0.756836,0.2929687 l -0.200195,-0.546875 c 0.693357,-0.3548127 1.337888,-0.5322213 1.933594,-0.5322265 1.158849,5.2e-6 1.738276,0.6136113 1.738281,1.8408206 l 0,2.1875 c -5e-6,0.442709 0.04231,0.836589 0.126953,1.18164 m -0.888672,-1.508789 0,-0.922851 c -0.686852,0.06185 -1.158857,0.120445 -1.416016,0.175781 -0.253908,0.05208 -0.475262,0.151369 -0.664062,0.297851 -0.185549,0.146487 -0.278322,0.345054 -0.27832,0.595704 -2e-6,0.227865 0.07975,0.411784 0.239257,0.551757 0.159503,0.139975 0.362954,0.209962 0.610352,0.209961 0.270179,10e-7 0.538734,-0.07975 0.805664,-0.239257 0.266923,-0.16276 0.501298,-0.385741 0.703125,-0.668946"
         style="font-family:Andale Mono;-inkscape-font-specification:Andale Mono"
         id="path12142" />
      <path
         d="m 34.766648,13.550394 -0.761719,0 0,-3.261718 c -4e-6,-0.4524707 -0.07325,-0.7796188 -0.219727,-0.9814458 -0.143233,-0.2050736 -0.36947,-0.3076126 -0.678711,-0.3076172 -0.465497,4.6e-6 -0.965171,0.2897178 -1.499023,0.8691407 l 0,3.6816403 -0.761719,0 0,-5.0878903 0.761719,0 0,0.7470703 c 0.546872,-0.5794222 1.123044,-0.8691354 1.728515,-0.8691406 0.953772,5.2e-6 1.43066,0.5761765 1.430665,1.7285156 l 0,3.481445"
         style="font-family:Andale Mono;-inkscape-font-specification:Andale Mono"
         id="path12144" />
      <path
         d="m 39.122116,6.5386755 c 0.143226,7.1e-6 0.265296,0.05209 0.366211,0.15625 0.100908,0.1009183 0.151364,0.2229884 0.151367,0.366211 -3e-6,0.1497459 -0.05046,0.2750713 -0.151367,0.3759765 -0.09766,0.1009175 -0.21973,0.1513732 -0.366211,0.1513672 -0.133466,6e-6 -0.252281,-0.052077 -0.356445,-0.15625 -0.100914,-0.1074156 -0.15137,-0.2311134 -0.151367,-0.3710937 -3e-6,-0.1399673 0.05045,-0.2620375 0.151367,-0.366211 0.104164,-0.1041597 0.222979,-0.1562429 0.356445,-0.15625 m 0.371094,7.0117185 -0.761719,0 0,-4.4287106 -1.499023,0 0,-0.6591797 2.260742,0 0,5.0878903"
         style="font-family:Andale Mono;-inkscape-font-specification:Andale Mono"
         id="path12146" />
      <path
         d="m 46.758835,13.550394 -0.761719,0 0,-3.261718 C 45.997112,9.8362053 45.92387,9.5090572 45.77739,9.3072302 45.634157,9.1021566 45.40792,8.9996176 45.098679,8.999613 c -0.465498,4.6e-6 -0.965172,0.2897178 -1.499024,0.8691407 l 0,3.6816403 -0.761718,0 0,-5.0878903 0.761718,0 0,0.7470703 c 0.546873,-0.5794222 1.123044,-0.8691354 1.728516,-0.8691406 0.953772,5.2e-6 1.430659,0.5761765 1.430664,1.7285156 l 0,3.481445"
         style="font-family:Andale Mono;-inkscape-font-specification:Andale Mono"
         id="path12148" />
      <path
         d="m 50.245163,11.631449 c -0.475262,0.231121 -0.712892,0.434572 -0.71289,0.610352 -2e-6,0.0944 0.05371,0.174154 0.161132,0.239257 0.110675,0.06511 0.260415,0.09766 0.449219,0.09766 l 1.713867,-0.04883 c 0.406897,2e-6 0.722652,0.09929 0.947266,0.297852 0.227859,0.198568 0.341791,0.480144 0.341797,0.844727 -6e-6,0.576171 -0.257167,1.035155 -0.771485,1.376953 -0.514327,0.341795 -1.114912,0.512693 -1.801757,0.512695 -0.563154,-2e-6 -1.023765,-0.118817 -1.381836,-0.356445 -0.358074,-0.234377 -0.537111,-0.538738 -0.53711,-0.913086 -10e-7,-0.406902 0.276692,-0.750326 0.830078,-1.030274 -0.458985,-0.214843 -0.688477,-0.478514 -0.688476,-0.791015 -10e-7,-0.358072 0.296222,-0.69173 0.888672,-1.000977 -0.273439,-0.166013 -0.4834,-0.380857 -0.629883,-0.644531 -0.146486,-0.263669 -0.219728,-0.541989 -0.219727,-0.834961 -10e-7,-0.4785116 0.16276,-0.8707638 0.488282,-1.1767578 0.325519,-0.3092398 0.732419,-0.463862 1.220703,-0.4638672 0.351559,5.2e-6 0.668942,0.073247 0.952148,0.2197265 l 1.508789,-0.2294921 0,0.7421875 -0.971679,0 c 0.146479,0.2571656 0.219722,0.5598997 0.219726,0.9082031 -4e-6,0.462243 -0.161137,0.852867 -0.483398,1.171875 -0.32227,0.319012 -0.730798,0.478518 -1.225586,0.478516 -0.10417,2e-6 -0.203453,-0.0033 -0.297852,-0.0098 m 0.297852,-0.581055 c 0.279945,3e-6 0.507809,-0.09603 0.683593,-0.288086 0.179033,-0.195309 0.268551,-0.449215 0.268555,-0.761718 -4e-6,-0.3287726 -0.08627,-0.5859338 -0.258789,-0.7714848 -0.172529,-0.1855423 -0.403649,-0.2783157 -0.693359,-0.2783203 -0.270185,4.6e-6 -0.498049,0.097661 -0.683594,0.2929688 -0.182294,0.1920614 -0.273439,0.4443398 -0.273438,0.7568363 -10e-7,0.305992 0.09114,0.558271 0.273438,0.756836 0.185545,0.195315 0.413409,0.292971 0.683594,0.292968 m 0.0293,3.920899 c 0.501298,-2e-6 0.92773,-0.112306 1.279296,-0.336914 0.354814,-0.221355 0.532222,-0.49642 0.532227,-0.825196 -5e-6,-0.338541 -0.250655,-0.507812 -0.751953,-0.507812 -0.166019,0 -0.452477,0.0098 -0.859375,0.0293 -0.257164,0.01302 -0.458987,0.01953 -0.605469,0.01953 -0.07162,0 -0.183921,0.05859 -0.336914,0.175781 -0.149741,0.117188 -0.265301,0.234375 -0.34668,0.351563 -0.07813,0.120442 -0.117189,0.24414 -0.117187,0.371093 -2e-6,0.198567 0.110675,0.367838 0.332031,0.507813 0.221352,0.143228 0.512693,0.214842 0.874024,0.214844"
         style="font-family:Andale Mono;-inkscape-font-specification:Andale Mono"
         id="path12150" />
      <path
         d="m 62.77446,8.3404334 c 0.699866,5.2e-6 1.256506,0.2441455 1.669922,0.7324218 0.413406,0.4882853 0.620112,1.1311878 0.620117,1.9287108 -5e-6,0.804038 -0.206711,1.451824 -0.620117,1.94336 -0.413416,0.491536 -0.970056,0.737304 -1.669922,0.737304 -0.703127,0 -1.261395,-0.24414 -1.674805,-0.732422 -0.410157,-0.491535 -0.615235,-1.140948 -0.615234,-1.948242 -10e-7,-0.800778 0.206705,-1.4436807 0.620117,-1.9287108 0.41341,-0.4882763 0.97005,-0.7324166 1.669922,-0.7324218 m 0,4.6777346 c 0.462236,0 0.826819,-0.195312 1.09375,-0.585938 0.266923,-0.390623 0.400386,-0.864256 0.400391,-1.420898 -5e-6,-0.585935 -0.131841,-1.0677049 -0.395508,-1.4453127 C 63.609417,9.1884195 63.243207,8.9996176 62.77446,8.999613 c -0.472008,4.6e-6 -0.838218,0.1871789 -1.098633,0.5615235 -0.260418,0.3710974 -0.390626,0.8544955 -0.390625,1.4501955 -10e-7,0.566408 0.131835,1.043296 0.395508,1.430664 0.26367,0.384115 0.628253,0.576172 1.09375,0.576172"
         style="font-family:Andale Mono;-inkscape-font-specification:Andale Mono"
         id="path12152" />
      <path
         d="M 70.792038,6.7388709 70.591843,7.358988 c -0.361333,-0.1041603 -0.685226,-0.1562436 -0.97168,-0.15625 -0.273441,6.4e-6 -0.462243,0.078131 -0.566406,0.234375 -0.100915,0.1530008 -0.15137,0.4638729 -0.151367,0.9326172 l 0,0.092773 1.708984,0 0,0.6591797 -1.708984,0 0,4.4287106 -0.761719,0 0,-4.4287106 -1.279297,0 0,-0.6591797 1.279297,0 0,-0.1708985 c -2e-6,-0.6477805 0.110675,-1.1018816 0.332031,-1.3623047 0.221351,-0.2604097 0.603838,-0.3906179 1.147461,-0.390625 0.351558,7.1e-6 0.742183,0.066739 1.171875,0.2001954"
         style="font-family:Andale Mono;-inkscape-font-specification:Andale Mono"
         id="path12154" />
      <path
         d="m 81.094773,6.5386755 c 0.143225,7.1e-6 0.265295,0.05209 0.36621,0.15625 0.100908,0.1009183 0.151364,0.2229884 0.151368,0.366211 -4e-6,0.1497459 -0.05046,0.2750713 -0.151368,0.3759765 -0.09766,0.1009175 -0.21973,0.1513732 -0.36621,0.1513672 -0.133467,6e-6 -0.252282,-0.052077 -0.356446,-0.15625 -0.100914,-0.1074156 -0.15137,-0.2311134 -0.151367,-0.3710937 -3e-6,-0.1399673 0.05045,-0.2620375 0.151367,-0.366211 0.104164,-0.1041597 0.222979,-0.1562429 0.356446,-0.15625 m 0.371093,7.0117185 -0.761718,0 0,-4.4287106 -1.499024,0 0,-0.6591797 2.260742,0 0,5.0878903"
         style="font-family:Andale Mono;-inkscape-font-specification:Andale Mono"
         id="path12156" />
      <path
         d="m 88.360398,13.550394 -2.080079,0 0,-6.2304685 -1.328125,0 0,-0.6591796 2.089844,0 0,6.2304691 1.31836,0 0,0.659179"
         style="font-family:Andale Mono;-inkscape-font-specification:Andale Mono"
         id="path12158" />
      <path
         d="m 94.356491,13.550394 -2.080078,0 0,-6.2304685 -1.328125,0 0,-0.6591796 2.089844,0 0,6.2304691 1.318359,0 0,0.659179"
         style="font-family:Andale Mono;-inkscape-font-specification:Andale Mono"
         id="path12160" />
      <path
         d="m 99.083054,6.5386755 c 0.143225,7.1e-6 0.265296,0.05209 0.366211,0.15625 0.100907,0.1009183 0.151363,0.2229884 0.151367,0.366211 -4e-6,0.1497459 -0.05046,0.2750713 -0.151367,0.3759765 -0.09766,0.1009175 -0.21973,0.1513732 -0.366211,0.1513672 -0.133467,6e-6 -0.252282,-0.052077 -0.356446,-0.15625 -0.100914,-0.1074156 -0.15137,-0.2311134 -0.151367,-0.3710937 -3e-6,-0.1399673 0.05045,-0.2620375 0.151367,-0.366211 0.104164,-0.1041597 0.222979,-0.1562429 0.356446,-0.15625 m 0.371094,7.0117185 -0.761719,0 0,-4.4287106 -1.499024,0 0,-0.6591797 2.260743,0 0,5.0878903"
         style="font-family:Andale Mono;-inkscape-font-specification:Andale Mono"
         id="path12162" />
      <path
         d="m 106.14848,11.172465 -2.90039,0 0,-0.742188 2.90039,0 0,0.742188"
         style="font-family:Andale Mono;-inkscape-font-specification:Andale Mono"
         id="path12164" />
      <path
         d="m 111.07524,6.5386755 c 0.14323,7.1e-6 0.2653,0.05209 0.36621,0.15625 0.10091,0.1009183 0.15137,0.2229884 0.15137,0.366211 0,0.1497459 -0.0505,0.2750713 -0.15137,0.3759765 -0.0977,0.1009175 -0.21973,0.1513732 -0.36621,0.1513672 -0.13347,6e-6 -0.25228,-0.052077 -0.35644,-0.15625 -0.10092,-0.1074156 -0.15137,-0.2311134 -0.15137,-0.3710937 0,-0.1399673 0.0504,-0.2620375 0.15137,-0.366211 0.10416,-0.1041597 0.22297,-0.1562429 0.35644,-0.15625 m 0.3711,7.0117185 -0.76172,0 0,-4.4287106 -1.49903,0 0,-0.6591797 2.26075,0 0,5.0878903"
         style="font-family:Andale Mono;-inkscape-font-specification:Andale Mono"
         id="path12166" />
      <path
         d="m 118.69243,13.379496 c -0.44271,0.201823 -0.92937,0.302734 -1.45996,0.302734 -0.80079,0 -1.44043,-0.242513 -1.91895,-0.727539 -0.47526,-0.48828 -0.71289,-1.136066 -0.71289,-1.943359 0,-0.807289 0.23926,-1.4534467 0.71778,-1.9384768 0.48176,-0.4882763 1.11327,-0.7324166 1.89453,-0.7324218 0.51106,5.2e-6 0.99771,0.089523 1.45996,0.2685546 l -0.2002,0.6298829 c -0.46224,-0.1595008 -0.87891,-0.2392533 -1.25,-0.2392579 -0.5599,4.6e-6 -1.00423,0.1806685 -1.33301,0.5419922 -0.32552,0.3613318 -0.48828,0.8512398 -0.48828,1.4697268 0,0.566408 0.16927,1.043296 0.50782,1.430664 0.33853,0.384115 0.77962,0.576172 1.32324,0.576172 0.42968,0 0.87239,-0.08301 1.32812,-0.249024 l 0.13184,0.610352"
         style="font-family:Andale Mono;-inkscape-font-specification:Andale Mono"
         id="path12168" />
      <path
         d="m 124.70805,13.550394 -0.76171,0 0,-3.261718 c -1e-5,-0.4524707 -0.0733,-0.7796188 -0.21973,-0.9814458 -0.14323,-0.2050736 -0.36947,-0.3076126 -0.67871,-0.3076172 -0.4655,4.6e-6 -0.96517,0.2897178 -1.49903,0.8691407 l 0,3.6816403 -0.76171,0 0,-6.8896481 0.76171,0 0,2.5488281 c 0.54688,-0.5794222 1.12305,-0.8691354 1.72852,-0.8691406 0.95377,5.2e-6 1.43066,0.5761765 1.43066,1.7285156 l 0,3.481445"
         style="font-family:Andale Mono;-inkscape-font-specification:Andale Mono"
         id="path12170" />
      <path
         d="m 129.06352,6.5386755 c 0.14323,7.1e-6 0.2653,0.05209 0.36621,0.15625 0.10091,0.1009183 0.15137,0.2229884 0.15137,0.366211 0,0.1497459 -0.0505,0.2750713 -0.15137,0.3759765 -0.0977,0.1009175 -0.21973,0.1513732 -0.36621,0.1513672 -0.13346,6e-6 -0.25228,-0.052077 -0.35644,-0.15625 -0.10092,-0.1074156 -0.15137,-0.2311134 -0.15137,-0.3710937 0,-0.1399673 0.0504,-0.2620375 0.15137,-0.366211 0.10416,-0.1041597 0.22298,-0.1562429 0.35644,-0.15625 m 0.3711,7.0117185 -0.76172,0 0,-4.4287106 -1.49903,0 0,-0.6591797 2.26075,0 0,5.0878903"
         style="font-family:Andale Mono;-inkscape-font-specification:Andale Mono"
         id="path12172" />
      <path
         d="m 4.2148897,23.672465 -2.9003906,0 0,-0.742188 2.9003906,0 0,0.742188"
         style="font-family:Andale Mono;-inkscape-font-specification:Andale Mono"
         id="path12174" />
      <path
         d="m 16.275437,19.922465 c -0.410161,-0.139968 -0.799158,-0.209955 -1.166993,-0.209961 -0.416669,6e-6 -0.756838,0.09604 -1.020507,0.288086 -0.260419,0.188808 -0.390627,0.45899 -0.390625,0.810546 -2e-6,0.416672 0.343422,0.782883 1.030273,1.098633 0.507809,0.234379 0.843095,0.397139 1.005859,0.488282 0.166012,0.09115 0.333655,0.216474 0.50293,0.375976 0.169266,0.159508 0.304357,0.34831 0.405274,0.566406 0.104161,0.214847 0.156245,0.457359 0.15625,0.727539 -5e-6,0.670575 -0.226242,1.191407 -0.678711,1.5625 -0.449223,0.367839 -0.979821,0.551758 -1.591797,0.551758 -0.59245,0 -1.111656,-0.117187 -1.557617,-0.351562 l 0.166015,-0.688477 c 0.524087,0.237631 0.981443,0.356446 1.37207,0.356445 0.455726,10e-7 0.820309,-0.117186 1.09375,-0.351562 0.276689,-0.237629 0.415035,-0.56315 0.41504,-0.976563 -5e-6,-0.305987 -0.08952,-0.564776 -0.268555,-0.776367 -0.17904,-0.214841 -0.509444,-0.432939 -0.991211,-0.654297 -0.494794,-0.227861 -0.815432,-0.382483 -0.961914,-0.463867 -0.143231,-0.08463 -0.28646,-0.200191 -0.429688,-0.346679 -0.14323,-0.146481 -0.253907,-0.310868 -0.332031,-0.493165 -0.07813,-0.182286 -0.117189,-0.380854 -0.117187,-0.595703 -2e-6,-0.569655 0.205076,-1.013991 0.615234,-1.333007 0.410154,-0.319004 0.929359,-0.478509 1.557617,-0.478516 0.458981,7e-6 0.914709,0.06999 1.367188,0.209961 l -0.180664,0.683594"
         style="font-family:Andale Mono;-inkscape-font-specification:Andale Mono"
         id="path12176" />
      <path
         d="m 22.77446,26.050394 -0.761719,0 0,-3.261718 c -4e-6,-0.452471 -0.07325,-0.779619 -0.219726,-0.981446 -0.143233,-0.205073 -0.36947,-0.307612 -0.678711,-0.307617 -0.465498,5e-6 -0.965172,0.289718 -1.499024,0.869141 l 0,3.68164 -0.761718,0 0,-6.889648 0.761718,0 0,2.548828 c 0.546873,-0.579422 1.123044,-0.869135 1.728516,-0.869141 0.953772,6e-6 1.430659,0.576177 1.430664,1.728516 l 0,3.481445"
         style="font-family:Andale Mono;-inkscape-font-specification:Andale Mono"
         id="path12178" />
      <path
         d="m 26.797898,20.840433 c 0.699866,6e-6 1.256506,0.244146 1.669921,0.732422 0.413407,0.488285 0.620112,1.131188 0.620118,1.928711 -6e-6,0.804038 -0.206711,1.451824 -0.620118,1.94336 -0.413415,0.491536 -0.970055,0.737304 -1.669921,0.737304 -0.703128,0 -1.261395,-0.24414 -1.674805,-0.732422 -0.410157,-0.491535 -0.615235,-1.140948 -0.615235,-1.948242 0,-0.800778 0.206705,-1.443681 0.620118,-1.928711 0.413409,-0.488276 0.970049,-0.732416 1.669922,-0.732422 m 0,4.677735 c 0.462236,0 0.826819,-0.195312 1.09375,-0.585938 0.266922,-0.390623 0.400386,-0.864256 0.40039,-1.420898 -4e-6,-0.585935 -0.13184,-1.067705 -0.395508,-1.445313 -0.263675,-0.3776 -0.629886,-0.566401 -1.098632,-0.566406 -0.472008,5e-6 -0.838219,0.187179 -1.098633,0.561523 -0.260419,0.371098 -0.390627,0.854496 -0.390625,1.450196 -2e-6,0.566408 0.131834,1.043296 0.395508,1.430664 0.263669,0.384115 0.628252,0.576172 1.09375,0.576172"
         style="font-family:Andale Mono;-inkscape-font-specification:Andale Mono"
         id="path12180" />
      <path
         d="m 35.367233,20.962504 -0.732421,5.08789 -0.581055,0 -1.196289,-2.880859 -1.201172,2.880859 -0.581055,0 -0.717773,-5.08789 0.756836,0 c 0.27018,2.376304 0.410154,3.623048 0.419922,3.740234 l 0.932617,-2.211914 0.78125,0 0.927734,2.197266 0.410156,-3.725586 0.78125,0"
         style="font-family:Andale Mono;-inkscape-font-specification:Andale Mono"
         id="path12182" />
      <path
         d="m 47.017624,25.620707 c -0.540369,0.374349 -1.166996,0.561523 -1.879883,0.561523 -0.891929,0 -1.57064,-0.305989 -2.036133,-0.917969 -0.46224,-0.611977 -0.69336,-1.497393 -0.693359,-2.65625 -10e-7,-1.119787 0.224609,-1.995437 0.673828,-2.626953 0.449217,-0.634759 1.134438,-0.952141 2.055664,-0.952148 0.332028,7e-6 0.660804,0.04233 0.986328,0.126953 0.325517,0.08464 0.587561,0.196947 0.786133,0.336914 L 46.64653,20.12266 c -0.458988,-0.260411 -0.961918,-0.390619 -1.508789,-0.390625 -0.634768,6e-6 -1.106773,0.231126 -1.416015,0.693359 -0.309247,0.45899 -0.463869,1.186528 -0.463868,2.182617 -10e-7,1.914065 0.626626,2.871095 1.879883,2.871094 0.530595,1e-6 1.074215,-0.162759 1.63086,-0.488281 l 0.249023,0.629883"
         style="font-family:Andale Mono;-inkscape-font-specification:Andale Mono"
         id="path12184" />
      <path
         d="m 50.782273,20.840433 c 0.699866,6e-6 1.256506,0.244146 1.669921,0.732422 0.413407,0.488285 0.620112,1.131188 0.620118,1.928711 -6e-6,0.804038 -0.206711,1.451824 -0.620118,1.94336 -0.413415,0.491536 -0.970055,0.737304 -1.669921,0.737304 -0.703128,0 -1.261395,-0.24414 -1.674805,-0.732422 -0.410157,-0.491535 -0.615235,-1.140948 -0.615235,-1.948242 0,-0.800778 0.206705,-1.443681 0.620118,-1.928711 0.413409,-0.488276 0.970049,-0.732416 1.669922,-0.732422 m 0,4.677735 c 0.462236,0 0.826819,-0.195312 1.09375,-0.585938 0.266922,-0.390623 0.400386,-0.864256 0.40039,-1.420898 -4e-6,-0.585935 -0.13184,-1.067705 -0.395508,-1.445313 -0.263675,-0.3776 -0.629886,-0.566401 -1.098632,-0.566406 -0.472008,5e-6 -0.838219,0.187179 -1.098633,0.561523 -0.260419,0.371098 -0.390627,0.854496 -0.390625,1.450196 -2e-6,0.566408 0.131834,1.043296 0.395508,1.430664 0.263669,0.384115 0.628252,0.576172 1.09375,0.576172"
         style="font-family:Andale Mono;-inkscape-font-specification:Andale Mono"
         id="path12186" />
      <path
         d="m 58.731491,26.050394 -0.761718,0 0,-0.732422 c -0.156255,0.250652 -0.380864,0.457357 -0.673829,0.620118 -0.289716,0.16276 -0.595706,0.24414 -0.917968,0.24414 -0.582685,0 -1.043296,-0.258789 -1.381836,-0.776367 -0.338543,-0.520832 -0.507814,-1.180011 -0.507813,-1.977539 -10e-7,-0.745439 0.175781,-1.362301 0.527344,-1.850586 0.354816,-0.491531 0.823566,-0.737299 1.40625,-0.737305 0.641273,6e-6 1.157223,0.260422 1.547852,0.78125 l 0,-2.460937 0.761718,0 0,6.889648 m -0.761718,-1.557617 0,-2.114258 c -0.364588,-0.585933 -0.80404,-0.878901 -1.31836,-0.878906 -0.419924,5e-6 -0.751955,0.187179 -0.996094,0.561523 -0.244142,0.371098 -0.366212,0.841475 -0.366211,1.411133 -10e-7,0.58594 0.113931,1.070965 0.341797,1.455078 0.231118,0.380861 0.546873,0.57129 0.947266,0.571289 0.192054,10e-7 0.385739,-0.05208 0.581055,-0.15625 0.195309,-0.104165 0.379228,-0.260415 0.551757,-0.46875 0.172522,-0.208331 0.258785,-0.335284 0.25879,-0.380859"
         style="font-family:Andale Mono;-inkscape-font-specification:Andale Mono"
         id="path12188" />
      <path
         d="m 64.898483,23.530863 -3.49121,0 c -2e-6,0.576174 0.166013,1.051434 0.498046,1.425781 0.335284,0.37435 0.74544,0.561524 1.230469,0.561524 0.462236,0 0.939123,-0.08301 1.430664,-0.249024 l 0.131836,0.610352 c -0.449223,0.201823 -0.973311,0.302734 -1.572265,0.302734 -0.755211,0 -1.363935,-0.242513 -1.826172,-0.727539 -0.462241,-0.485025 -0.693361,-1.139321 -0.69336,-1.96289 -10e-7,-0.807289 0.206705,-1.450192 0.620117,-1.928711 0.416665,-0.481766 0.953774,-0.722651 1.611329,-0.722657 0.585933,6e-6 1.075842,0.222987 1.469726,0.668946 0.393875,0.445967 0.590815,1.040042 0.59082,1.782226 l 0,0.239258 m -0.830078,-0.620117 c -4e-6,-0.397132 -0.123702,-0.730791 -0.371093,-1.000977 -0.2474,-0.273433 -0.524092,-0.410151 -0.830079,-0.410156 -0.393882,5e-6 -0.721031,0.130213 -0.981445,0.390625 -0.257163,0.260421 -0.400392,0.60059 -0.429687,1.020508 l 2.612304,0"
         style="font-family:Andale Mono;-inkscape-font-specification:Andale Mono"
         id="path12190" />
      <path
         d="m 76.446335,27.070902 -0.297852,0.419922 c -0.725915,-0.550131 -1.2793,-1.189779 -1.660156,-1.918945 -0.380862,-0.729166 -0.571291,-1.499022 -0.571289,-2.309571 -2e-6,-0.817053 0.1888,-1.586909 0.566406,-2.30957 0.377601,-0.725906 0.932614,-1.363926 1.665039,-1.914062 l 0.297852,0.419921 c -0.595707,0.533861 -1.025394,1.093756 -1.289062,1.679688 -0.26042,0.582687 -0.390628,1.287438 -0.390625,2.114258 -3e-6,0.856121 0.135088,1.577149 0.405273,2.163086 0.273434,0.582682 0.698238,1.134439 1.274414,1.655273"
         style="font-family:Andale Mono;-inkscape-font-specification:Andale Mono"
         id="path12192" />
      <path
         d="m 80.762741,20.840433 c 0.699866,6e-6 1.256506,0.244146 1.669922,0.732422 0.413407,0.488285 0.620112,1.131188 0.620117,1.928711 -5e-6,0.804038 -0.20671,1.451824 -0.620117,1.94336 -0.413416,0.491536 -0.970056,0.737304 -1.669922,0.737304 -0.703127,0 -1.261395,-0.24414 -1.674804,-0.732422 -0.410158,-0.491535 -0.615236,-1.140948 -0.615235,-1.948242 -10e-7,-0.800778 0.206705,-1.443681 0.620117,-1.928711 0.41341,-0.488276 0.97005,-0.732416 1.669922,-0.732422 m 0,4.677735 c 0.462236,0 0.826819,-0.195312 1.09375,-0.585938 0.266923,-0.390623 0.400386,-0.864256 0.400391,-1.420898 -5e-6,-0.585935 -0.13184,-1.067705 -0.395508,-1.445313 -0.263676,-0.3776 -0.629886,-0.566401 -1.098633,-0.566406 -0.472007,5e-6 -0.838218,0.187179 -1.098633,0.561523 -0.260418,0.371098 -0.390626,0.854496 -0.390625,1.450196 -10e-7,0.566408 0.131835,1.043296 0.395508,1.430664 0.26367,0.384115 0.628253,0.576172 1.09375,0.576172"
         style="font-family:Andale Mono;-inkscape-font-specification:Andale Mono"
         id="path12194" />
      <path
         d="m 85.572312,21.621683 c 0.169268,-0.23437 0.397133,-0.423172 0.683593,-0.566406 0.289711,-0.143224 0.594073,-0.214838 0.913086,-0.214844 0.585934,6e-6 1.044918,0.242518 1.376953,0.727539 0.335282,0.481775 0.502925,1.11003 0.50293,1.884766 -5e-6,0.781252 -0.175786,1.432293 -0.527344,1.953125 -0.348311,0.517578 -0.818689,0.776367 -1.411132,0.776367 -0.315759,0 -0.611982,-0.07813 -0.888672,-0.234375 -0.27344,-0.159505 -0.489911,-0.369465 -0.649414,-0.629883 l 0,2.744141 -0.761719,0 0,-7.099609 0.761719,0 0,0.659179 m 0,0.756836 0,2.114258 c 0.143227,0.28646 0.336911,0.525717 0.581054,0.717774 0.244138,0.192057 0.496417,0.288086 0.756836,0.288085 0.410153,10e-7 0.735673,-0.192056 0.976563,-0.576171 0.244136,-0.384113 0.366206,-0.861001 0.366211,-1.430664 -5e-6,-0.585935 -0.115565,-1.06445 -0.34668,-1.435547 -0.231124,-0.37109 -0.553389,-0.556636 -0.966797,-0.556641 -0.537112,5e-6 -0.992841,0.292973 -1.367187,0.878906"
         style="font-family:Andale Mono;-inkscape-font-specification:Andale Mono"
         id="path12196" />
      <path
         d="m 94.878952,23.530863 -3.491211,0 c -1e-6,0.576174 0.166014,1.051434 0.498047,1.425781 0.335284,0.37435 0.74544,0.561524 1.230469,0.561524 0.462236,0 0.939123,-0.08301 1.430664,-0.249024 l 0.131836,0.610352 c -0.449223,0.201823 -0.973311,0.302734 -1.572266,0.302734 -0.755211,0 -1.363934,-0.242513 -1.826172,-0.727539 -0.46224,-0.485025 -0.69336,-1.139321 -0.693359,-1.96289 -1e-6,-0.807289 0.206705,-1.450192 0.620117,-1.928711 0.416665,-0.481766 0.953774,-0.722651 1.611328,-0.722657 0.585934,6e-6 1.075843,0.222987 1.469727,0.668946 0.393875,0.445967 0.590815,1.040042 0.59082,1.782226 l 0,0.239258 m -0.830078,-0.620117 c -4e-6,-0.397132 -0.123702,-0.730791 -0.371094,-1.000977 -0.247399,-0.273433 -0.524092,-0.410151 -0.830078,-0.410156 -0.393883,5e-6 -0.721031,0.130213 -0.981445,0.390625 -0.257163,0.260421 -0.400392,0.60059 -0.429688,1.020508 l 2.612305,0"
         style="font-family:Andale Mono;-inkscape-font-specification:Andale Mono"
         id="path12198" />
      <path
         d="m 100.72368,26.050394 -0.76172,0 0,-3.261718 c -4e-6,-0.452471 -0.07325,-0.779619 -0.219727,-0.981446 -0.143233,-0.205073 -0.369469,-0.307612 -0.67871,-0.307617 -0.465498,5e-6 -0.965172,0.289718 -1.499024,0.869141 l 0,3.68164 -0.761719,0 0,-5.08789 0.761719,0 0,0.74707 c 0.546873,-0.579422 1.123044,-0.869135 1.728516,-0.869141 0.953775,6e-6 1.430655,0.576177 1.430665,1.728516 l 0,3.481445"
         style="font-family:Andale Mono;-inkscape-font-specification:Andale Mono"
         id="path12200" />
      <path
         d="m 110.2061,24.131449 c -0.47526,0.231121 -0.71289,0.434572 -0.71289,0.610352 0,0.0944 0.0537,0.174154 0.16113,0.239257 0.11068,0.06511 0.26042,0.09766 0.44922,0.09766 l 1.71387,-0.04883 c 0.4069,2e-6 0.72265,0.09928 0.94726,0.297852 0.22786,0.198568 0.3418,0.480144 0.3418,0.844727 0,0.576171 -0.25717,1.035155 -0.77148,1.376953 -0.51433,0.341795 -1.11492,0.512693 -1.80176,0.512695 -0.56315,-2e-6 -1.02377,-0.118817 -1.38184,-0.356445 -0.35807,-0.234377 -0.53711,-0.538738 -0.53711,-0.913086 0,-0.406902 0.2767,-0.750326 0.83008,-1.030274 -0.45898,-0.214843 -0.68848,-0.478514 -0.68847,-0.791015 -1e-5,-0.358072 0.29622,-0.69173 0.88867,-1.000977 -0.27344,-0.166013 -0.4834,-0.380857 -0.62989,-0.644531 -0.14648,-0.263669 -0.21972,-0.541989 -0.21972,-0.834961 0,-0.478512 0.16276,-0.870764 0.48828,-1.176758 0.32552,-0.30924 0.73242,-0.463862 1.2207,-0.463867 0.35156,5e-6 0.66894,0.07325 0.95215,0.219727 l 1.50879,-0.229493 0,0.742188 -0.97168,0 c 0.14648,0.257166 0.21972,0.5599 0.21973,0.908203 -1e-5,0.462243 -0.16114,0.852867 -0.4834,1.171875 -0.32227,0.319012 -0.7308,0.478518 -1.22559,0.478516 -0.10417,2e-6 -0.20345,-0.0033 -0.29785,-0.0098 m 0.29785,-0.581055 c 0.27995,3e-6 0.50781,-0.09603 0.6836,-0.288086 0.17903,-0.195309 0.26855,-0.449215 0.26855,-0.761718 0,-0.328773 -0.0863,-0.585934 -0.25879,-0.771485 -0.17253,-0.185542 -0.40365,-0.278315 -0.69336,-0.27832 -0.27018,5e-6 -0.49805,0.09766 -0.68359,0.292969 -0.1823,0.192061 -0.27344,0.444339 -0.27344,0.756836 0,0.305992 0.0911,0.558271 0.27344,0.756836 0.18554,0.195315 0.41341,0.292971 0.68359,0.292968 m 0.0293,3.920899 c 0.5013,-2e-6 0.92773,-0.112306 1.2793,-0.336914 0.35481,-0.221355 0.53222,-0.49642 0.53222,-0.825196 0,-0.338541 -0.25065,-0.507812 -0.75195,-0.507812 -0.16602,0 -0.45248,0.0098 -0.85938,0.0293 -0.25716,0.01302 -0.45898,0.01953 -0.60546,0.01953 -0.0716,0 -0.18393,0.05859 -0.33692,0.175781 -0.14974,0.117188 -0.2653,0.234375 -0.34668,0.351563 -0.0781,0.120442 -0.11719,0.24414 -0.11719,0.371093 0,0.198567 0.11068,0.367838 0.33204,0.507813 0.22135,0.143228 0.51269,0.214842 0.87402,0.214844"
         style="font-family:Andale Mono;-inkscape-font-specification:Andale Mono"
         id="path12202" />
      <path
         d="m 117.07134,19.038676 c 0.14322,7e-6 0.26529,0.05209 0.36621,0.15625 0.1009,0.100918 0.15136,0.222988 0.15136,0.36621 0,0.149746 -0.0505,0.275072 -0.15136,0.375977 -0.0977,0.100918 -0.21973,0.151373 -0.36621,0.151367 -0.13347,6e-6 -0.25229,-0.05208 -0.35645,-0.15625 -0.10091,-0.107415 -0.15137,-0.231113 -0.15137,-0.371094 0,-0.139967 0.0505,-0.262037 0.15137,-0.36621 0.10416,-0.10416 0.22298,-0.156243 0.35645,-0.15625 m 0.37109,7.011718 -0.76172,0 0,-4.428711 -1.49902,0 0,-0.659179 2.26074,0 0,5.08789"
         style="font-family:Andale Mono;-inkscape-font-specification:Andale Mono"
         id="path12204" />
      <path
         d="m 124.75688,25.820902 c -0.51107,0.234375 -1.014,0.351562 -1.50879,0.351563 -0.9082,-10e-7 -1.3623,-0.480143 -1.3623,-1.44043 l 0,-3.110352 -0.97656,0 0,-0.659179 0.97656,0 0,-1.391602 0.74219,0 0,1.391602 1.72851,0 0,0.659179 -1.72851,0 0,2.910157 c -10e-6,0.309246 0.0684,0.550131 0.20507,0.722656 0.13672,0.169271 0.32227,0.253907 0.55664,0.253906 0.41667,1e-6 0.82845,-0.09277 1.23536,-0.27832 l 0.13183,0.59082"
         style="font-family:Andale Mono;-inkscape-font-specification:Andale Mono"
         id="path12206" />
      <path
         d="m 130.70415,26.050394 -0.76172,0 0,-3.261718 c -1e-5,-0.452471 -0.0733,-0.779619 -0.21973,-0.981446 -0.14323,-0.205073 -0.36947,-0.307612 -0.67871,-0.307617 -0.4655,5e-6 -0.96517,0.289718 -1.49902,0.869141 l 0,3.68164 -0.76172,0 0,-6.889648 0.76172,0 0,2.548828 c 0.54687,-0.579422 1.12304,-0.869135 1.72851,-0.869141 0.95378,6e-6 1.43066,0.576177 1.43067,1.728516 l 0,3.481445"
         style="font-family:Andale Mono;-inkscape-font-specification:Andale Mono"
         id="path12208" />
      <path
         d="m 136.69048,26.050394 -0.76172,0 0,-0.751953 c -0.54688,0.582683 -1.12305,0.874023 -1.72852,0.874024 -0.95378,-10e-7 -1.43066,-0.577799 -1.43066,-1.733399 l 0,-3.476562 0.76172,0 0,3.256836 c -10e-6,0.432944 0.0684,0.756837 0.20507,0.971679 0.13672,0.211589 0.36784,0.317384 0.69336,0.317383 0.4655,1e-6 0.96517,-0.289713 1.49903,-0.869141 l 0,-3.676757 0.76172,0 0,5.08789"
         style="font-family:Andale Mono;-inkscape-font-specification:Andale Mono"
         id="path12210" />
      <path
         d="m 139.53716,21.621683 c 0.16926,-0.23437 0.39713,-0.423172 0.68359,-0.566406 0.28971,-0.143224 0.59407,-0.214838 0.91309,-0.214844 0.59244,6e-6 1.05305,0.237636 1.38183,0.712891 0.33203,0.475264 0.49804,1.100264 0.49805,1.875 -1e-5,0.784507 -0.17579,1.440431 -0.52735,1.967773 -0.35156,0.524089 -0.82194,0.786133 -1.41113,0.786133 -0.31576,0 -0.61198,-0.07813 -0.88867,-0.234375 -0.27344,-0.159505 -0.48991,-0.369465 -0.64941,-0.629883 l 0,0.732422 -0.76172,0 0,-6.889648 0.76172,0 0,2.460937 m 0,0.756836 0,2.114258 c 0.14322,0.28646 0.33691,0.525717 0.58105,0.717774 0.24414,0.192057 0.49642,0.288086 0.75684,0.288085 0.41015,10e-7 0.73567,-0.195311 0.97656,-0.585937 0.24413,-0.390623 0.3662,-0.870766 0.36621,-1.44043 -1e-5,-0.585934 -0.11556,-1.061194 -0.34668,-1.425781 -0.23112,-0.364579 -0.55339,-0.54687 -0.9668,-0.546875 -0.53711,5e-6 -0.99284,0.292973 -1.36718,0.878906"
         style="font-family:Andale Mono;-inkscape-font-specification:Andale Mono"
         id="path12212" />
      <path
         d="m 151.52934,21.621683 c 0.16927,-0.23437 0.39714,-0.423172 0.6836,-0.566406 0.28971,-0.143224 0.59407,-0.214838 0.91308,-0.214844 0.58594,6e-6 1.04492,0.242518 1.37696,0.727539 0.33528,0.481775 0.50292,1.11003 0.50293,1.884766 -1e-5,0.781252 -0.17579,1.432293 -0.52735,1.953125 -0.34831,0.517578 -0.81869,0.776367 -1.41113,0.776367 -0.31576,0 -0.61198,-0.07813 -0.88867,-0.234375 -0.27344,-0.159505 -0.48991,-0.369465 -0.64942,-0.629883 l 0,2.744141 -0.76172,0 0,-7.099609 0.76172,0 0,0.659179 m 0,0.756836 0,2.114258 c 0.14323,0.28646 0.33691,0.525717 0.58106,0.717774 0.24414,0.192057 0.49641,0.288086 0.75683,0.288085 0.41016,10e-7 0.73568,-0.192056 0.97657,-0.576171 0.24413,-0.384113 0.3662,-0.861001 0.36621,-1.430664 -1e-5,-0.585935 -0.11557,-1.06445 -0.34668,-1.435547 -0.23113,-0.37109 -0.55339,-0.556636 -0.9668,-0.556641 -0.53711,5e-6 -0.99284,0.292973 -1.36719,0.878906"
         style="font-family:Andale Mono;-inkscape-font-specification:Andale Mono"
         id="path12214" />
      <path
         d="m 160.81157,26.050394 -0.75684,0 c -0.0618,-0.205078 -0.0928,-0.478515 -0.0928,-0.820312 -0.43295,0.634766 -1.02214,0.952148 -1.76758,0.952148 -0.3776,0 -0.71126,-0.133463 -1.00097,-0.40039 -0.28646,-0.270182 -0.42969,-0.616861 -0.42969,-1.040039 0,-0.25065 0.0504,-0.472004 0.15137,-0.664063 0.10091,-0.192055 0.24902,-0.353188 0.44433,-0.483398 0.19531,-0.133461 0.43294,-0.237628 0.71289,-0.3125 0.27995,-0.07812 0.61198,-0.131833 0.9961,-0.161133 l 0.85449,-0.06836 0,-0.24414 c -1e-5,-0.872392 -0.40691,-1.308589 -1.22071,-1.308594 -0.19206,5e-6 -0.4362,0.04232 -0.73242,0.126953 -0.29297,0.08139 -0.54525,0.179041 -0.75683,0.292969 l -0.2002,-0.546875 c 0.69336,-0.354813 1.33789,-0.532221 1.9336,-0.532227 1.15884,6e-6 1.73827,0.613612 1.73828,1.840821 l 0,2.1875 c -1e-5,0.442709 0.0423,0.836589 0.12695,1.18164 m -0.88867,-1.508789 0,-0.922851 c -0.68685,0.06185 -1.15886,0.120445 -1.41602,0.175781 -0.25391,0.05209 -0.47526,0.151369 -0.66406,0.297851 -0.18555,0.146487 -0.27832,0.345054 -0.27832,0.595704 0,0.227865 0.0797,0.411784 0.23926,0.551757 0.1595,0.139975 0.36295,0.209962 0.61035,0.209961 0.27018,10e-7 0.53873,-0.07975 0.80566,-0.239257 0.26693,-0.16276 0.5013,-0.385741 0.70313,-0.668946"
         style="font-family:Andale Mono;-inkscape-font-specification:Andale Mono"
         id="path12216" />
      <path
         d="m 164.17094,24.131449 c -0.47526,0.231121 -0.71289,0.434572 -0.71289,0.610352 0,0.0944 0.0537,0.174154 0.16114,0.239257 0.11067,0.06511 0.26041,0.09766 0.44922,0.09766 l 1.71386,-0.04883 c 0.4069,2e-6 0.72265,0.09928 0.94727,0.297852 0.22786,0.198568 0.34179,0.480144 0.3418,0.844727 -1e-5,0.576171 -0.25717,1.035155 -0.77149,1.376953 -0.51433,0.341795 -1.11491,0.512693 -1.80176,0.512695 -0.56315,-2e-6 -1.02376,-0.118817 -1.38183,-0.356445 -0.35808,-0.234377 -0.53711,-0.538738 -0.53711,-0.913086 0,-0.406902 0.27669,-0.750326 0.83008,-1.030274 -0.45899,-0.214843 -0.68848,-0.478514 -0.68848,-0.791015 0,-0.358072 0.29622,-0.69173 0.88867,-1.000977 -0.27344,-0.166013 -0.4834,-0.380857 -0.62988,-0.644531 -0.14649,-0.263669 -0.21973,-0.541989 -0.21973,-0.834961 0,-0.478512 0.16276,-0.870764 0.48828,-1.176758 0.32552,-0.30924 0.73242,-0.463862 1.22071,-0.463867 0.35156,5e-6 0.66894,0.07325 0.95214,0.219727 l 1.50879,-0.229493 0,0.742188 -0.97168,0 c 0.14648,0.257166 0.21973,0.5599 0.21973,0.908203 0,0.462243 -0.16114,0.852867 -0.4834,1.171875 -0.32227,0.319012 -0.7308,0.478518 -1.22558,0.478516 -0.10417,2e-6 -0.20346,-0.0033 -0.29786,-0.0098 m 0.29786,-0.581055 c 0.27994,3e-6 0.50781,-0.09603 0.68359,-0.288086 0.17903,-0.195309 0.26855,-0.449215 0.26855,-0.761718 0,-0.328773 -0.0863,-0.585934 -0.25878,-0.771485 -0.17253,-0.185542 -0.40365,-0.278315 -0.69336,-0.27832 -0.27019,5e-6 -0.49805,0.09766 -0.6836,0.292969 -0.18229,0.192061 -0.27344,0.444339 -0.27344,0.756836 0,0.305992 0.0911,0.558271 0.27344,0.756836 0.18555,0.195315 0.41341,0.292971 0.6836,0.292968 m 0.0293,3.920899 c 0.5013,-2e-6 0.92773,-0.112306 1.2793,-0.336914 0.35481,-0.221355 0.53222,-0.49642 0.53223,-0.825196 -1e-5,-0.338541 -0.25066,-0.507812 -0.75196,-0.507812 -0.16602,0 -0.45247,0.0098 -0.85937,0.0293 -0.25717,0.01302 -0.45899,0.01953 -0.60547,0.01953 -0.0716,0 -0.18392,0.05859 -0.33691,0.175781 -0.14975,0.117188 -0.26531,0.234375 -0.34668,0.351563 -0.0781,0.120442 -0.11719,0.24414 -0.11719,0.371093 0,0.198567 0.11067,0.367838 0.33203,0.507813 0.22135,0.143228 0.51269,0.214842 0.87402,0.214844"
         style="font-family:Andale Mono;-inkscape-font-specification:Andale Mono"
         id="path12218" />
      <path
         d="m 172.82817,23.530863 -3.49121,0 c 0,0.576174 0.16601,1.051434 0.49805,1.425781 0.33528,0.37435 0.74544,0.561524 1.23047,0.561524 0.46223,0 0.93912,-0.08301 1.43066,-0.249024 l 0.13184,0.610352 c -0.44923,0.201823 -0.97332,0.302734 -1.57227,0.302734 -0.75521,0 -1.36393,-0.242513 -1.82617,-0.727539 -0.46224,-0.485025 -0.69336,-1.139321 -0.69336,-1.96289 0,-0.807289 0.2067,-1.450192 0.62012,-1.928711 0.41666,-0.481766 0.95377,-0.722651 1.61132,-0.722657 0.58594,6e-6 1.07585,0.222987 1.46973,0.668946 0.39388,0.445967 0.59082,1.040042 0.59082,1.782226 l 0,0.239258 m -0.83008,-0.620117 c 0,-0.397132 -0.1237,-0.730791 -0.37109,-1.000977 -0.2474,-0.273433 -0.52409,-0.410151 -0.83008,-0.410156 -0.39388,5e-6 -0.72103,0.130213 -0.98144,0.390625 -0.25717,0.260421 -0.4004,0.60059 -0.42969,1.020508 l 2.6123,0"
         style="font-family:Andale Mono;-inkscape-font-specification:Andale Mono"
         id="path12220" />
      <path
         d="m 175.32329,19.038676 c 0.72916,0.550136 1.28255,1.188156 1.66015,1.914062 0.3776,0.722661 0.56641,1.492517 0.56641,2.30957 0,0.810549 -0.19043,1.580405 -0.57129,2.309571 -0.37761,0.729166 -0.92936,1.368814 -1.65527,1.918945 l -0.30274,-0.419922 c 0.5957,-0.527344 1.02376,-1.087239 1.28418,-1.679687 0.26367,-0.595702 0.39551,-1.308592 0.39551,-2.138672 0,-0.856116 -0.13509,-1.572262 -0.40527,-2.148438 -0.27019,-0.576166 -0.69499,-1.124668 -1.27442,-1.645508 l 0.30274,-0.419921"
         style="font-family:Andale Mono;-inkscape-font-specification:Andale Mono"
         id="path12222" />
      <path
         d="m 4.2148897,36.172465 -2.9003906,0 0,-0.742188 2.9003906,0 0,0.742188"
         style="font-family:Andale Mono;-inkscape-font-specification:Andale Mono"
         id="path12224" />
      <path
         d="m 17.549851,38.550394 -0.839844,0 -0.761719,-2.412109 -2.260742,0 -0.771484,2.412109 -0.830079,0 2.250977,-6.889648 0.961914,0 2.250977,6.889648 m -1.831055,-3.110351 -0.90332,-2.851563 -0.898438,2.851563 1.801758,0"
         style="font-family:Andale Mono;-inkscape-font-specification:Andale Mono"
         id="path12226" />
      <path
         d="m 19.61528,34.121683 c 0.169269,-0.23437 0.397134,-0.423172 0.683594,-0.566406 0.289711,-0.143224 0.594073,-0.214838 0.913086,-0.214844 0.592444,6e-6 1.053055,0.237636 1.381836,0.712891 0.332026,0.475264 0.498042,1.100264 0.498047,1.875 -5e-6,0.784507 -0.175787,1.440431 -0.527344,1.967773 -0.351567,0.524089 -0.821944,0.786133 -1.411133,0.786133 -0.315758,0 -0.611982,-0.07813 -0.888672,-0.234375 -0.273439,-0.159505 -0.48991,-0.369465 -0.649414,-0.629883 l 0,0.732422 -0.761718,0 0,-6.889648 0.761718,0 0,2.460937 m 0,0.756836 0,2.114258 c 0.143228,0.28646 0.336912,0.525717 0.581055,0.717774 0.244138,0.192057 0.496416,0.288086 0.756836,0.288085 0.410153,1e-6 0.735673,-0.195311 0.976562,-0.585937 0.244137,-0.390623 0.366207,-0.870766 0.366211,-1.44043 -4e-6,-0.585934 -0.115564,-1.061194 -0.346679,-1.425781 -0.231124,-0.364579 -0.553389,-0.54687 -0.966797,-0.546875 -0.537112,5e-6 -0.992841,0.292973 -1.367188,0.878906"
         style="font-family:Andale Mono;-inkscape-font-specification:Andale Mono"
         id="path12228" />
      <path
         d="m 26.797898,33.340433 c 0.699866,6e-6 1.256506,0.244146 1.669921,0.732422 0.413407,0.488285 0.620112,1.131188 0.620118,1.928711 -6e-6,0.804038 -0.206711,1.451824 -0.620118,1.94336 -0.413415,0.491536 -0.970055,0.737304 -1.669921,0.737304 -0.703128,0 -1.261395,-0.24414 -1.674805,-0.732422 -0.410157,-0.491535 -0.615235,-1.140948 -0.615235,-1.948242 0,-0.800778 0.206705,-1.443681 0.620118,-1.928711 0.413409,-0.488276 0.970049,-0.732416 1.669922,-0.732422 m 0,4.677735 c 0.462236,0 0.826819,-0.195312 1.09375,-0.585938 0.266922,-0.390623 0.400386,-0.864256 0.40039,-1.420898 -4e-6,-0.585935 -0.13184,-1.067705 -0.395508,-1.445313 -0.263675,-0.3776 -0.629886,-0.566401 -1.098632,-0.566406 -0.472008,5e-6 -0.838219,0.187179 -1.098633,0.561523 -0.260419,0.371098 -0.390627,0.854496 -0.390625,1.450196 -2e-6,0.566408 0.131834,1.043296 0.395508,1.430664 0.263669,0.384115 0.628252,0.576172 1.09375,0.576172"
         style="font-family:Andale Mono;-inkscape-font-specification:Andale Mono"
         id="path12230" />
      <path
         d="m 34.756882,38.550394 -0.761719,0 0,-0.751953 c -0.546879,0.582683 -1.12305,0.874023 -1.728515,0.874024 -0.953778,-1e-6 -1.430666,-0.577799 -1.430665,-1.733399 l 0,-3.476562 0.761719,0 0,3.256836 c -2e-6,0.432944 0.06836,0.756837 0.205078,0.971679 0.136717,0.211589 0.367836,0.317384 0.69336,0.317383 0.465491,1e-6 0.965165,-0.289713 1.499023,-0.869141 l 0,-3.676757 0.761719,0 0,5.08789"
         style="font-family:Andale Mono;-inkscape-font-specification:Andale Mono"
         id="path12232" />
      <path
         d="m 40.811569,38.320902 c -0.511072,0.234375 -1.014001,0.351562 -1.508789,0.351563 -0.908205,-1e-6 -1.362307,-0.480143 -1.362304,-1.44043 l 0,-3.110352 -0.976563,0 0,-0.659179 0.976563,0 0,-1.391602 0.742187,0 0,1.391602 1.728516,0 0,0.659179 -1.728516,0 0,2.910157 c -3e-6,0.309246 0.06836,0.550131 0.205078,0.722656 0.136716,0.169271 0.322262,0.253907 0.556641,0.253906 0.416662,1e-6 0.828446,-0.09277 1.235351,-0.27832 l 0.131836,0.59082"
         style="font-family:Andale Mono;-inkscape-font-specification:Andale Mono"
         id="path12234" />
    </g>
    <g
       style="font-size:8px;font-style:normal;font-variant:normal;font-weight:normal;font-stretch:normal;line-height:125%;letter-spacing:0px;word-spacing:0px;fill:#000000;fill-opacity:1;stroke:none;font-family:Andale Mono;-inkscape-font-specification:Andale Mono"
       id="text10859">
      <path
         d="m 60.781609,32.36396 c -0.410161,-0.139967 -0.799158,-0.209954 -1.166993,-0.209961 -0.416669,7e-6 -0.756838,0.09604 -1.020507,0.288086 -0.260419,0.188808 -0.390627,0.45899 -0.390625,0.810547 -2e-6,0.416672 0.343422,0.782882 1.030273,1.098633 0.507809,0.234379 0.843095,0.397139 1.005859,0.488281 0.166012,0.09115 0.333655,0.216475 0.50293,0.375977 0.169266,0.159508 0.304357,0.34831 0.405274,0.566406 0.104161,0.214846 0.156245,0.457359 0.15625,0.727539 -5e-6,0.670574 -0.226242,1.191407 -0.678711,1.5625 -0.449223,0.367839 -0.979821,0.551758 -1.591797,0.551758 -0.59245,0 -1.111656,-0.117188 -1.557617,-0.351563 l 0.166015,-0.688476 c 0.524087,0.237631 0.981443,0.356446 1.37207,0.356445 0.455726,1e-6 0.820309,-0.117187 1.09375,-0.351562 0.276689,-0.237629 0.415035,-0.56315 0.41504,-0.976563 -5e-6,-0.305987 -0.08952,-0.564776 -0.268555,-0.776367 -0.17904,-0.214841 -0.509444,-0.43294 -0.991211,-0.654297 -0.494794,-0.227861 -0.815432,-0.382483 -0.961914,-0.463867 -0.143231,-0.08463 -0.28646,-0.200191 -0.429688,-0.34668 -0.14323,-0.14648 -0.253907,-0.310868 -0.332031,-0.493164 -0.07813,-0.182287 -0.117189,-0.380854 -0.117187,-0.595703 -2e-6,-0.569656 0.205076,-1.013991 0.615234,-1.333008 0.410154,-0.319003 0.929359,-0.478508 1.557617,-0.478515 0.458981,7e-6 0.914709,0.06999 1.367188,0.209961 l -0.180664,0.683593"
         style="font-size:10px"
         id="path12237" />
      <path
         d="m 67.261101,38.320992 c -0.442713,0.201822 -0.929366,0.302734 -1.459961,0.302734 -0.800784,0 -1.440432,-0.242513 -1.918945,-0.727539 -0.475262,-0.48828 -0.712892,-1.136066 -0.712891,-1.94336 -10e-7,-0.807288 0.239257,-1.453446 0.717773,-1.938476 0.481769,-0.488276 1.113279,-0.732417 1.894532,-0.732422 0.511063,5e-6 0.997716,0.08952 1.459961,0.268555 l -0.200196,0.629883 c -0.462244,-0.159501 -0.87891,-0.239254 -1.25,-0.239258 -0.559899,4e-6 -1.004234,0.180668 -1.333008,0.541992 -0.325522,0.361332 -0.488283,0.85124 -0.488281,1.469726 -2e-6,0.566409 0.169269,1.043296 0.507813,1.430665 0.338539,0.384115 0.779619,0.576172 1.323242,0.576171 0.429683,10e-7 0.872391,-0.08301 1.328125,-0.249023 l 0.131836,0.610352"
         style="font-size:10px"
         id="path12239" />
      <path
         d="m 73.403679,38.49189 -0.756836,0 c -0.06185,-0.205078 -0.09278,-0.478515 -0.09277,-0.820313 -0.432947,0.634766 -1.022139,0.952149 -1.767579,0.952149 -0.377606,0 -0.711264,-0.133464 -1.000976,-0.400391 -0.28646,-0.270181 -0.429689,-0.616861 -0.429688,-1.040039 -1e-6,-0.250649 0.05045,-0.472003 0.151368,-0.664062 0.10091,-0.192055 0.249022,-0.353188 0.444335,-0.483399 0.195311,-0.133461 0.432941,-0.237627 0.712891,-0.3125 0.279945,-0.07812 0.611976,-0.131833 0.996094,-0.161133 l 0.854492,-0.06836 0,-0.244141 c -4e-6,-0.872391 -0.406905,-1.308589 -1.220703,-1.308593 -0.19206,4e-6 -0.436201,0.04232 -0.732422,0.126953 -0.292971,0.08138 -0.545249,0.179041 -0.756836,0.292969 l -0.200195,-0.546875 c 0.693357,-0.354813 1.337888,-0.532222 1.933594,-0.532227 1.158849,5e-6 1.738276,0.613611 1.738281,1.84082 l 0,2.1875 c -5e-6,0.442709 0.04231,0.836589 0.126953,1.181641 m -0.888672,-1.508789 0,-0.922852 c -0.686852,0.06185 -1.158857,0.120445 -1.416016,0.175782 -0.253908,0.05209 -0.475262,0.151369 -0.664062,0.297851 -0.185549,0.146486 -0.278322,0.345054 -0.27832,0.595703 -2e-6,0.227866 0.07975,0.411785 0.239257,0.551758 0.159503,0.139975 0.362954,0.209962 0.610352,0.209961 0.270179,1e-6 0.538734,-0.07975 0.805664,-0.239258 0.266923,-0.162759 0.501298,-0.385741 0.703125,-0.668945"
         style="font-size:10px"
         id="path12241" />
      <path
         d="m 78.901726,38.49189 -2.080078,0 0,-6.230469 -1.328125,0 0,-0.659179 2.089843,0 0,6.230468 1.31836,0 0,0.65918"
         style="font-size:10px"
         id="path12243" />
      <path
         d="m 85.395866,38.49189 -0.756836,0 c -0.06185,-0.205078 -0.09278,-0.478515 -0.09277,-0.820313 -0.432947,0.634766 -1.022139,0.952149 -1.767578,0.952149 -0.377606,0 -0.711265,-0.133464 -1.000977,-0.400391 -0.286459,-0.270181 -0.429688,-0.616861 -0.429687,-1.040039 -10e-7,-0.250649 0.05045,-0.472003 0.151367,-0.664062 0.10091,-0.192055 0.249022,-0.353188 0.444336,-0.483399 0.195311,-0.133461 0.432941,-0.237627 0.712891,-0.3125 0.279945,-0.07812 0.611976,-0.131833 0.996093,-0.161133 l 0.854493,-0.06836 0,-0.244141 c -5e-6,-0.872391 -0.406905,-1.308589 -1.220704,-1.308593 -0.19206,4e-6 -0.4362,0.04232 -0.732421,0.126953 -0.292971,0.08138 -0.54525,0.179041 -0.756836,0.292969 l -0.200196,-0.546875 c 0.693358,-0.354813 1.337888,-0.532222 1.933594,-0.532227 1.15885,5e-6 1.738276,0.613611 1.738281,1.84082 l 0,2.1875 c -5e-6,0.442709 0.04231,0.836589 0.126953,1.181641 m -0.888671,-1.508789 0,-0.922852 c -0.686853,0.06185 -1.158858,0.120445 -1.416016,0.175782 -0.253909,0.05209 -0.475263,0.151369 -0.664063,0.297851 -0.185548,0.146486 -0.278322,0.345054 -0.27832,0.595703 -2e-6,0.227866 0.07975,0.411785 0.239258,0.551758 0.159503,0.139975 0.362953,0.209962 0.610351,0.209961 0.27018,1e-6 0.538734,-0.07975 0.805665,-0.239258 0.266923,-0.162759 0.501298,-0.385741 0.703125,-0.668945"
         style="font-size:10px"
         id="path12245" />
      <path
         d="m 62.056023,50.99189 -0.839844,0 -0.761719,-2.412109 -2.260742,0 -0.771484,2.412109 -0.830079,0 2.250977,-6.889648 0.961914,0 2.250977,6.889648 m -1.831055,-3.110352 -0.90332,-2.851562 -0.898438,2.851562 1.801758,0"
         style="font-size:10px"
         id="path12247" />
      <path
         d="m 67.681023,50.99189 -0.761719,0 0,-3.339844 c -5e-6,-0.807287 -0.149744,-1.210933 -0.449219,-1.210937 -0.152999,4e-6 -0.322269,0.139978 -0.507812,0.419922 -0.182295,0.276696 -0.273441,0.429691 -0.273438,0.458984 l 0,3.671875 -0.756836,0 0,-3.339844 c -2e-6,-0.807287 -0.151369,-1.210933 -0.454101,-1.210937 -0.149742,4e-6 -0.317385,0.139978 -0.50293,0.419922 -0.182293,0.276696 -0.273439,0.429691 -0.273438,0.458984 l 0,3.671875 -0.761718,0 0,-5.087891 0.732422,0 0,0.766602 c 0.143227,-0.270178 0.312498,-0.485021 0.507812,-0.644531 0.198566,-0.162756 0.395506,-0.244136 0.59082,-0.244141 0.205076,5e-6 0.388995,0.08139 0.551758,0.244141 0.162757,0.15951 0.275062,0.374353 0.336914,0.644531 0.143226,-0.270178 0.314124,-0.485021 0.512696,-0.644531 0.198563,-0.162756 0.393876,-0.244136 0.585937,-0.244141 0.615229,5e-6 0.922846,0.550135 0.922852,1.650391 l 0,3.55957"
         style="font-size:10px"
         id="path12249" />
      <path
         d="m 70.117546,46.563179 c 0.169269,-0.23437 0.397133,-0.423172 0.683594,-0.566406 0.289711,-0.143224 0.594072,-0.214839 0.913086,-0.214844 0.592444,5e-6 1.053055,0.237635 1.381836,0.712891 0.332026,0.475264 0.498041,1.100263 0.498047,1.875 -6e-6,0.784507 -0.175787,1.440431 -0.527344,1.967773 -0.351567,0.524089 -0.821944,0.786133 -1.411133,0.786133 -0.315758,0 -0.611982,-0.07813 -0.888672,-0.234375 -0.27344,-0.159505 -0.489911,-0.369466 -0.649414,-0.629883 l 0,0.732422 -0.761719,0 0,-6.889648 0.761719,0 0,2.460937 m 0,0.756836 0,2.114258 c 0.143227,0.286459 0.336912,0.525717 0.581055,0.717773 0.244138,0.192058 0.496416,0.288087 0.756836,0.288086 0.410152,1e-6 0.735673,-0.195312 0.976562,-0.585937 0.244136,-0.390624 0.366207,-0.870767 0.366211,-1.44043 -4e-6,-0.585934 -0.115564,-1.061194 -0.34668,-1.425781 -0.231123,-0.364579 -0.553389,-0.546871 -0.966796,-0.546875 -0.537112,4e-6 -0.992841,0.292973 -1.367188,0.878906"
         style="font-size:10px"
         id="path12251" />
      <path
         d="m 79.424187,48.472359 -3.491211,0 c -2e-6,0.576174 0.166014,1.051433 0.498047,1.425781 0.335284,0.37435 0.745439,0.561524 1.230468,0.561523 0.462236,10e-7 0.939124,-0.08301 1.430664,-0.249023 l 0.131836,0.610352 c -0.449223,0.201822 -0.973311,0.302734 -1.572265,0.302734 -0.755211,0 -1.363935,-0.242513 -1.826172,-0.727539 -0.462241,-0.485025 -0.69336,-1.139321 -0.693359,-1.962891 -10e-7,-0.807288 0.206704,-1.450191 0.620117,-1.928711 0.416665,-0.481766 0.953773,-0.722651 1.611328,-0.722656 0.585934,5e-6 1.075842,0.222987 1.469726,0.668945 0.393876,0.445968 0.590816,1.040043 0.590821,1.782227 l 0,0.239258 m -0.830078,-0.620117 c -5e-6,-0.397132 -0.123703,-0.730791 -0.371094,-1.000977 -0.2474,-0.273433 -0.524092,-0.410152 -0.830078,-0.410156 -0.393883,4e-6 -0.721031,0.130212 -0.981446,0.390625 -0.257163,0.26042 -0.400392,0.600589 -0.429687,1.020508 l 2.612305,0"
         style="font-size:10px"
         id="path12253" />
      <path
         d="m 85.347038,46.040718 -0.307617,0.732422 c -0.335291,-0.14648 -0.625004,-0.219722 -0.869141,-0.219727 -0.224613,5e-6 -0.444339,0.06511 -0.659179,0.195313 -0.214847,0.126957 -0.413414,0.310876 -0.595703,0.551758 -0.179039,0.237633 -0.268557,0.371097 -0.268555,0.40039 l 0,3.291016 -0.756836,0 0,-5.087891 0.756836,0 0,1.030274 c 0.406898,-0.768225 0.934241,-1.152339 1.582031,-1.152344 0.38411,5e-6 0.756831,0.08627 1.118164,0.258789"
         style="font-size:10px"
         id="path12255" />
      <path
         d="m 96.758171,44.86396 c -0.41016,-0.139967 -0.799157,-0.209954 -1.166992,-0.209961 -0.41667,7e-6 -0.756839,0.09604 -1.020508,0.288086 -0.260419,0.188808 -0.390627,0.45899 -0.390625,0.810547 -2e-6,0.416672 0.343422,0.782882 1.030274,1.098633 0.507809,0.234379 0.843095,0.397139 1.005859,0.488281 0.166011,0.09115 0.333654,0.216475 0.50293,0.375977 0.169266,0.159508 0.304357,0.34831 0.405273,0.566406 0.104162,0.214846 0.156245,0.457359 0.15625,0.727539 -5e-6,0.670574 -0.226242,1.191407 -0.678711,1.5625 -0.449223,0.367839 -0.979821,0.551758 -1.591797,0.551758 -0.59245,0 -1.111655,-0.117188 -1.557617,-0.351563 l 0.166016,-0.688476 c 0.524086,0.237631 0.981443,0.356446 1.37207,0.356445 0.455726,1e-6 0.820309,-0.117187 1.09375,-0.351562 0.276689,-0.237629 0.415035,-0.56315 0.415039,-0.976563 -4e-6,-0.305987 -0.08952,-0.564776 -0.268555,-0.776367 -0.17904,-0.214841 -0.509443,-0.43294 -0.991211,-0.654297 -0.494794,-0.227861 -0.815431,-0.382483 -0.961914,-0.463867 -0.143231,-0.08463 -0.28646,-0.200191 -0.429687,-0.34668 -0.143231,-0.14648 -0.253908,-0.310868 -0.332031,-0.493164 -0.07813,-0.182287 -0.117189,-0.380854 -0.117188,-0.595703 -10e-7,-0.569656 0.205077,-1.013991 0.615234,-1.333008 0.410155,-0.319003 0.92936,-0.478508 1.557618,-0.478515 0.45898,7e-6 0.914709,0.06999 1.367187,0.209961 l -0.180664,0.683593"
         style="font-size:10px"
         id="path12257" />
      <path
         d="m 103.65759,50.99189 -0.76172,0 0,-3.339844 c -1e-5,-0.807287 -0.14975,-1.210933 -0.44922,-1.210937 -0.153,4e-6 -0.32227,0.139978 -0.50781,0.419922 -0.1823,0.276696 -0.27345,0.429691 -0.27344,0.458984 l 0,3.671875 -0.75684,0 0,-3.339844 c 0,-0.807287 -0.15137,-1.210933 -0.4541,-1.210937 -0.14974,4e-6 -0.31738,0.139978 -0.50293,0.419922 -0.182293,0.276696 -0.273438,0.429691 -0.273437,0.458984 l 0,3.671875 -0.761719,0 0,-5.087891 0.732422,0 0,0.766602 c 0.143228,-0.270178 0.312498,-0.485021 0.507814,-0.644531 0.19856,-0.162756 0.3955,-0.244136 0.59082,-0.244141 0.20507,5e-6 0.38899,0.08139 0.55176,0.244141 0.16275,0.15951 0.27506,0.374353 0.33691,0.644531 0.14323,-0.270178 0.31412,-0.485021 0.5127,-0.644531 0.19856,-0.162756 0.39387,-0.244136 0.58593,-0.244141 0.61523,5e-6 0.92285,0.550135 0.92286,1.650391 l 0,3.55957"
         style="font-size:10px"
         id="path12259" />
      <path
         d="m 109.38024,50.99189 -0.75683,0 c -0.0619,-0.205078 -0.0928,-0.478515 -0.0928,-0.820313 -0.43294,0.634766 -1.02214,0.952149 -1.76758,0.952149 -0.3776,0 -0.71126,-0.133464 -1.00097,-0.400391 -0.28646,-0.270181 -0.42969,-0.616861 -0.42969,-1.040039 0,-0.250649 0.0504,-0.472003 0.15137,-0.664062 0.10091,-0.192055 0.24902,-0.353188 0.44433,-0.483399 0.19531,-0.133461 0.43294,-0.237627 0.71289,-0.3125 0.27995,-0.07812 0.61198,-0.131833 0.9961,-0.161133 l 0.85449,-0.06836 0,-0.244141 c 0,-0.872391 -0.40691,-1.308589 -1.2207,-1.308593 -0.19206,4e-6 -0.4362,0.04232 -0.73243,0.126953 -0.29297,0.08138 -0.54524,0.179041 -0.75683,0.292969 l -0.2002,-0.546875 c 0.69336,-0.354813 1.33789,-0.532222 1.9336,-0.532227 1.15885,5e-6 1.73827,0.613611 1.73828,1.84082 l 0,2.1875 c -1e-5,0.442709 0.0423,0.836589 0.12695,1.181641 m -0.88867,-1.508789 0,-0.922852 c -0.68685,0.06185 -1.15886,0.120445 -1.41602,0.175782 -0.2539,0.05209 -0.47526,0.151369 -0.66406,0.297851 -0.18555,0.146486 -0.27832,0.345054 -0.27832,0.595703 0,0.227866 0.0797,0.411785 0.23926,0.551758 0.1595,0.139975 0.36295,0.209962 0.61035,0.209961 0.27018,1e-6 0.53873,-0.07975 0.80566,-0.239258 0.26693,-0.162759 0.5013,-0.385741 0.70313,-0.668945"
         style="font-size:10px"
         id="path12261" />
      <path
         d="m 114.87829,50.99189 -2.08008,0 0,-6.230469 -1.32812,0 0,-0.659179 2.08984,0 0,6.230468 1.31836,0 0,0.65918"
         style="font-size:10px"
         id="path12263" />
      <path
         d="m 120.87438,50.99189 -2.08008,0 0,-6.230469 -1.32812,0 0,-0.659179 2.08984,0 0,6.230468 1.31836,0 0,0.65918"
         style="font-size:10px"
         id="path12265" />
      <path
         d="m 127.2904,50.762398 c -0.51107,0.234375 -1.014,0.351562 -1.50879,0.351562 -0.90821,0 -1.36231,-0.480143 -1.36231,-1.440429 l 0,-3.110352 -0.97656,0 0,-0.65918 0.97656,0 0,-1.391601 0.74219,0 0,1.391601 1.72852,0 0,0.65918 -1.72852,0 0,2.910156 c 0,0.309246 0.0684,0.550131 0.20508,0.722657 0.13672,0.169271 0.32226,0.253906 0.55664,0.253906 0.41666,0 0.82845,-0.09277 1.23535,-0.278321 l 0.13184,0.590821"
         style="font-size:10px"
         id="path12267" />
      <path
         d="m 133.36462,50.99189 -0.75684,0 c -0.0618,-0.205078 -0.0928,-0.478515 -0.0928,-0.820313 -0.43295,0.634766 -1.02214,0.952149 -1.76758,0.952149 -0.37761,0 -0.71127,-0.133464 -1.00098,-0.400391 -0.28646,-0.270181 -0.42969,-0.616861 -0.42969,-1.040039 0,-0.250649 0.0505,-0.472003 0.15137,-0.664062 0.10091,-0.192055 0.24902,-0.353188 0.44434,-0.483399 0.19531,-0.133461 0.43294,-0.237627 0.71289,-0.3125 0.27994,-0.07812 0.61197,-0.131833 0.99609,-0.161133 l 0.85449,-0.06836 0,-0.244141 c 0,-0.872391 -0.4069,-1.308589 -1.2207,-1.308593 -0.19206,4e-6 -0.4362,0.04232 -0.73242,0.126953 -0.29297,0.08138 -0.54525,0.179041 -0.75684,0.292969 l -0.20019,-0.546875 c 0.69336,-0.354813 1.33789,-0.532222 1.93359,-0.532227 1.15885,5e-6 1.73828,0.613611 1.73828,1.84082 l 0,2.1875 c 0,0.442709 0.0423,0.836589 0.12696,1.181641 m -0.88868,-1.508789 0,-0.922852 c -0.68685,0.06185 -1.15885,0.120445 -1.41601,0.175782 -0.25391,0.05209 -0.47526,0.151369 -0.66406,0.297851 -0.18555,0.146486 -0.27833,0.345054 -0.27832,0.595703 -1e-5,0.227866 0.0798,0.411785 0.23925,0.551758 0.15951,0.139975 0.36296,0.209962 0.61036,0.209961 0.27017,1e-6 0.53873,-0.07975 0.80566,-0.239258 0.26692,-0.162759 0.5013,-0.385741 0.70312,-0.668945"
         style="font-size:10px"
         id="path12269" />
      <path
         d="m 138.86266,50.99189 -2.08007,0 0,-6.230469 -1.32813,0 0,-0.659179 2.08984,0 0,6.230468 1.31836,0 0,0.65918"
         style="font-size:10px"
         id="path12271" />
      <path
         d="m 145.7279,50.99189 -1.00098,0 -2.1582,-2.529297 -0.49805,0.429688 0,2.099609 -0.76172,0 0,-6.889648 0.76172,0 0,3.950195 2.3877,-2.148438 0.97168,0 -2.31934,2.080078 2.61719,3.007813"
         style="font-size:10px"
         id="path12273" />
      <path
         d="m 61.162468,63.49189 -3.598633,0 0,-6.889648 3.569336,0 0,0.698242 -2.768555,0 0,2.133789 2.661133,0 0,0.698242 -2.661133,0 0,2.661133 2.797852,0 0,0.698242"
         style="font-size:10px"
         id="path12275" />
      <path
         d="m 66.909538,63.49189 -2.080078,0 0,-6.230469 -1.328125,0 0,-0.659179 2.089844,0 0,6.230468 1.318359,0 0,0.65918"
         style="font-size:10px"
         id="path12277" />
      <path
         d="m 73.677116,63.49189 -0.761718,0 0,-3.339844 c -5e-6,-0.807287 -0.149744,-1.210933 -0.449219,-1.210937 -0.152999,4e-6 -0.32227,0.139978 -0.507813,0.419922 -0.182295,0.276696 -0.27344,0.429691 -0.273437,0.458984 l 0,3.671875 -0.756836,0 0,-3.339844 c -3e-6,-0.807287 -0.15137,-1.210933 -0.454102,-1.210937 -0.149741,4e-6 -0.317384,0.139978 -0.502929,0.419922 -0.182293,0.276696 -0.273439,0.429691 -0.273438,0.458984 l 0,3.671875 -0.761719,0 0,-5.087891 0.732422,0 0,0.766602 c 0.143228,-0.270178 0.312499,-0.485021 0.507813,-0.644531 0.198565,-0.162756 0.395505,-0.244136 0.59082,-0.244141 0.205076,5e-6 0.388995,0.08139 0.551758,0.244141 0.162757,0.15951 0.275062,0.374353 0.336914,0.644531 0.143226,-0.270178 0.314124,-0.485021 0.512695,-0.644531 0.198564,-0.162756 0.393876,-0.244136 0.585938,-0.244141 0.615229,5e-6 0.922846,0.550135 0.922851,1.650391 l 0,3.55957"
         style="font-size:10px"
         id="path12279" />
      <path
         d="m 61.543327,75.562202 c -0.540369,0.374349 -1.166996,0.561524 -1.879882,0.561524 -0.89193,0 -1.57064,-0.30599 -2.036133,-0.917969 -0.462241,-0.611978 -0.69336,-1.497393 -0.69336,-2.65625 0,-1.119787 0.224609,-1.995437 0.673828,-2.626953 0.449217,-0.634759 1.134438,-0.952141 2.055665,-0.952148 0.332027,7e-6 0.660803,0.04232 0.986328,0.126953 0.325516,0.08464 0.58756,0.196947 0.786132,0.336914 l -0.263671,0.629883 c -0.458989,-0.260411 -0.961918,-0.390619 -1.508789,-0.390625 -0.634769,6e-6 -1.106774,0.231125 -1.416016,0.693359 -0.309247,0.458989 -0.463869,1.186528 -0.463867,2.182617 -2e-6,1.914064 0.626625,2.871094 1.879883,2.871094 0.530595,0 1.074214,-0.16276 1.630859,-0.488281 l 0.249023,0.629882"
         style="font-size:10px"
         id="path12281" />
      <path
         d="m 66.909538,75.99189 -2.080078,0 0,-6.230469 -1.328125,0 0,-0.659179 2.089844,0 0,6.230468 1.318359,0 0,0.65918"
         style="font-size:10px"
         id="path12283" />
      <path
         d="m 71.30407,70.781929 c 0.699866,5e-6 1.256506,0.244146 1.669921,0.732422 0.413407,0.488285 0.620112,1.131188 0.620118,1.928711 -6e-6,0.804038 -0.206711,1.451824 -0.620118,1.943359 -0.413415,0.491537 -0.970055,0.737305 -1.669921,0.737305 -0.703128,0 -1.261395,-0.244141 -1.674805,-0.732422 -0.410157,-0.491535 -0.615235,-1.140949 -0.615235,-1.948242 0,-0.800778 0.206705,-1.443681 0.620118,-1.928711 0.413409,-0.488276 0.970049,-0.732417 1.669922,-0.732422 m 0,4.677734 c 0.462236,10e-7 0.826819,-0.195311 1.09375,-0.585937 0.266922,-0.390624 0.400386,-0.864256 0.40039,-1.420899 -4e-6,-0.585934 -0.13184,-1.067704 -0.395508,-1.445312 -0.263675,-0.3776 -0.629886,-0.566402 -1.098632,-0.566406 -0.472008,4e-6 -0.838219,0.187179 -1.098633,0.561523 -0.260419,0.371098 -0.390627,0.854495 -0.390625,1.450195 -2e-6,0.566409 0.131834,1.043296 0.395508,1.430665 0.263669,0.384115 0.628252,0.576172 1.09375,0.576171"
         style="font-size:10px"
         id="path12285" />
      <path
         d="m 77.632195,68.980171 c 0.143225,7e-6 0.265295,0.05209 0.36621,0.15625 0.100908,0.100918 0.151364,0.222989 0.151368,0.366211 -4e-6,0.149746 -0.05046,0.275071 -0.151368,0.375977 -0.09766,0.100917 -0.21973,0.151373 -0.36621,0.151367 -0.133467,6e-6 -0.252282,-0.05208 -0.356446,-0.15625 -0.100914,-0.107416 -0.15137,-0.231114 -0.151367,-0.371094 -3e-6,-0.139967 0.05045,-0.262037 0.151367,-0.366211 0.104164,-0.10416 0.222979,-0.156243 0.356446,-0.15625 m 0.371093,7.270508 c -3e-6,0.63802 -0.11068,1.088866 -0.332031,1.352539 -0.218102,0.266925 -0.600589,0.400389 -1.147461,0.400391 -0.351564,-2e-6 -0.742189,-0.06673 -1.171875,-0.200196 l 0.200195,-0.620117 c 0.361327,0.104166 0.68522,0.156249 0.97168,0.15625 0.273435,-10e-7 0.460609,-0.07813 0.561524,-0.234375 0.104163,-0.152996 0.156247,-0.463868 0.15625,-0.932617 l 0,-4.609375 -1.499024,0 0,-0.65918 2.260742,0 0,5.34668"
         style="font-size:10px"
         id="path12287" />
      <path
         d="m 85.259148,75.99189 -0.761719,0 0,-0.751953 c -0.546879,0.582682 -1.12305,0.874023 -1.728516,0.874023 -0.953777,0 -1.430665,-0.577799 -1.430664,-1.733398 l 0,-3.476563 0.761719,0 0,3.256836 c -2e-6,0.432944 0.06836,0.756837 0.205078,0.97168 0.136717,0.211589 0.367836,0.317383 0.693359,0.317383 0.465492,0 0.965166,-0.289713 1.499024,-0.869141 l 0,-3.676758 0.761719,0 0,5.087891"
         style="font-size:10px"
         id="path12289" />
      <path
         d="m 91.343132,71.040718 -0.307617,0.732422 c -0.335291,-0.14648 -0.625004,-0.219722 -0.869141,-0.219727 -0.224613,5e-6 -0.444339,0.06511 -0.659179,0.195313 -0.214847,0.126957 -0.413415,0.310876 -0.595704,0.551758 -0.179039,0.237633 -0.268557,0.371097 -0.268554,0.40039 l 0,3.291016 -0.756836,0 0,-5.087891 0.756836,0 0,1.030274 c 0.406898,-0.768225 0.934241,-1.152339 1.582031,-1.152344 0.38411,5e-6 0.756831,0.08627 1.118164,0.258789"
         style="font-size:10px"
         id="path12291" />
      <path
         d="m 97.412468,73.472359 -3.491211,0 c -2e-6,0.576174 0.166014,1.051433 0.498047,1.425781 0.335284,0.37435 0.74544,0.561524 1.230469,0.561523 0.462235,10e-7 0.939123,-0.08301 1.430664,-0.249023 l 0.131836,0.610352 c -0.449224,0.201822 -0.973312,0.302734 -1.572266,0.302734 -0.755211,0 -1.363934,-0.242513 -1.826172,-0.727539 -0.462241,-0.485025 -0.69336,-1.139321 -0.693359,-1.962891 -10e-7,-0.807288 0.206704,-1.450191 0.620117,-1.928711 0.416665,-0.481766 0.953774,-0.722651 1.611328,-0.722656 0.585934,5e-6 1.075842,0.222987 1.469727,0.668945 0.393875,0.445968 0.590815,1.040043 0.59082,1.782227 l 0,0.239258 M 96.58239,72.852242 c -4e-6,-0.397132 -0.123702,-0.730791 -0.371094,-1.000977 -0.247399,-0.273433 -0.524092,-0.410152 -0.830078,-0.410156 -0.393883,4e-6 -0.721031,0.130212 -0.981445,0.390625 -0.257164,0.26042 -0.400393,0.600589 -0.429688,1.020508 l 2.612305,0"
         style="font-size:10px"
         id="path12293" />
      <path
         d="m 102.75426,69.86396 c -0.41016,-0.139967 -0.79915,-0.209954 -1.16699,-0.209961 -0.41667,7e-6 -0.75684,0.09604 -1.02051,0.288086 -0.26041,0.188808 -0.39062,0.45899 -0.39062,0.810547 0,0.416672 0.34342,0.782882 1.03027,1.098633 0.50781,0.234379 0.8431,0.397139 1.00586,0.488281 0.16601,0.09115 0.33366,0.216475 0.50293,0.375977 0.16927,0.159508 0.30436,0.34831 0.40528,0.566406 0.10416,0.214846 0.15624,0.457359 0.15625,0.727539 -1e-5,0.670574 -0.22625,1.191407 -0.67872,1.5625 -0.44922,0.367839 -0.97982,0.551758 -1.59179,0.551758 -0.59245,0 -1.111657,-0.117188 -1.557619,-0.351563 l 0.166015,-0.688476 c 0.524084,0.237631 0.981444,0.356446 1.372074,0.356445 0.45572,10e-7 0.82031,-0.117187 1.09375,-0.351562 0.27669,-0.237629 0.41503,-0.56315 0.41504,-0.976563 -1e-5,-0.305987 -0.0895,-0.564776 -0.26856,-0.776367 -0.17904,-0.214841 -0.50944,-0.43294 -0.99121,-0.654297 -0.49479,-0.227861 -0.81543,-0.382483 -0.96191,-0.463867 -0.14323,-0.08463 -0.286464,-0.200191 -0.429691,-0.34668 -0.143231,-0.14648 -0.253908,-0.310868 -0.332032,-0.493164 -0.07813,-0.182287 -0.117188,-0.380854 -0.117187,-0.595703 -10e-7,-0.569656 0.205077,-1.013991 0.61523,-1.333008 0.41016,-0.319003 0.92936,-0.478508 1.55762,-0.478515 0.45898,7e-6 0.91471,0.06999 1.36719,0.209961 l -0.18067,0.683593"
         style="font-size:10px"
         id="path12295" />
      <path
         d="m 109.23376,75.820992 c -0.44272,0.201822 -0.92937,0.302734 -1.45996,0.302734 -0.80079,0 -1.44044,-0.242513 -1.91895,-0.727539 -0.47526,-0.48828 -0.71289,-1.136066 -0.71289,-1.94336 0,-0.807288 0.23926,-1.453446 0.71777,-1.938476 0.48177,-0.488276 1.11328,-0.732417 1.89453,-0.732422 0.51107,5e-6 0.99772,0.08952 1.45997,0.268555 l -0.2002,0.629883 c -0.46224,-0.159501 -0.87891,-0.239254 -1.25,-0.239258 -0.5599,4e-6 -1.00423,0.180668 -1.33301,0.541992 -0.32552,0.361332 -0.48828,0.85124 -0.48828,1.469726 0,0.566409 0.16927,1.043296 0.50781,1.430665 0.33854,0.384115 0.77962,0.576172 1.32325,0.576171 0.42968,10e-7 0.87239,-0.08301 1.32812,-0.249023 l 0.13184,0.610352"
         style="font-size:10px"
         id="path12297" />
      <path
         d="m 115.32751,71.040718 -0.30762,0.732422 c -0.33529,-0.14648 -0.625,-0.219722 -0.86914,-0.219727 -0.22461,5e-6 -0.44434,0.06511 -0.65918,0.195313 -0.21485,0.126957 -0.41341,0.310876 -0.5957,0.551758 -0.17904,0.237633 -0.26856,0.371097 -0.26856,0.40039 l 0,3.291016 -0.75683,0 0,-5.087891 0.75683,0 0,1.030274 c 0.4069,-0.768225 0.93424,-1.152339 1.58203,-1.152344 0.38411,5e-6 0.75683,0.08627 1.11817,0.258789"
         style="font-size:10px"
         id="path12299" />
      <path
         d="m 119.60485,68.980171 c 0.14323,7e-6 0.2653,0.05209 0.36621,0.15625 0.10091,0.100918 0.15137,0.222989 0.15137,0.366211 0,0.149746 -0.0505,0.275071 -0.15137,0.375977 -0.0977,0.100917 -0.21973,0.151373 -0.36621,0.151367 -0.13347,6e-6 -0.25228,-0.05208 -0.35644,-0.15625 -0.10092,-0.107416 -0.15137,-0.231114 -0.15137,-0.371094 0,-0.139967 0.0504,-0.262037 0.15137,-0.366211 0.10416,-0.10416 0.22297,-0.156243 0.35644,-0.15625 m 0.37109,7.011719 -0.76171,0 0,-4.428711 -1.49903,0 0,-0.65918 2.26074,0 0,5.087891"
         style="font-size:10px"
         id="path12301" />
      <path
         d="m 124.08239,71.563179 c 0.16927,-0.23437 0.39713,-0.423172 0.68359,-0.566406 0.28971,-0.143224 0.59408,-0.214839 0.91309,-0.214844 0.58593,5e-6 1.04492,0.242518 1.37695,0.727539 0.33528,0.481775 0.50293,1.110029 0.50293,1.884766 0,0.781252 -0.17578,1.432293 -0.52734,1.953125 -0.34831,0.517578 -0.81869,0.776367 -1.41113,0.776367 -0.31576,0 -0.61199,-0.07813 -0.88868,-0.234375 -0.27344,-0.159505 -0.48991,-0.369466 -0.64941,-0.629883 l 0,2.744141 -0.76172,0 0,-7.09961 0.76172,0 0,0.65918 m 0,0.756836 0,2.114258 c 0.14323,0.286459 0.33691,0.525717 0.58105,0.717773 0.24414,0.192058 0.49642,0.288087 0.75684,0.288086 0.41015,10e-7 0.73567,-0.192056 0.97656,-0.576172 0.24414,-0.384113 0.36621,-0.861 0.36621,-1.430664 0,-0.585934 -0.11556,-1.064449 -0.34668,-1.435547 -0.23112,-0.371089 -0.55338,-0.556636 -0.96679,-0.55664 -0.53711,4e-6 -0.99284,0.292973 -1.36719,0.878906"
         style="font-size:10px"
         id="path12303" />
      <path
         d="m 133.28649,75.762398 c -0.51107,0.234375 -1.014,0.351562 -1.50879,0.351562 -0.9082,0 -1.3623,-0.480143 -1.3623,-1.440429 l 0,-3.110352 -0.97656,0 0,-0.65918 0.97656,0 0,-1.391601 0.74219,0 0,1.391601 1.72851,0 0,0.65918 -1.72851,0 0,2.910156 c -1e-5,0.309246 0.0684,0.550131 0.20507,0.722657 0.13672,0.169271 0.32227,0.253906 0.55664,0.253906 0.41667,0 0.82845,-0.09277 1.23536,-0.278321 l 0.13183,0.590821"
         style="font-size:10px"
         id="path12305" />
    </g>
    <path
       style="fill:none;stroke:#000000;stroke-width:0.5198946;stroke-linecap:butt;stroke-linejoin:miter;stroke-miterlimit:4;stroke-opacity:1;stroke-dasharray:none"
       d="m 52.726282,31.754865 c 0,0 -5.405892,0 -5.405892,7.499883 0,7.499884 0,22.499651 0,29.999536 0,7.499882 5.405892,7.499882 5.405892,7.499882 l 0,0 0,0"
       id="path10871"
       inkscape:connector-curvature="0"
       sodipodi:nodetypes="czzccc" />
  </g>
</svg>
