<?xml version="1.0" encoding="UTF-8" standalone="no"?>
<!-- Created with Inkscape (http://www.inkscape.org/) -->

<svg
   xmlns:dc="http://purl.org/dc/elements/1.1/"
   xmlns:cc="http://creativecommons.org/ns#"
   xmlns:rdf="http://www.w3.org/1999/02/22-rdf-syntax-ns#"
   xmlns:svg="http://www.w3.org/2000/svg"
   xmlns="http://www.w3.org/2000/svg"
   xmlns:xlink="http://www.w3.org/1999/xlink"
   xmlns:sodipodi="http://sodipodi.sourceforge.net/DTD/sodipodi-0.dtd"
   xmlns:inkscape="http://www.inkscape.org/namespaces/inkscape"
   width="1445.5"
   height="430"
   viewBox="0 0 1445.5 430"
   id="svg5288"
   version="1.1"
   inkscape:version="0.48.2 r9819"
   sodipodi:docname="name.svg">
  <defs
     id="defs5290">
    <linearGradient
       id="linearGradient8666">
      <stop
         style="stop-color:#d8f1ff;stop-opacity:0.4957265;"
         offset="0"
         id="stop8668" />
      <stop
         style="stop-color:#20b0ff;stop-opacity:0;"
         offset="1"
         id="stop8670" />
    </linearGradient>
    <linearGradient
       id="linearGradient8616">
      <stop
         style="stop-color:#ffffff;stop-opacity:1;"
         offset="0"
         id="stop8618" />
      <stop
         style="stop-color:#20b0ff;stop-opacity:1;"
         offset="1"
         id="stop8620" />
    </linearGradient>
  </defs>
  <sodipodi:namedview
     id="base"
     pagecolor="#ffffff"
     bordercolor="#666666"
     borderopacity="1.0"
     inkscape:pageopacity="0.0"
     inkscape:pageshadow="2"
     inkscape:zoom="0.49021774"
     inkscape:cx="833.65602"
     inkscape:cy="94.376154"
     inkscape:document-units="px"
     inkscape:current-layer="layer1"
     showgrid="false"
     inkscape:window-width="1436"
     inkscape:window-height="856"
     inkscape:window-x="0"
     inkscape:window-y="0"
     inkscape:window-maximized="1" />
  <metadata
     id="metadata5293">
    <rdf:RDF>
      <cc:Work
         rdf:about="">
        <dc:format>image/svg+xml</dc:format>
        <dc:type
           rdf:resource="http://purl.org/dc/dcmitype/StillImage" />
        <dc:title />
      </cc:Work>
    </rdf:RDF>
  </metadata>
  <g
     inkscape:label="Layer 1"
     inkscape:groupmode="layer"
     id="layer1"
     transform="translate(0,-1674.7244)">
    <path
       inkscape:connector-curvature="0"
       id="path8287"
       style="font-size:91.73291016px;font-style:normal;font-weight:normal;line-height:125%;letter-spacing:0px;word-spacing:0px;fill:#000000;fill-opacity:1;stroke:none;font-family:Sans"
       d="m 519.08611,1942.0094 c 1.17539,-2.1124 2.58078,-3.6711 4.21616,-4.6761 1.63533,-1.005 3.56028,-1.5076 5.77486,-1.5076 2.98108,0 5.2808,1.0477 6.89917,3.143 1.61828,2.0782 2.42744,5.0423 2.42748,8.8922 l 0,17.2735 -4.72721,0 0,-17.1202 c -4e-5,-2.7426 -0.48553,-4.7783 -1.45648,-6.107 -0.97104,-1.3287 -2.45308,-1.9931 -4.44613,-1.9932 -2.43604,10e-5 -4.36099,0.8093 -5.77486,2.4275 -1.41393,1.6184 -2.12089,3.8244 -2.12086,6.6181 l 0,16.1748 -4.72721,0 0,-17.1202 c -2e-5,-2.7596 -0.48552,-4.7953 -1.45649,-6.107 -0.97101,-1.3287 -2.47009,-1.9931 -4.49724,-1.9932 -2.40194,10e-5 -4.30986,0.8178 -5.72375,2.4531 -1.41391,1.6183 -2.12086,3.8159 -2.12085,6.5925 l 0,16.1748 -4.72721,0 0,-28.6188 4.72721,0 0,4.4461 c 1.07319,-1.7545 2.35933,-3.0492 3.85842,-3.8839 1.49906,-0.8348 3.27922,-1.2521 5.34047,-1.2521 2.07824,0 3.84136,0.5281 5.28936,1.5842 1.46498,1.0562 2.5467,2.5894 3.24516,4.5995" />
    <path
       inkscape:connector-curvature="0"
       id="path8289"
       style="font-size:91.73291016px;font-style:normal;font-weight:normal;line-height:125%;letter-spacing:0px;word-spacing:0px;fill:#000000;fill-opacity:1;stroke:none;font-family:Sans"
       d="m 560.81331,1950.7483 c -3.79882,0 -6.43072,0.4344 -7.89572,1.3032 -1.46501,0.8688 -2.19752,2.3508 -2.19751,4.4461 -1e-5,1.6695 0.54511,2.9982 1.63535,3.9862 1.10727,0.971 2.60635,1.4565 4.49724,1.4565 2.60634,0 4.69312,-0.9199 6.26036,-2.7597 1.58423,-1.8567 2.37635,-4.3183 2.37638,-7.3846 l 0,-1.0477 -4.6761,0 m 9.37775,-1.9419 0,16.328 -4.70165,0 0,-4.3439 c -1.07323,1.7375 -2.41047,3.0237 -4.01174,3.8584 -1.60131,0.8176 -3.56033,1.2265 -5.87707,1.2265 -2.93003,0 -5.26382,-0.8177 -7.00138,-2.453 -1.72054,-1.6524 -2.5808,-3.8585 -2.5808,-6.6181 0,-3.2196 1.0732,-5.6471 3.21961,-7.2825 2.16344,-1.6353 5.38305,-2.453 9.65884,-2.4531 l 6.59254,0 0,-0.4599 c -3e-5,-2.1634 -0.71549,-3.8328 -2.14641,-5.0083 -1.41392,-1.1924 -3.40701,-1.7886 -5.97928,-1.7886 -1.63537,0 -3.22814,0.1959 -4.77831,0.5877 -1.55019,0.3918 -3.04075,0.9795 -4.47168,1.7631 l 0,-4.344 c 1.72052,-0.6643 3.38995,-1.1583 5.00828,-1.482 1.61831,-0.3406 3.19404,-0.511 4.72721,-0.511 4.13948,0 7.23133,1.0732 9.27555,3.2196 2.04417,2.1464 3.06626,5.4001 3.06629,9.7611" />
    <path
       inkscape:connector-curvature="0"
       id="path8291"
       style="font-size:91.73291016px;font-style:normal;font-weight:normal;line-height:125%;letter-spacing:0px;word-spacing:0px;fill:#000000;fill-opacity:1;stroke:none;font-family:Sans"
       d="m 604.38028,1949.6496 0,2.2997 -21.6174,0 c 0.20441,3.2366 1.17541,5.7067 2.91299,7.4102 1.75459,1.6865 4.19058,2.5297 7.308,2.5297 1.80569,0 3.55177,-0.2215 5.23826,-0.6644 1.70347,-0.4429 3.38994,-1.1072 5.05939,-1.993 l 0,4.4461 c -1.68649,0.7155 -3.41554,1.2606 -5.18715,1.6353 -1.77166,0.3748 -3.56885,0.5622 -5.39157,0.5622 -4.56539,0 -8.18532,-1.3287 -10.85981,-3.9862 -2.65746,-2.6574 -3.98618,-6.2518 -3.98618,-10.7831 0,-4.6846 1.26058,-8.3983 3.78176,-11.1409 2.53821,-2.7597 5.95372,-4.1395 10.24655,-4.1395 3.84988,0 6.89063,1.2436 9.12223,3.7307 2.24859,2.47 3.3729,5.8345 3.37293,10.0932 m -4.70166,-1.3799 c -0.0341,-2.5722 -0.75808,-4.625 -2.17196,-6.1581 -1.39689,-1.5331 -3.2537,-2.2997 -5.57044,-2.2997 -2.6234,0 -4.72722,0.741 -6.31146,2.223 -1.56723,1.4821 -2.47008,3.5689 -2.70856,6.2604 l 16.76242,-0.026" />
    <path
       inkscape:connector-curvature="0"
       id="path8293"
       style="font-size:91.73291016px;font-style:normal;font-weight:normal;line-height:125%;letter-spacing:0px;word-spacing:0px;fill:#000000;fill-opacity:1;stroke:none;font-family:Sans"
       d="m 630.92929,1940.8595 0,-15.4848 4.70166,0 0,39.7597 -4.70166,0 0,-4.2929 c -0.98805,1.7035 -2.24012,2.9727 -3.75621,3.8074 -1.4991,0.8176 -3.30481,1.2265 -5.41713,1.2265 -3.45811,0 -6.27739,-1.3799 -8.45786,-4.1395 -2.16346,-2.7597 -3.24518,-6.3881 -3.24517,-10.8854 -10e-6,-4.4972 1.08171,-8.1257 3.24517,-10.8853 2.18047,-2.7597 4.99975,-4.1395 8.45786,-4.1395 2.11232,0 3.91803,0.4173 5.41713,1.2521 1.51609,0.8177 2.76816,2.0783 3.75621,3.7817 m -16.0214,9.991 c -10e-6,3.4582 0.70694,6.1752 2.12086,8.1513 1.43092,1.959 3.38994,2.9385 5.87706,2.9385 2.48709,0 4.44611,-0.9795 5.87707,-2.9385 1.43092,-1.9761 2.14639,-4.6931 2.14641,-8.1513 -2e-5,-3.4581 -0.71549,-6.1666 -2.14641,-8.1257 -1.43096,-1.976 -3.38998,-2.964 -5.87707,-2.964 -2.48712,0 -4.44614,0.988 -5.87706,2.964 -1.41392,1.9591 -2.12087,4.6676 -2.12086,8.1257" />
    <path
       inkscape:connector-curvature="0"
       id="path8295"
       style="font-size:91.73291016px;font-style:normal;font-weight:normal;line-height:125%;letter-spacing:0px;word-spacing:0px;fill:#000000;fill-opacity:1;stroke:none;font-family:Sans"
       d="m 658.32155,1950.7483 c -3.79881,0 -6.43072,0.4344 -7.89571,1.3032 -1.46502,0.8688 -2.19752,2.3508 -2.19751,4.4461 -10e-6,1.6695 0.5451,2.9982 1.63535,3.9862 1.10726,0.971 2.60635,1.4565 4.49724,1.4565 2.60634,0 4.69312,-0.9199 6.26035,-2.7597 1.58424,-1.8567 2.37636,-4.3183 2.37639,-7.3846 l 0,-1.0477 -4.67611,0 m 9.37776,-1.9419 0,16.328 -4.70165,0 0,-4.3439 c -1.07323,1.7375 -2.41047,3.0237 -4.01174,3.8584 -1.60131,0.8176 -3.56033,1.2265 -5.87708,1.2265 -2.93002,0 -5.26381,-0.8177 -7.00137,-2.453 -1.72054,-1.6524 -2.5808,-3.8585 -2.5808,-6.6181 0,-3.2196 1.0732,-5.6471 3.21961,-7.2825 2.16344,-1.6353 5.38305,-2.453 9.65883,-2.4531 l 6.59255,0 0,-0.4599 c -3e-5,-2.1634 -0.7155,-3.8328 -2.14641,-5.0083 -1.41393,-1.1924 -3.40702,-1.7886 -5.97928,-1.7886 -1.63537,0 -3.22814,0.1959 -4.77832,0.5877 -1.55019,0.3918 -3.04074,0.9795 -4.47168,1.7631 l 0,-4.344 c 1.72053,-0.6643 3.38996,-1.1583 5.00829,-1.482 1.61831,-0.3406 3.19404,-0.511 4.7272,-0.511 4.13949,0 7.23133,1.0732 9.27555,3.2196 2.04417,2.1464 3.06627,5.4001 3.0663,9.7611" />
    <path
       inkscape:connector-curvature="0"
       id="path8297"
       style="font-size:91.73291016px;font-style:normal;font-weight:normal;line-height:125%;letter-spacing:0px;word-spacing:0px;fill:#000000;fill-opacity:1;stroke:none;font-family:Sans"
       d="m 691.9486,1951.4127 c -2e-5,2.436 0.60472,4.3524 1.81422,5.7493 1.20947,1.3798 2.87037,2.0698 4.98273,2.0698 2.09528,0 3.73916,-0.6985 4.93164,-2.0954 1.20945,-1.3968 1.81419,-3.3047 1.81422,-5.7237 -3e-5,-2.3849 -0.61329,-4.2758 -1.83977,-5.6727 -1.22656,-1.4138 -2.87895,-2.1208 -4.95719,-2.1208 -2.06126,0 -3.70513,0.6984 -4.93163,2.0953 -1.2095,1.3969 -1.81424,3.2963 -1.81422,5.6982 m 13.9261,7.6402 c -1.02213,1.3116 -2.19755,2.2827 -3.52624,2.913 -1.31172,0.6132 -2.84487,0.9199 -4.59945,0.9199 -2.93004,0 -5.31493,-1.0562 -7.15469,-3.1686 -1.82276,-2.1293 -2.73413,-4.8975 -2.73412,-8.3045 -10e-6,-3.407 0.91988,-6.1752 2.75967,-8.3046 1.83976,-2.1293 4.21614,-3.194 7.12914,-3.1941 1.75458,10e-5 3.29624,0.3237 4.625,0.9711 1.32869,0.6303 2.49559,1.5928 3.50069,2.8874 l 0,-3.3474 3.654,0 0,18.8067 c 2.48707,-0.3748 4.42906,-1.5076 5.82596,-3.3985 1.41387,-1.9079 2.12082,-4.3695 2.12086,-7.3847 -4e-5,-1.8227 -0.2726,-3.5347 -0.81768,-5.1361 -0.52813,-1.6012 -1.33728,-3.0833 -2.42748,-4.4461 -1.77168,-2.2316 -3.93512,-3.935 -6.49033,-5.1105 -2.53824,-1.1924 -5.30643,-1.7886 -8.30456,-1.7886 -2.09532,0 -4.10545,0.2811 -6.03038,0.8432 -1.92497,0.5451 -3.70512,1.3628 -5.34047,2.453 -2.6745,1.7376 -4.7698,4.0203 -6.2859,6.8481 -1.49909,2.8108 -2.24863,5.86 -2.24862,9.1477 -10e-6,2.7087 0.48549,5.2468 1.45649,7.6147 0.98802,2.3679 2.41044,4.4546 4.26726,6.2604 1.78866,1.7716 3.85841,3.1174 6.20925,4.0373 2.35081,0.9369 4.86346,1.4053 7.53798,1.4053 2.19748,0 4.35241,-0.3748 6.46478,-1.1242 2.12934,-0.7326 4.07984,-1.7887 5.85151,-3.1686 l 2.29973,2.8364 c -2.12942,1.6523 -4.45468,2.9129 -6.97583,3.7817 -2.50417,0.8858 -5.0509,1.3288 -7.64019,1.3288 -3.15149,0 -6.1241,-0.5622 -8.91781,-1.6865 -2.79376,-1.1073 -5.28086,-2.7256 -7.46133,-4.855 -2.18048,-2.1294 -3.84139,-4.5909 -4.98273,-7.3847 -1.14134,-2.8107 -1.71201,-5.8259 -1.71201,-9.0456 0,-3.1003 0.57918,-6.0558 1.73757,-8.8666 1.15837,-2.8108 2.81076,-5.2808 4.95717,-7.4102 2.19751,-2.1635 4.73572,-3.8159 7.61464,-4.9573 2.8789,-1.1583 5.92816,-1.7375 9.14779,-1.7375 3.61138,0 6.95876,0.741 10.04212,2.2231 3.10033,1.482 5.69816,3.5859 7.79351,6.3114 1.27757,1.6695 2.24857,3.4837 2.91298,5.4427 0.68135,1.959 1.02205,3.9862 1.0221,6.0815 -5e-5,4.4802 -1.35433,8.0149 -4.06285,10.6043 -2.7086,2.5893 -6.44777,3.9351 -11.21753,4.0372 l 0,-3.935" />
    <path
       inkscape:connector-curvature="0"
       id="path8299"
       style="font-size:91.73291016px;font-style:normal;font-weight:normal;line-height:125%;letter-spacing:0px;word-spacing:0px;fill:#000000;fill-opacity:1;stroke:none;font-family:Sans"
       d="m 729.74071,1936.5156 4.70165,0 0,28.6188 -4.70165,0 0,-28.6188 m 0,-11.1409 4.70165,0 0,5.9537 -4.70165,0 0,-5.9537" />
    <path
       inkscape:connector-curvature="0"
       id="path8301"
       style="font-size:91.73291016px;font-style:normal;font-weight:normal;line-height:125%;letter-spacing:0px;word-spacing:0px;fill:#000000;fill-opacity:1;stroke:none;font-family:Sans"
       d="m 744.25452,1925.3747 4.70165,0 0,39.7597 -4.70165,0 0,-39.7597" />
    <path
       inkscape:connector-curvature="0"
       id="path8303"
       style="font-size:91.73291016px;font-style:normal;font-weight:normal;line-height:125%;letter-spacing:0px;word-spacing:0px;fill:#000000;fill-opacity:1;stroke:none;font-family:Sans"
       d="m 758.76833,1925.3747 4.70166,0 0,39.7597 -4.70166,0 0,-39.7597" />
    <path
       inkscape:connector-curvature="0"
       id="path8305"
       style="font-size:91.73291016px;font-style:normal;font-weight:normal;line-height:125%;letter-spacing:0px;word-spacing:0px;fill:#000000;fill-opacity:1;stroke:none;font-family:Sans"
       d="m 773.28212,1936.5156 4.70166,0 0,28.6188 -4.70166,0 0,-28.6188 m 0,-11.1409 4.70166,0 0,5.9537 -4.70166,0 0,-5.9537" />
    <path
       inkscape:connector-curvature="0"
       id="path8307"
       style="font-size:91.73291016px;font-style:normal;font-weight:normal;line-height:125%;letter-spacing:0px;word-spacing:0px;fill:#000000;fill-opacity:1;stroke:none;font-family:Sans"
       d="m 785.41955,1948.7041 13.77279,0 0,4.1906 -13.77279,0 0,-4.1906" />
    <path
       inkscape:connector-curvature="0"
       id="path8309"
       style="font-size:91.73291016px;font-style:normal;font-weight:normal;line-height:125%;letter-spacing:0px;word-spacing:0px;fill:#000000;fill-opacity:1;stroke:none;font-family:Sans"
       d="m 806.70477,1936.5156 4.70166,0 0,28.6188 -4.70166,0 0,-28.6188 m 0,-11.1409 4.70166,0 0,5.9537 -4.70166,0 0,-5.9537" />
    <path
       inkscape:connector-curvature="0"
       id="path8311"
       style="font-size:91.73291016px;font-style:normal;font-weight:normal;line-height:125%;letter-spacing:0px;word-spacing:0px;fill:#000000;fill-opacity:1;stroke:none;font-family:Sans"
       d="m 841.81386,1937.6143 0,4.3951 c -1.32875,-0.7325 -2.666,-1.2776 -4.01173,-1.6354 -1.32875,-0.3747 -2.67452,-0.5621 -4.0373,-0.5621 -3.04927,0 -5.41713,0.971 -7.10359,2.9129 -1.68647,1.925 -2.5297,4.6336 -2.52969,8.1257 -10e-6,3.4922 0.84322,6.2093 2.52969,8.1513 1.68646,1.925 4.05432,2.8874 7.10359,2.8874 1.36278,0 2.70855,-0.1788 4.0373,-0.5366 1.34573,-0.3748 2.68298,-0.9284 4.01173,-1.6609 l 0,4.3439 c -1.31172,0.6133 -2.67452,1.0732 -4.0884,1.3798 -1.39688,0.3067 -2.88744,0.46 -4.47168,0.46 -4.30986,0 -7.73389,-1.3543 -10.27209,-4.0629 -2.53822,-2.7085 -3.80732,-6.3625 -3.80732,-10.962 0,-4.6675 1.27762,-8.3386 3.83287,-11.0131 2.57227,-2.6745 6.09,-4.0117 10.55318,-4.0117 1.44795,0 2.86185,0.1533 4.24171,0.4599 1.37981,0.2896 2.71705,0.7325 4.01173,1.3287" />
    <path
       inkscape:connector-curvature="0"
       id="path8313"
       style="font-size:91.73291016px;font-style:normal;font-weight:normal;line-height:125%;letter-spacing:0px;word-spacing:0px;fill:#000000;fill-opacity:1;stroke:none;font-family:Sans"
       d="m 873.83112,1947.8609 0,17.2735 -4.70166,0 0,-17.1202 c -2e-5,-2.7085 -0.5281,-4.7357 -1.58425,-6.0815 -1.05619,-1.3457 -2.64044,-2.0186 -4.75276,-2.0187 -2.53822,10e-5 -4.53983,0.8093 -6.00483,2.4275 -1.46502,1.6184 -2.19752,3.8244 -2.19751,6.6181 l 0,16.1748 -4.72721,0 0,-39.7597 4.72721,0 0,15.587 c 1.1243,-1.7205 2.44451,-3.0066 3.96063,-3.8584 1.53314,-0.8517 3.29626,-1.2776 5.28936,-1.2776 3.28773,0 5.77484,1.0221 7.46132,3.0663 1.68644,2.0272 2.52967,5.0168 2.5297,8.9689" />
    <path
       inkscape:connector-curvature="0"
       id="path8315"
       style="font-size:91.73291016px;font-style:normal;font-weight:normal;line-height:125%;letter-spacing:0px;word-spacing:0px;fill:#000000;fill-opacity:1;stroke:none;font-family:Sans"
       d="m 883.25997,1936.5156 4.70166,0 0,28.6188 -4.70166,0 0,-28.6188 m 0,-11.1409 4.70166,0 0,5.9537 -4.70166,0 0,-5.9537" />
    <path
       inkscape:connector-curvature="0"
       id="path8317"
       style="font-size:91.73291016px;font-style:normal;font-weight:normal;line-height:125%;letter-spacing:0px;word-spacing:0px;fill:#000000;fill-opacity:1;stroke:none;font-family:Sans"
       d="m 898.43813,1958.644 5.39158,0 0,6.4904 -5.39158,0 0,-6.4904" />
    <path
       inkscape:connector-curvature="0"
       id="path8319"
       style="font-size:91.73291016px;font-style:normal;font-weight:normal;line-height:125%;letter-spacing:0px;word-spacing:0px;fill:#000000;fill-opacity:1;stroke:none;font-family:Sans"
       d="m 935.02931,1937.6143 0,4.3951 c -1.3288,-0.7325 -2.666,-1.2776 -4.0118,-1.6354 -1.3287,-0.3747 -2.6745,-0.5621 -4.0373,-0.5621 -3.0492,0 -5.4171,0.971 -7.1035,2.9129 -1.6865,1.925 -2.5298,4.6336 -2.5297,8.1257 -10e-5,3.4922 0.8432,6.2093 2.5297,8.1513 1.6864,1.925 4.0543,2.8874 7.1035,2.8874 1.3628,0 2.7086,-0.1788 4.0373,-0.5366 1.3458,-0.3748 2.683,-0.9284 4.0118,-1.6609 l 0,4.3439 c -1.3117,0.6133 -2.6745,1.0732 -4.0884,1.3798 -1.3969,0.3067 -2.8875,0.46 -4.4717,0.46 -4.3099,0 -7.7339,-1.3543 -10.2721,-4.0629 -2.5382,-2.7085 -3.80732,-6.3625 -3.80732,-10.962 0,-4.6675 1.27762,-8.3386 3.83282,-11.0131 2.5723,-2.6745 6.09,-4.0117 10.5532,-4.0117 1.448,0 2.8619,0.1533 4.2417,0.4599 1.3798,0.2896 2.7171,0.7325 4.0118,1.3287" />
    <path
       inkscape:connector-curvature="0"
       id="path8321"
       style="font-size:91.73291016px;font-style:normal;font-weight:normal;line-height:125%;letter-spacing:0px;word-spacing:0px;fill:#000000;fill-opacity:1;stroke:none;font-family:Sans"
       d="m 954.34691,1939.8119 c -2.5211,0 -4.5142,0.988 -5.9792,2.9641 -1.465,1.959 -2.1976,4.6505 -2.1975,8.0745 -10e-5,3.4241 0.7239,6.1241 2.1719,8.1002 1.465,1.959 3.4666,2.9385 6.0048,2.9385 2.50419,0 4.48869,-0.988 5.95379,-2.9641 1.465,-1.9761 2.1974,-4.6676 2.1975,-8.0746 -10e-5,-3.3899 -0.7325,-6.0729 -2.1975,-8.049 -1.4651,-1.9931 -3.4496,-2.9896 -5.95379,-2.9896 m 0,-3.9862 c 4.08839,0 7.29949,1.3287 9.63329,3.9862 2.3338,2.6574 3.5007,6.337 3.5007,11.0386 0,4.6847 -1.1669,8.3642 -3.5007,11.0387 -2.3338,2.6575 -5.5449,3.9862 -9.63329,3.9862 -4.1054,0 -7.325,-1.3287 -9.6588,-3.9862 -2.3167,-2.6745 -3.4751,-6.354 -3.4751,-11.0387 0,-4.7016 1.1584,-8.3812 3.4751,-11.0386 2.3338,-2.6575 5.5534,-3.9862 9.6588,-3.9862" />
    <path
       inkscape:connector-curvature="0"
       id="path8323"
       style="font-size:91.73291016px;font-style:normal;font-weight:normal;line-height:125%;letter-spacing:0px;word-spacing:0px;fill:#000000;fill-opacity:1;stroke:none;font-family:Sans"
       d="m 997.53068,1942.0094 c 1.1753,-2.1124 2.58072,-3.6711 4.21612,-4.6761 1.6353,-1.005 3.5602,-1.5076 5.7748,-1.5076 2.9811,0 5.2809,1.0477 6.8992,3.143 1.6183,2.0782 2.4274,5.0423 2.4275,8.8922 l 0,17.2735 -4.7272,0 0,-17.1202 c -10e-5,-2.7426 -0.4855,-4.7783 -1.4565,-6.107 -0.971,-1.3287 -2.4531,-1.9931 -4.4461,-1.9932 -2.4361,10e-5 -4.361,0.8093 -5.7749,2.4275 -1.41392,1.6184 -2.12082,3.8244 -2.12082,6.6181 l 0,16.1748 -4.72718,0 0,-17.1202 c -10e-5,-2.7596 -0.4856,-4.7953 -1.4565,-6.107 -0.971,-1.3287 -2.4701,-1.9931 -4.4973,-1.9932 -2.4019,10e-5 -4.3098,0.8178 -5.7237,2.4531 -1.4139,1.6183 -2.1209,3.8159 -2.1209,6.5925 l 0,16.1748 -4.7272,0 0,-28.6188 4.7272,0 0,4.4461 c 1.0732,-1.7545 2.3593,-3.0492 3.8584,-3.8839 1.4991,-0.8348 3.2793,-1.2521 5.3405,-1.2521 2.0782,0 3.8414,0.5281 5.2894,1.5842 1.46498,1.0562 2.54668,2.5894 3.24518,4.5995" />
    <path
       inkscape:connector-curvature="0"
       id="path8260"
       style="font-size:162.82998657px;font-style:normal;font-weight:normal;line-height:125%;letter-spacing:0px;word-spacing:0px;fill:#000000;fill-opacity:1;stroke:none;font-family:Sans"
       d="m 417.84221,1773.9557 6.41612,0 12.24089,18.1544 12.1522,-18.1544 6.41612,0 -15.61158,23.1217 0,21.0224 -6.00218,0 0,-21.0224 -15.61157,-23.1217" />
    <path
       inkscape:connector-curvature="0"
       id="path8262"
       style="font-size:162.82998657px;font-style:normal;font-weight:normal;line-height:125%;letter-spacing:0px;word-spacing:0px;fill:#000000;fill-opacity:1;stroke:none;font-family:Sans"
       d="m 467.45627,1801.4534 c -4.3957,0 -7.44114,0.5027 -9.13632,1.5079 -1.69521,1.0054 -2.5428,2.7202 -2.5428,5.1447 0,1.9318 0.63076,3.4693 1.89231,4.6126 1.28125,1.1235 3.01587,1.6853 5.20386,1.6853 3.01586,0 5.43053,-1.0644 7.24402,-3.1933 1.83315,-2.1486 2.74973,-4.9968 2.74976,-8.545 l 0,-1.2122 -5.41083,0 m 10.85123,-2.2471 0,18.8935 -5.4404,0 0,-5.0265 c -1.24185,2.0106 -2.78921,3.4988 -4.64208,4.4647 -1.85291,0.9462 -4.11974,1.4193 -6.8005,1.4193 -3.3904,0 -6.09088,-0.9462 -8.10146,-2.8385 -1.99087,-1.912 -2.98631,-4.4647 -2.9863,-7.6579 -1e-5,-3.7255 1.24182,-6.5344 3.72548,-8.4268 2.50337,-1.8922 6.22886,-2.8384 11.17648,-2.8384 l 7.62838,0 0,-0.5322 c -3e-5,-2.5034 -0.82791,-4.4351 -2.48366,-5.7952 -1.63608,-1.3798 -3.94234,-2.0697 -6.91877,-2.0698 -1.89232,10e-5 -3.73536,0.2268 -5.5291,0.6801 -1.79376,0.4534 -3.51852,1.1334 -5.17429,2.0401 l 0,-5.0264 c 1.99086,-0.7687 3.9226,-1.3404 5.79521,-1.7149 1.87259,-0.3942 3.6959,-0.5913 5.46997,-0.5914 4.78989,10e-5 8.36753,1.2419 10.73295,3.7255 2.36536,2.4838 3.54806,6.2486 3.54809,11.2948" />
    <path
       inkscape:connector-curvature="0"
       id="path8264"
       style="font-size:162.82998657px;font-style:normal;font-weight:normal;line-height:125%;letter-spacing:0px;word-spacing:0px;fill:#000000;fill-opacity:1;stroke:none;font-family:Sans"
       d="m 510.65421,1785.9601 0,5.1447 c -1.53753,-0.7884 -3.13417,-1.3798 -4.78991,-1.7741 -1.6558,-0.3942 -3.3707,-0.5913 -5.14473,-0.5913 -2.7005,0 -4.73079,0.414 -6.09088,1.2419 -1.3404,0.8278 -2.01059,2.0696 -2.01058,3.7254 -10e-6,1.2616 0.48292,2.257 1.4488,2.9863 0.96586,0.7097 2.90745,1.3897 5.82477,2.0402 l 1.86275,0.4139 c 3.86345,0.8279 6.60336,2.0008 8.21973,3.5185 1.63604,1.4982 2.45406,3.5975 2.45409,6.2979 -3e-5,3.075 -1.22214,5.5094 -3.66635,7.3031 -2.42455,1.7938 -5.76566,2.6907 -10.02334,2.6907 -1.77406,0 -3.62695,-0.1774 -5.55867,-0.5322 -1.91204,-0.3352 -3.93247,-0.8476 -6.06131,-1.5375 l 0,-5.6179 c 2.01057,1.0448 3.99159,1.8332 5.94304,2.3655 1.95144,0.5125 3.88317,0.7687 5.79521,0.7687 2.56248,0 4.53364,-0.4336 5.91347,-1.301 1.37979,-0.887 2.0697,-2.1288 2.06972,-3.7254 -2e-5,-1.4784 -0.50267,-2.6119 -1.50794,-3.4003 -0.9856,-0.7885 -3.16373,-1.5473 -6.53439,-2.2767 l -1.89231,-0.4435 c -3.37069,-0.7096 -5.80507,-1.7938 -7.30314,-3.2524 -1.49809,-1.4783 -2.24713,-3.4988 -2.24712,-6.0613 -10e-6,-3.1144 1.10384,-5.5192 3.31154,-7.2145 2.20769,-1.6952 5.34183,-2.5427 9.40243,-2.5428 2.01056,10e-5 3.90287,0.1479 5.67694,0.4435 1.77401,0.2957 3.41007,0.7393 4.90818,1.3306" />
    <path
       inkscape:connector-curvature="0"
       id="path8266"
       style="font-size:162.82998657px;font-style:normal;font-weight:normal;line-height:125%;letter-spacing:0px;word-spacing:0px;fill:#000000;fill-opacity:1;stroke:none;font-family:Sans"
       d="m 520.55928,1805.0311 0,-20.0468 5.4404,0 0,19.8398 c -10e-6,3.1341 0.61105,5.4896 1.83317,7.0665 1.22211,1.5573 3.05528,2.3359 5.49954,2.3359 2.937,0 5.25311,-0.9363 6.94833,-2.8089 1.71488,-1.8726 2.57233,-4.4252 2.57236,-7.658 l 0,-18.7753 5.4404,0 0,33.1155 -5.4404,0 0,-5.0856 c -1.3207,2.0106 -2.8582,3.5087 -4.61251,4.4943 -1.73464,0.9658 -3.75507,1.4488 -6.06131,1.4488 -3.80435,0 -6.6921,-1.1827 -8.66324,-3.5481 -1.97117,-2.3654 -2.95674,-5.8248 -2.95674,-10.3781" />
    <path
       inkscape:connector-curvature="0"
       id="path8268"
       style="font-size:162.82998657px;font-style:normal;font-weight:normal;line-height:125%;letter-spacing:0px;word-spacing:0px;fill:#000000;fill-opacity:1;stroke:none;font-family:Sans"
       d="m 573.33705,1821.1749 c -1.53752,3.9422 -3.0356,6.5146 -4.49424,7.717 -1.45867,1.2024 -3.41011,1.8036 -5.85434,1.8036 l -4.3464,0 0,-4.5534 3.19327,0 c 1.49807,0 2.66106,-0.3548 3.48895,-1.0644 0.82788,-0.7096 1.74447,-2.3851 2.74977,-5.0265 l 0.97572,-2.4836 -13.39402,-32.5833 5.76564,0 10.34858,25.9011 10.34858,-25.9011 5.76564,0 -14.54715,36.1906" />
    <path
       inkscape:connector-curvature="0"
       id="path8270"
       style="font-size:162.82998657px;font-style:normal;font-weight:normal;line-height:125%;letter-spacing:0px;word-spacing:0px;fill:#000000;fill-opacity:1;stroke:none;font-family:Sans"
       d="m 594.83254,1805.0311 0,-20.0468 5.44039,0 0,19.8398 c -10e-6,3.1341 0.61105,5.4896 1.83318,7.0665 1.22211,1.5573 3.05528,2.3359 5.49953,2.3359 2.937,0 5.25312,-0.9363 6.94834,-2.8089 1.71488,-1.8726 2.57233,-4.4252 2.57236,-7.658 l 0,-18.7753 5.4404,0 0,33.1155 -5.4404,0 0,-5.0856 c -1.3207,2.0106 -2.8582,3.5087 -4.61251,4.4943 -1.73464,0.9658 -3.75508,1.4488 -6.06131,1.4488 -3.80435,0 -6.6921,-1.1827 -8.66325,-3.5481 -1.97116,-2.3654 -2.95674,-5.8248 -2.95673,-10.3781" />
    <path
       inkscape:connector-curvature="0"
       id="path8272"
       style="font-size:162.82998657px;font-style:normal;font-weight:normal;line-height:125%;letter-spacing:0px;word-spacing:0px;fill:#000000;fill-opacity:1;stroke:none;font-family:Sans"
       d="m 633.62493,1772.093 5.46996,0 0,27.1724 16.23249,-14.2811 6.94834,0 -17.56302,15.4934 18.3022,17.6221 -7.09617,0 -16.82384,-16.1733 0,16.1733 -5.46996,0 0,-46.0068" />
    <path
       inkscape:connector-curvature="0"
       id="path8274"
       style="font-size:162.82998657px;font-style:normal;font-weight:normal;line-height:125%;letter-spacing:0px;word-spacing:0px;fill:#000000;fill-opacity:1;stroke:none;font-family:Sans"
       d="m 668.95797,1784.9843 5.44039,0 0,33.1155 -5.44039,0 0,-33.1155 m 0,-12.8913 5.44039,0 0,6.8892 -5.44039,0 0,-6.8892" />
    <path
       inkscape:connector-curvature="0"
       id="path8276"
       style="font-size:162.82998657px;font-style:normal;font-weight:normal;line-height:125%;letter-spacing:0px;word-spacing:0px;fill:#000000;fill-opacity:1;stroke:none;font-family:Sans"
       d="m 705.26669,1773.9557 8.89978,0 11.26517,30.0405 11.32431,-30.0405 8.89978,0 0,44.1441 -5.82477,0 0,-38.7628 -11.38344,30.277 -6.00219,0 -11.38344,-30.277 0,38.7628 -5.7952,0 0,-44.1441" />
    <path
       inkscape:connector-curvature="0"
       id="path8278"
       style="font-size:162.82998657px;font-style:normal;font-weight:normal;line-height:125%;letter-spacing:0px;word-spacing:0px;fill:#000000;fill-opacity:1;stroke:none;font-family:Sans"
       d="m 772.35507,1801.4534 c -4.39571,0 -7.44114,0.5027 -9.13633,1.5079 -1.6952,1.0054 -2.5428,2.7202 -2.54279,5.1447 -10e-6,1.9318 0.63076,3.4693 1.89231,4.6126 1.28124,1.1235 3.01586,1.6853 5.20386,1.6853 3.01585,0 5.43052,-1.0644 7.24401,-3.1933 1.83315,-2.1486 2.74974,-4.9968 2.74976,-8.545 l 0,-1.2122 -5.41082,0 m 10.85122,-2.2471 0,18.8935 -5.4404,0 0,-5.0265 c -1.24185,2.0106 -2.78921,3.4988 -4.64207,4.4647 -1.85291,0.9462 -4.11974,1.4193 -6.8005,1.4193 -3.39041,0 -6.09089,-0.9462 -8.10146,-2.8385 -1.99088,-1.912 -2.98631,-4.4647 -2.98631,-7.6579 0,-3.7255 1.24183,-6.5344 3.72549,-8.4268 2.50336,-1.8922 6.22885,-2.8384 11.17647,-2.8384 l 7.62838,0 0,-0.5322 c -2e-5,-2.5034 -0.82791,-4.4351 -2.48365,-5.7952 -1.63609,-1.3798 -3.94234,-2.0697 -6.91877,-2.0698 -1.89233,10e-5 -3.73536,0.2268 -5.5291,0.6801 -1.79377,0.4534 -3.51853,1.1334 -5.17429,2.0401 l 0,-5.0264 c 1.99086,-0.7687 3.92259,-1.3404 5.7952,-1.7149 1.87259,-0.3942 3.69591,-0.5913 5.46997,-0.5914 4.78989,10e-5 8.36754,1.2419 10.73296,3.7255 2.36535,2.4838 3.54805,6.2486 3.54808,11.2948" />
    <path
       inkscape:connector-curvature="0"
       id="path8280"
       style="font-size:162.82998657px;font-style:normal;font-weight:normal;line-height:125%;letter-spacing:0px;word-spacing:0px;fill:#000000;fill-opacity:1;stroke:none;font-family:Sans"
       d="m 822.76746,1800.1819 0,2.6612 -25.01401,0 c 0.23652,3.7451 1.36009,6.6033 3.37069,8.5745 2.03027,1.9514 4.84901,2.9272 8.45625,2.9272 2.0894,0 4.10985,-0.2563 6.06131,-0.7688 1.97114,-0.5125 3.92257,-1.2812 5.85436,-2.3063 l 0,5.1448 c -1.9515,0.8279 -3.9522,1.4586 -6.00218,1.8923 -2.05005,0.4337 -4.12959,0.6505 -6.23873,0.6505 -5.2827,0 -9.47143,-1.5375 -12.56614,-4.6125 -3.07501,-3.0751 -4.61249,-7.2342 -4.61249,-12.4775 0,-5.4207 1.45864,-9.7177 4.37597,-12.8913 2.93699,-3.1933 6.88916,-4.7899 11.8565,-4.79 4.45481,10e-5 7.97332,1.439 10.55558,4.3169 2.60189,2.8582 3.90286,6.7512 3.90289,11.679 m -5.44041,-1.5965 c -0.0395,-2.9765 -0.8772,-5.3517 -2.51323,-7.1258 -1.61636,-1.774 -3.76493,-2.661 -6.4457,-2.6611 -3.03558,10e-5 -5.46998,0.8575 -7.30311,2.5724 -1.8135,1.7149 -2.85819,4.1296 -3.13417,7.244 l 19.39621,-0.029" />
    <path
       inkscape:connector-curvature="0"
       id="path8282"
       style="font-size:162.82998657px;font-style:normal;font-weight:normal;line-height:125%;letter-spacing:0px;word-spacing:0px;fill:#000000;fill-opacity:1;stroke:none;font-family:Sans"
       d="m 853.48794,1790.0108 0,-17.9178 5.44041,0 0,46.0068 -5.44041,0 0,-4.9673 c -1.14329,1.9712 -2.59208,3.4396 -4.34641,4.4055 -1.73462,0.9462 -3.82405,1.4193 -6.26826,1.4193 -4.00148,0 -7.26373,-1.5966 -9.78682,-4.7899 -2.50338,-3.1933 -3.75503,-7.3919 -3.75503,-12.5957 0,-5.2039 1.25165,-9.4024 3.75503,-12.5957 2.52309,-3.1933 5.78534,-4.7899 9.78682,-4.79 2.44421,10e-5 4.53364,0.483 6.26826,1.4489 1.75433,0.9461 3.20312,2.4048 4.34641,4.3759 m -18.53872,11.5609 c -4e-5,4.0014 0.818,7.1454 2.45407,9.432 1.65578,2.2668 3.9226,3.4002 6.80051,3.4002 2.87786,0 5.14468,-1.1334 6.8005,-3.4002 1.65574,-2.2866 2.48364,-5.4306 2.48364,-9.432 0,-4.0014 -0.8279,-7.1356 -2.48364,-9.4025 -1.65582,-2.2865 -3.92264,-3.4298 -6.8005,-3.4298 -2.87791,0 -5.14473,1.1433 -6.80051,3.4298 -1.63607,2.2669 -2.45411,5.4011 -2.45407,9.4025" />
    <path
       inkscape:connector-curvature="0"
       id="path8284"
       style="font-size:162.82998657px;font-style:normal;font-weight:normal;line-height:125%;letter-spacing:0px;word-spacing:0px;fill:#000000;fill-opacity:1;stroke:none;font-family:Sans"
       d="m 885.1842,1801.4534 c -4.39572,0 -7.44116,0.5027 -9.13632,1.5079 -1.69524,1.0054 -2.5428,2.7202 -2.5428,5.1447 0,1.9318 0.63075,3.4693 1.8923,4.6126 1.28125,1.1235 3.01587,1.6853 5.20385,1.6853 3.01588,0 5.43053,-1.0644 7.24402,-3.1933 1.83313,-2.1486 2.74976,-4.9968 2.74976,-8.545 l 0,-1.2122 -5.41081,0 m 10.85122,-2.2471 0,18.8935 -5.44041,0 0,-5.0265 c -1.24184,2.0106 -2.78921,3.4988 -4.64206,4.4647 -1.85291,0.9462 -4.11974,1.4193 -6.8005,1.4193 -3.3904,0 -6.09092,-0.9462 -8.10148,-2.8385 -1.99088,-1.912 -2.98631,-4.4647 -2.98631,-7.6579 0,-3.7255 1.24184,-6.5344 3.72551,-8.4268 2.50334,-1.8922 6.22885,-2.8384 11.17648,-2.8384 l 7.62836,0 0,-0.5322 c 0,-2.5034 -0.8279,-4.4351 -2.48368,-5.7952 -1.63607,-1.3798 -3.94231,-2.0697 -6.91872,-2.0698 -1.89234,10e-5 -3.73536,0.2268 -5.52911,0.6801 -1.79379,0.4534 -3.51855,1.1334 -5.17429,2.0401 l 0,-5.0264 c 1.99084,-0.7687 3.9226,-1.3404 5.79519,-1.7149 1.87259,-0.3942 3.6959,-0.5913 5.46998,-0.5914 4.78987,10e-5 8.36751,1.2419 10.73296,3.7255 2.36534,2.4838 3.54804,6.2486 3.54808,11.2948" />
    <a
       id="twitter"
       xlink:href="http://twitter.com/maeda_"
       target="_blank">
      <path
         d="m 506.76537,1876.8825 c -1e-5,2.4047 0.59694,4.2964 1.79087,5.6753 1.19388,1.362 2.8334,2.0431 4.91856,2.0431 2.06829,0 3.691,-0.6894 4.86813,-2.0683 1.19387,-1.3789 1.79082,-3.2623 1.79086,-5.6501 -4e-5,-2.3541 -0.6054,-4.2207 -1.81609,-5.5996 -1.21075,-1.3956 -2.84186,-2.0935 -4.89334,-2.0935 -2.03472,0 -3.65742,0.6894 -4.86812,2.0683 -1.19393,1.3789 -1.79088,3.2538 -1.79087,5.6248 m 13.74677,7.5418 c -1.00897,1.2948 -2.16925,2.2533 -3.48084,2.8755 -1.29483,0.6053 -2.80823,0.908 -4.54021,0.908 -2.89231,0 -5.24649,-1.0425 -7.06256,-3.1277 -1.79928,-2.1019 -2.69892,-4.8345 -2.6989,-8.1976 -2e-5,-3.3631 0.90803,-6.0956 2.72413,-8.1976 1.81606,-2.1019 4.16184,-3.1529 7.03733,-3.1529 1.73198,0 3.25379,0.3195 4.56544,0.9585 1.31159,0.6222 2.46345,1.5723 3.45561,2.8502 l 0,-3.3043 3.60695,0 0,18.5645 c 2.45503,-0.3699 4.37201,-1.4882 5.75093,-3.3547 1.39566,-1.8834 2.0935,-4.3132 2.09355,-7.2896 -5e-5,-1.7992 -0.26909,-3.4892 -0.80715,-5.0699 -0.52133,-1.5806 -1.32007,-3.0436 -2.39622,-4.3889 -1.74887,-2.2028 -3.88445,-3.8844 -6.40675,-5.0447 -2.50556,-1.177 -5.2381,-1.7656 -8.19762,-1.7656 -2.06834,0 -4.05258,0.2775 -5.95272,0.8324 -1.90018,0.5381 -3.65742,1.3452 -5.2717,2.4214 -2.64006,1.7152 -4.70838,3.9686 -6.20496,6.7599 -1.47978,2.7746 -2.21966,5.7846 -2.21966,9.03 0,2.6737 0.47924,5.1792 1.43774,7.5166 0.97529,2.3373 2.37939,4.3972 4.21231,6.1797 1.76562,1.7488 3.80872,3.0773 6.12929,3.9853 2.32053,0.9248 4.80083,1.3873 7.44091,1.3873 2.16919,0 4.29636,-0.37 6.38152,-1.1098 2.10192,-0.7231 4.0273,-1.7657 5.77617,-3.1277 l 2.27011,2.7998 c -2.102,1.6311 -4.39733,2.8754 -6.886,3.733 -2.47192,0.8744 -4.98586,1.3116 -7.5418,1.3116 -3.11092,0 -6.04524,-0.5549 -8.80298,-1.6647 -2.75777,-1.093 -5.21285,-2.6905 -7.36524,-4.7924 -2.1524,-2.102 -3.79192,-4.5319 -4.91856,-7.2896 -1.12665,-2.7746 -1.68997,-5.751 -1.68997,-8.9291 0,-3.0604 0.57173,-5.978 1.71519,-8.7525 1.14346,-2.7746 2.77457,-5.2129 4.89334,-7.3148 2.16921,-2.1356 4.67473,-3.7667 7.51658,-4.8934 2.84182,-1.1434 5.85182,-1.7152 9.02999,-1.7152 3.56488,0 6.86914,0.7316 9.9128,2.1945 3.0604,1.463 5.62478,3.5397 7.69314,6.2302 1.26113,1.6479 2.21962,3.4387 2.87547,5.3725 0.67258,1.9338 1.00889,3.9349 1.00894,6.0032 -5e-5,4.4225 -1.33689,7.9118 -4.01052,10.4678 -2.67373,2.5559 -6.36475,3.8843 -11.07308,3.9852 l 0,-3.8844"
         style="font-size:90.55160522px;font-style:normal;font-weight:normal;line-height:125%;letter-spacing:0px;word-spacing:0px;fill:#000000;fill-opacity:1;stroke:none;font-family:Sans"
         id="path8326"
         inkscape:connector-curvature="0" />
      <path
         d="m 566.06563,1867.6003 c 1.16025,-2.0851 2.54753,-3.6237 4.16186,-4.6159 1.61427,-0.9921 3.51444,-1.4881 5.7005,-1.4882 2.94269,10e-5 5.2128,1.0343 6.81032,3.1025 1.59744,2.0516 2.39618,4.9775 2.39622,8.7778 l 0,17.051 -4.66633,0 0,-16.8997 c -4e-5,-2.7073 -0.47928,-4.7167 -1.43773,-6.0284 -0.95853,-1.3116 -2.42149,-1.9674 -4.38887,-1.9674 -2.40467,0 -4.30483,0.7987 -5.7005,2.3962 -1.39572,1.5975 -2.09357,3.7751 -2.09354,6.5329 l 0,15.9664 -4.66634,0 0,-16.8997 c -2e-5,-2.7241 -0.47926,-4.7336 -1.43773,-6.0284 -0.95851,-1.3116 -2.43828,-1.9674 -4.43932,-1.9674 -2.37102,0 -4.25436,0.8072 -5.65005,2.4215 -1.3957,1.5975 -2.09355,3.7666 -2.09354,6.5076 l 0,15.9664 -4.66633,0 0,-28.2502 4.66633,0 0,4.3888 c 1.05937,-1.7319 2.32895,-3.0099 3.80873,-3.8339 1.47976,-0.824 3.237,-1.2359 5.2717,-1.236 2.05148,10e-5 3.7919,0.5213 5.22125,1.5639 1.44611,1.0426 2.51391,2.556 3.20337,4.5402"
         style="font-size:90.55160522px;font-style:normal;font-weight:normal;line-height:125%;letter-spacing:0px;word-spacing:0px;fill:#000000;fill-opacity:1;stroke:none;font-family:Sans"
         id="path8328"
         inkscape:connector-curvature="0" />
      <path
         d="m 607.25547,1876.2267 c -3.74989,0 -6.3479,0.4288 -7.79403,1.2864 -1.44616,0.8576 -2.16922,2.3206 -2.16922,4.3889 0,1.6479 0.53809,2.9595 1.6143,3.9348 1.09301,0.9585 2.57278,1.4378 4.43932,1.4378 2.57277,0 4.63268,-0.908 6.17974,-2.7242 1.56383,-1.8328 2.34576,-4.2627 2.34578,-7.2895 l 0,-1.0342 -4.61589,0 m 9.257,-1.917 0,16.1178 -4.64111,0 0,-4.288 c -1.0594,1.7152 -2.37943,2.9848 -3.96008,3.8087 -1.58068,0.8072 -3.51448,1.2108 -5.80138,1.2108 -2.8923,0 -5.19604,-0.8071 -6.91122,-2.4215 -1.69838,-1.6311 -2.54757,-3.8087 -2.54756,-6.5329 -10e-6,-3.1781 1.05937,-5.5743 3.17814,-7.1886 2.13558,-1.6143 5.31372,-2.4214 9.53446,-2.4215 l 6.50764,0 0,-0.454 c -2e-5,-2.1355 -0.70628,-3.7835 -2.11877,-4.9438 -1.39571,-1.177 -3.36314,-1.7656 -5.90228,-1.7656 -1.61431,0 -3.18657,0.1934 -4.71678,0.5801 -1.53023,0.3868 -3.00159,0.967 -4.41409,1.7404 l 0,-4.288 c 1.69837,-0.6557 3.34629,-1.1434 4.94378,-1.4629 1.59748,-0.3363 3.15292,-0.5044 4.66634,-0.5045 4.08617,10e-5 7.1382,1.0595 9.1561,3.1782 2.01784,2.1188 3.02678,5.3306 3.02681,9.6353"
         style="font-size:90.55160522px;font-style:normal;font-weight:normal;line-height:125%;letter-spacing:0px;word-spacing:0px;fill:#000000;fill-opacity:1;stroke:none;font-family:Sans"
         id="path8330"
         inkscape:connector-curvature="0" />
      <path
         d="m 650.2614,1875.1421 0,2.2701 -21.33901,0 c 0.20178,3.195 1.16027,5.6333 2.87547,7.3148 1.73199,1.6648 4.13662,2.4972 7.21389,2.4971 1.78244,1e-4 3.50604,-0.2185 5.17081,-0.6558 1.68154,-0.4372 3.34628,-1.093 4.99424,-1.9674 l 0,4.3889 c -1.66478,0.7062 -3.37156,1.2443 -5.12036,1.6143 -1.74884,0.3699 -3.52289,0.5549 -5.32214,0.5549 -4.5066,0 -8.07991,-1.3116 -10.71995,-3.9349 -2.62325,-2.6232 -3.93486,-6.1713 -3.93486,-10.6442 0,-4.6243 1.24435,-8.2901 3.73307,-10.9975 2.50552,-2.7241 5.87704,-4.0861 10.11459,-4.0862 3.80031,10e-5 6.80189,1.2276 9.00476,3.6826 2.21963,2.4384 3.32946,5.7595 3.32949,9.9633 m -4.64111,-1.3621 c -0.0337,-2.5391 -0.74832,-4.5654 -2.14399,-6.0788 -1.3789,-1.5134 -3.2118,-2.2701 -5.49871,-2.2701 -2.58961,0 -4.66634,0.7315 -6.23018,2.1945 -1.54704,1.4629 -2.43827,3.5228 -2.67368,6.1797 l 16.54656,-0.025"
         style="font-size:90.55160522px;font-style:normal;font-weight:normal;line-height:125%;letter-spacing:0px;word-spacing:0px;fill:#000000;fill-opacity:1;stroke:none;font-family:Sans"
         id="path8332"
         inkscape:connector-curvature="0" />
      <path
         d="m 676.46853,1866.4653 0,-15.2854 4.6411,0 0,39.2476 -4.6411,0 0,-4.2376 c -0.97533,1.6816 -2.21128,2.9344 -3.70785,3.7583 -1.47979,0.8072 -3.26224,1.2108 -5.34736,1.2108 -3.41358,0 -6.19656,-1.3621 -8.34895,-4.0862 -2.13559,-2.7241 -3.20338,-6.3059 -3.20338,-10.7452 0,-4.4393 1.06779,-8.021 3.20338,-10.7452 2.15239,-2.7241 4.93537,-4.0861 8.34895,-4.0862 2.08512,10e-5 3.86757,0.412 5.34736,1.236 1.49657,0.8071 2.73252,2.0515 3.70785,3.7331 m -15.81509,9.8623 c 0,3.4136 0.69784,6.0957 2.09355,8.0463 1.4125,1.9338 3.34629,2.9007 5.80138,2.9007 2.45507,0 4.38886,-0.9669 5.80139,-2.9007 1.41249,-1.9506 2.11874,-4.6327 2.11877,-8.0463 -3e-5,-3.4136 -0.70628,-6.0872 -2.11877,-8.021 -1.41253,-1.9506 -3.34632,-2.9259 -5.80139,-2.9259 -2.45509,0 -4.38888,0.9753 -5.80138,2.9259 -1.39571,1.9338 -2.09355,4.6074 -2.09355,8.021"
         style="font-size:90.55160522px;font-style:normal;font-weight:normal;line-height:125%;letter-spacing:0px;word-spacing:0px;fill:#000000;fill-opacity:1;stroke:none;font-family:Sans"
         id="path8334"
         inkscape:connector-curvature="0" />
      <path
         d="m 703.50804,1876.2267 c -3.7499,0 -6.3479,0.4288 -7.79403,1.2864 -1.44615,0.8576 -2.16923,2.3206 -2.16922,4.3889 -1e-5,1.6479 0.53809,2.9595 1.6143,3.9348 1.093,0.9585 2.57278,1.4378 4.43932,1.4378 2.57278,0 4.63269,-0.908 6.17974,-2.7242 1.56383,-1.8328 2.34576,-4.2627 2.34578,-7.2895 l 0,-1.0342 -4.61589,0 m 9.257,-1.917 0,16.1178 -4.64111,0 0,-4.288 c -1.05941,1.7152 -2.37943,2.9848 -3.96008,3.8087 -1.58068,0.8072 -3.51448,1.2108 -5.80139,1.2108 -2.89229,0 -5.19603,-0.8071 -6.91121,-2.4215 -1.69838,-1.6311 -2.54757,-3.8087 -2.54757,-6.5329 0,-3.1781 1.05938,-5.5743 3.17816,-7.1886 2.13557,-1.6143 5.31372,-2.4214 9.53444,-2.4215 l 6.50765,0 0,-0.454 c -2e-5,-2.1355 -0.70628,-3.7835 -2.11877,-4.9438 -1.39571,-1.177 -3.36314,-1.7656 -5.90228,-1.7656 -1.61431,0 -3.18657,0.1934 -4.71678,0.5801 -1.53022,0.3868 -3.00159,0.967 -4.4141,1.7404 l 0,-4.288 c 1.69837,-0.6557 3.3463,-1.1434 4.94379,-1.4629 1.59747,-0.3363 3.15292,-0.5044 4.66633,-0.5045 4.08618,10e-5 7.13821,1.0595 9.15611,3.1782 2.01785,2.1188 3.02678,5.3306 3.02681,9.6353"
         style="font-size:90.55160522px;font-style:normal;font-weight:normal;line-height:125%;letter-spacing:0px;word-spacing:0px;fill:#000000;fill-opacity:1;stroke:none;font-family:Sans"
         id="path8336"
         inkscape:connector-curvature="0" />
      <path
         d="m 743.81506,1899.0035 0,3.6069 -26.83772,0 0,-3.6069 26.83772,0"
         style="font-size:90.55160522px;font-style:normal;font-weight:normal;line-height:125%;letter-spacing:0px;word-spacing:0px;fill:#000000;fill-opacity:1;stroke:none;font-family:Sans"
         id="path8338"
         inkscape:connector-curvature="0" />
      <path
         inkscape:connector-curvature="0"
         d="m 480.42736,1859.6711 c -2.12588,0.943 -4.41098,1.5801 -6.8087,1.8667 2.44712,-1.4671 4.32712,-3.7903 5.21239,-6.5588 -2.29086,1.3588 -4.82783,2.3452 -7.52841,2.8768 -2.16227,-2.3042 -5.2433,-3.7436 -8.65316,-3.7436 -6.54695,0 -11.85524,5.3078 -11.85524,11.8547 0,0.9292 0.10486,1.8341 0.30698,2.7017 -9.85265,-0.4943 -18.58818,-5.2141 -24.43511,-12.3866 -1.02058,1.7509 -1.60521,3.7875 -1.60521,5.9602 0,4.1131 2.09285,7.7416 5.27406,9.8675 -1.94333,-0.062 -3.77142,-0.5949 -5.36967,-1.4828 0,0.05 0,0.099 0,0.1491 0,5.7439 4.08649,10.5351 9.50967,11.6245 -0.99468,0.2709 -2.04202,0.4159 -3.12319,0.4159 -0.76392,0 -1.50657,-0.074 -2.23056,-0.2128 1.50863,4.7097 5.88675,8.1375 11.07443,8.2328 -4.05728,3.1798 -9.16892,5.0751 -14.72331,5.0751 -0.95692,0 -1.90066,-0.056 -2.82802,-0.1658 5.24638,3.3636 11.47793,5.3265 18.17275,5.3265 21.80578,0 33.7304,-18.0644 33.7304,-33.7306 0,-0.514 -0.012,-1.0251 -0.0348,-1.5336 2.31659,-1.6717 4.32632,-3.7594 5.91567,-6.1369"
         style="fill:#00aced"
         id="path6895" />
      <rect
         style="fill:#ffffff;fill-opacity:0;stroke:none"
         id="rect9020"
         width="375.34341"
         height="87.716125"
         x="389.62277"
         y="154.61217"
         transform="translate(0,1674.7244)" />
    </a>
    <g
       id="g7039"
       transform="matrix(0.13383479,0,0,0.13383479,417.68182,1916.3241)">
      <path
         id="path7041"
         d="M 0,64 V 448 H 512 V 64 H 0 z M 480,416 H 32 V 96 h 448 v 320 z"
         inkscape:connector-curvature="0" />
      <rect
         id="rect7043"
         height="96"
         width="96"
         y="128"
         x="352" />
      <rect
         id="rect7045"
         height="32"
         width="224"
         y="256"
         x="64" />
      <rect
         id="rect7047"
         height="32"
         width="224"
         y="320"
         x="64" />
    </g>
    <path
       style="fill:#20b0ff;fill-opacity:1;stroke:none"
       d="m 701.75261,1699.2848 c -190.30489,4.2421 -382.75563,-16.078 -492.87456,37.1966 -76.83428,37.1718 -120.735014,99.2146 -125.269304,141.8137 -4.95014,46.5059 40.103314,149.1118 122.617794,176.4157 81.13214,36.4209 564.21413,38.0933 874.41086,12.7212 79.0862,-7.2411 147.5829,-6.2252 200.1885,-42.6816 70.1753,-48.6324 117.1791,-129.4588 58.0503,-203.3741 -99.3916,-114.1277 -471.51934,-124.7425 -637.12359,-122.0915 z m 561.66819,109.992 c 47.8266,41.1726 31.4008,143.6749 -31.1956,189.6888 -46.6117,34.2638 -74.8285,34.8855 -148.5042,44.9016 -33.2296,6.0272 -302.91049,25.3833 -536.91603,19.6695 -171.83649,-4.1958 -327.25531,-31.3094 -341.41518,-39.5925 -48.49182,-28.366 -96.26185,-88.677 -100.83375,-145.7378 -4.744328,-59.2128 71.96987,-107.3126 145.90862,-134.2844 58.9846,-21.5168 373.0155,-29.7897 452.22841,-30.9673 101.9265,3.4272 483.20733,29.5869 560.72773,96.3221 z"
       id="path8939"
       inkscape:connector-curvature="0"
       sodipodi:nodetypes="cssccsccsscsssscs" />
    <path
       sodipodi:nodetypes="aasaaaaaaaaaaaa"
       inkscape:connector-curvature="0"
       id="path8946"
       d="m 1355.2948,2008.8474 c -8.538,-2.5009 -19.2655,-0.7685 -25.9199,5.9215 -4.9015,4.9278 -6.9387,12.312 -6.4344,21.3013 0.7712,13.7491 4.0559,18.4043 10.4134,22.8718 7.592,5.3351 18.1995,3.3625 26.6298,0.138 3.7524,-1.4352 7.5121,-4.265 9.4971,-8.2277 3.7546,-7.4959 5.5258,-17.756 2.7597,-25.8096 -2.7087,-7.8865 -9.8495,-14.1168 -16.9457,-16.1953 z m 2.3542,9.4612 c 4.5712,4.3115 6.3972,13.3315 4.5359,19.8155 -1.7832,6.2123 -7.795,10.6749 -13.2899,12.174 -5.0799,1.3859 -11.3979,0.2663 -15.3235,-3.7223 -3.6881,-3.7471 -5.6151,-10.4694 -4.8843,-16.0931 0.7172,-5.5191 4.2395,-11.079 8.5942,-13.4538 6.153,-3.3556 15.0922,-3.6957 20.3676,1.2797 z"
       style="fill:#20b0ff;fill-opacity:1;stroke:none" />
    <path
       style="fill:#20b0ff;fill-opacity:1;stroke:none"
       d="m 1402.6093,2052.2836 c -5.8829,-1.4856 -13.2744,-0.4565 -17.8594,3.5175 -3.3772,2.9272 -4.7809,7.3136 -4.4334,12.6535 0.5314,8.1673 2.7946,10.9326 7.175,13.5864 5.2311,3.1692 12.5399,1.9974 18.3485,0.082 2.5855,-0.8526 5.176,-2.5335 6.5437,-4.8875 2.587,-4.4527 3.8074,-10.5475 1.9015,-15.3315 -1.8664,-4.6848 -6.7865,-8.3857 -11.6759,-9.6204 z m 1.622,5.6202 c 3.1497,2.5611 4.4078,7.9192 3.1254,11.7709 -1.2287,3.6902 -5.3709,6.3411 -9.157,7.2316 -3.5002,0.8233 -7.8534,0.1582 -10.5582,-2.2111 -2.5412,-2.2259 -3.8689,-6.2191 -3.3654,-9.5597 0.4941,-3.2785 2.9211,-6.5812 5.9216,-7.9919 4.2395,-1.9933 10.3988,-2.1953 14.0336,0.7602 z"
       id="path8948"
       inkscape:connector-curvature="0"
       sodipodi:nodetypes="aasaaaaaaaaaaaa" />
  </g>
</svg>
