<?xml version="1.0" encoding="utf-8"?>
<!-- Generator: Adobe Illustrator 15.0.0, SVG Export Plug-In . SVG Version: 6.00 Build 0)  -->
<!DOCTYPE svg PUBLIC "-//W3C//DTD SVG 1.1//EN" "http://www.w3.org/Graphics/SVG/1.1/DTD/svg11.dtd">
<svg version="1.1" id="レイヤー_1" xmlns="http://www.w3.org/2000/svg" xmlns:xlink="http://www.w3.org/1999/xlink" x="0px"
	 y="0px" width="595.28px" height="841.89px" viewBox="0 0 595.28 841.89" enable-background="new 0 0 595.28 841.89"
	 xml:space="preserve">
<g>
	<path fill="#6699FF" d="M160.479,435.778c0,0,7.45,8.441,25.325-26.813c0,0,30.787-38.733,55.118,2.481
		c0,0,3.477,19.86,17.381,15.393c0,0,17.379-3.973,25.324-20.856c0,0,15.394-27.806,44.194-28.8c0,0,23.835,2.483,31.779,27.808
		c0,0,2.481,17.38,15.393,16.388c0,0,9.932-0.499,23.339-21.354c0,0,20.856-29.793,42.208-26.317c0,0,22.346,1.985,31.78,25.821
		c0,0,7.944,34.759,31.779,4.967l4.965-6.457c0,0-3.474,25.325-28.8,25.325c0,0-13.902-2.979-16.882-25.325
		c0,0-15.892-26.315-34.76-16.883c0,0-20.36,7.447-32.276,33.269c0,0-15.393,25.82-38.235,8.939c0,0-6.953-6.954-7.945-18.868
		c0,0-4.966-23.34-32.773-19.864c0,0-22.347,11.919-25.323,22.843c0,0-28.305,45.186-51.644,19.365c0,0-5.462-30.289-27.808-28.801
		c0,0-20.358,0.498-31.282,30.786c0,0-8.939,26.319-31.284,2.484C150.051,431.309,157.997,436.772,160.479,435.778z"/>
	<path fill="#6699FF" d="M177.86,446.701c0,0,9.434-8.441,13.407-18.372c0,0,10.427-20.358,26.814-7.45
		c0,0,5.462,6.457,7.449,12.911c0,0,3.476,9.932,14.4,7.449c0,0-11.916,13.904-26.318-14.4c0,0-11.421-5.461-18.869,5.958
		C194.742,432.797,188.287,450.674,177.86,446.701z"/>
	<path fill="#6699FF" d="M284.123,433.79c0,0,21.85-39.725,37.242-32.274c0,0,6.456-0.497,15.89,21.848
		c0,0,4.471,9.434,15.891,5.958c0,0-10.924,14.4-31.282-18.87c0,0-6.953-6.95-15.891,2.486
		C305.973,412.938,289.586,433.79,284.123,433.79z"/>
	<path fill="#6699FF" d="M398.831,427.832c0,0,21.847-39.725,37.24-32.276c0,0,6.454-0.497,15.891,21.847
		c0,0,4.468,9.437,15.89,5.961c0,0-10.924,14.4-31.282-18.868c0,0-6.953-6.952-15.892,2.48
		C420.678,406.976,404.292,427.832,398.831,427.832z"/>
	<path fill="#6699FF" d="M290.081,439.749c0,0,8.939,0.995,16.886-14.398c0,0,11.42-12.911,19.364,3.971
		c0,0,4.966,15.891,14.896,10.923c0,0-13.904,14.899-22.344-9.929c0,0-4.966-6.952-11.421,1.489
		C307.463,431.805,300.51,449.68,290.081,439.749z"/>
	<path fill="#6699FF" d="M408.485,433.79c0,0,8.937,0.995,16.882-14.399c0,0,11.422-12.91,19.366,3.973
		c0,0,4.965,15.887,14.898,10.924c0,0-13.906,14.896-22.348-9.93c0,0-4.964-6.952-11.42,1.487
		C425.864,425.845,418.913,443.722,408.485,433.79z"/>
	<path fill="#6699FF" d="M187.79,454.149c0,0,9.931-7.944,15.394-14.896c0,0,7.945-8.442,14.4,3.476
		c6.455,11.916,15.394,11.42,18.869,10.427c0,0-18.869,7.945-25.325-8.937c0,0-2.979-4.469-6.952,1.489
		C204.177,445.709,190.77,460.606,187.79,454.149z"/>
	<path fill="#6699FF" d="M97.913,499.833c0,0,7.447,8.442,25.324-26.814c0,0,30.788-38.732,55.118,2.481
		c0,0,3.477,19.862,17.38,15.393c0,0,17.378-3.971,25.324-20.853c0,0,15.394-27.809,44.194-28.803c0,0,23.835,2.484,31.779,27.808
		c0,0,2.482,17.383,15.396,16.388c0,0,9.929-0.498,23.336-21.354c0,0,20.857-29.793,42.209-26.316c0,0,22.344,1.986,31.78,25.82
		c0,0,7.943,34.759,31.778,4.966l4.966-6.454c0,0-3.477,25.324-28.801,25.324c0,0-13.903-2.98-16.882-25.324
		c0,0-15.891-26.317-34.759-16.883c0,0-20.358,7.447-32.277,33.268c0,0-15.393,25.822-38.236,8.939c0,0-6.951-6.953-7.943-18.87
		c0,0-4.967-23.337-32.774-19.862c0,0-22.345,11.917-25.324,22.842c0,0-28.305,45.188-51.641,19.364c0,0-5.464-30.286-27.809-28.798
		c0,0-20.359,0.498-31.283,30.787c0,0-8.939,26.317-31.284,2.482C87.484,495.364,95.429,500.826,97.913,499.833z"/>
	<path fill="#6699FF" d="M115.292,510.757c0,0,9.435-8.442,13.407-18.371c0,0,10.427-20.36,26.814-7.449
		c0,0,5.462,6.455,7.448,12.911c0,0,3.476,9.931,14.401,7.445c0,0-11.917,13.905-26.318-14.4c0,0-11.419-5.46-18.869,5.961
		C132.175,496.854,125.72,514.728,115.292,510.757z"/>
	<path fill="#6699FF" d="M221.556,497.848c0,0,21.848-39.726,37.243-32.277c0,0,6.455-0.498,15.89,21.849c0,0,4.47,9.435,15.89,5.96
		c0,0-10.924,14.399-31.283-18.872c0,0-6.951-6.951-15.891,2.484C243.404,476.991,227.017,497.848,221.556,497.848z"/>
	<path fill="#6699FF" d="M336.261,491.888c0,0,21.851-39.724,37.243-32.277c0,0,6.455-0.494,15.89,21.85
		c0,0,4.469,9.435,15.89,5.959c0,0-10.924,14.4-31.282-18.87c0,0-6.953-6.951-15.89,2.484
		C358.111,471.033,341.724,491.888,336.261,491.888z"/>
	<path fill="#6699FF" d="M227.515,503.806c0,0,8.938,0.995,16.884-14.399c0,0,11.42-12.912,19.366,3.973
		c0,0,4.964,15.887,14.897,10.923c0,0-13.906,14.896-22.348-9.933c0,0-4.964-6.95-11.42,1.491
		C244.895,495.86,237.943,513.735,227.515,503.806z"/>
	<path fill="#6699FF" d="M339.242,497.848c0,0,8.938,0.991,16.882-14.402c0,0,11.422-12.908,19.367,3.974
		c0,0,4.964,15.889,14.897,10.923c0,0-13.906,14.899-22.347-9.929c0,0-4.966-6.953-11.42,1.489
		C356.622,489.902,349.669,507.778,339.242,497.848z"/>
	<path fill="#6699FF" d="M125.224,518.206c0,0,9.931-7.947,15.394-14.896c0,0,7.944-8.442,14.399,3.475
		c6.456,11.918,15.394,11.42,18.869,10.43c0,0-18.869,7.945-25.325-8.94c0,0-2.979-4.467-6.951,1.49
		C141.61,509.764,128.203,524.661,125.224,518.206z"/>
	<path fill="#6699FF" d="M109.646,382.149c0,0,7.448,8.439,25.325-26.814c0,0,30.787-38.734,55.118,2.479
		c0,0,3.477,19.862,17.379,15.396c0,0,17.379-3.973,25.324-20.854c0,0,15.395-27.809,44.194-28.803c0,0,23.836,2.485,31.779,27.811
		c0,0,2.483,17.378,15.394,16.385c0,0,9.933-0.497,23.339-21.352c0,0,20.856-29.795,42.207-26.32c0,0,22.345,1.987,31.781,25.822
		c0,0,7.943,34.761,31.778,4.968l4.966-6.457c0,0-3.474,25.326-28.801,25.326c0,0-13.903-2.98-16.882-25.326
		c0,0-15.892-26.316-34.759-16.882c0,0-20.358,7.449-32.277,33.27c0,0-15.393,25.82-38.235,8.938c0,0-6.952-6.952-7.944-18.869
		c0,0-4.966-23.339-32.774-19.865c0,0-22.345,11.92-25.323,22.841c0,0-21.168,42.211-51.642,19.368c0,0-9.748-27.309-27.808-28.801
		c0,0-20.359,0.497-31.284,30.786c0,0-8.938,26.318-31.283,2.484C99.218,377.679,107.163,383.142,109.646,382.149z"/>
	<path fill="#6699FF" d="M127.026,393.07c0,0,9.434-8.439,13.407-18.372c0,0,10.427-20.356,26.814-7.448
		c0,0,5.462,6.457,7.448,12.912c0,0,3.477,9.929,14.4,7.447c0,0-11.917,13.903-26.318-14.4c0,0-11.419-5.459-18.869,5.96
		C143.909,379.169,137.454,397.042,127.026,393.07z"/>
	<path fill="#6699FF" d="M233.29,380.162c0,0,21.85-39.727,37.242-32.277c0,0,6.455-0.498,15.89,21.85c0,0,4.469,9.435,15.891,5.958
		c0,0-10.926,14.398-31.284-18.871c0,0-6.951-6.953-15.889,2.486C255.14,359.308,238.752,380.162,233.29,380.162z"/>
	<path fill="#6699FF" d="M347.997,374.201c0,0,21.848-39.724,37.24-32.274c0,0,6.455-0.498,15.89,21.848
		c0,0,4.469,9.435,15.891,5.96c0,0-10.924,14.4-31.283-18.869c0,0-6.952-6.953-15.89,2.483
		C369.845,353.349,353.457,374.201,347.997,374.201z"/>
	<path fill="#6699FF" d="M239.249,386.118c0,0,8.938,0.995,16.883-14.398c0,0,11.42-12.911,19.366,3.973
		c0,0,4.965,15.89,14.896,10.924c0,0-13.905,14.896-22.345-9.931c0,0-4.967-6.951-11.421,1.491
		C256.629,378.177,249.678,396.051,239.249,386.118z"/>
	<path fill="#6699FF" d="M350.976,380.162c0,0,8.938,0.993,16.884-14.4c0,0,11.42-12.911,19.365,3.973
		c0,0,4.964,15.888,14.897,10.924c0,0-13.905,14.896-22.347-9.933c0,0-4.965-6.951-11.42,1.49
		C368.355,372.216,361.402,390.091,350.976,380.162z"/>
	<path fill="#6699FF" d="M136.958,400.521c0,0,9.93-7.943,15.393-14.898c0,0,7.945-8.439,14.4,3.479
		c6.456,11.914,15.393,11.42,18.869,10.427c0,0-18.869,7.944-25.324-8.938c0,0-2.98-4.467-6.952,1.49
		C153.343,392.079,139.937,406.976,136.958,400.521z"/>
</g>
</svg>
